<ttFont>
          <CharString index="0">
            206 124 rmoveto
            -24 callsubr
            31 -86 rlineto
            -38 13 17 -8 27 hhcurveto
            19 23 4 7 15 -67 callgsubr
            -200 -538 -78 callgsubr
            17 205 -86 callsubr
            return
          </CharString>
          <CharString index="1">
            516 85 rmoveto
            -262 hlineto
            -25 -21 -1 -2 -19 hvcurveto
            18 -60 callgsubr
            3 -12 callgsubr
            -2 17 -3 -76 callgsubr
            25 0 15 hhcurveto
            241 -61 callsubr
            -6 -6 rlineto
            -616 vlineto
            -38 22 -24 35 vhcurveto
            return
          </CharString>
          <CharString index="2">
            -106 callsubr
            301 hlineto
            36 22 -31 callgsubr
            return
          </CharString>
          <CharString index="3">
            156 342 92 callsubr
            30 150 142 143 29 -150 -123 -123 -29 -151 -143 -142 -30 54 callsubr
            vhcurveto
            -105 hmoveto
            -110 28 -26 callsubr
            79 hhcurveto
            80 50 24 36 41 hvcurveto
            79 68 28 117 110 vvcurveto
            109 -28 117 -79 68 vhcurveto
            36 -41 -50 24 -80 hhcurveto
            -79 8 callsubr
            -78 -68 -28 8 callgsubr
            return
          </CharString>
          <CharString index="4">
            hintmask 11101000
            -105 callsubr
            return
          </CharString>
          <CharString index="5">
            hintmask 11101000
            -104 callgsubr
            return
          </CharString>
          <CharString index="6">
            44 -27 78 -32 99 1 rrcurveto
            129 2 82 65 98 vvcurveto
            77 -61 51 -79 28 vhcurveto
            -101 35 rlineto
            -47 17 -26 14 33 vvcurveto
            41 35 28 57 1 vhcurveto
            50 1 64 -15 50 -22 rrcurveto
            22 17 13 30 29 vvcurveto
            21 -49 -76 20 -72 hhcurveto
            -125 -2 -72 -70 -88 vvcurveto
            -71 51 -43 79 -27 vhcurveto
            104 -36 rlineto
            52 -17 26 -28 -34 vvcurveto
            -46 -49 -29 -57 -1 vhcurveto
            -73 -62 27 26 -47 hvcurveto
            -21 -13 -18 -34 -27 vvcurveto
            return
          </CharString>
          <CharString index="7">
            536 483 rmoveto
            131 -86 73 -139 -67 -71 -23 callsubr
            19 -33 callsubr
            277 86 vlineto
            63 23 -36 -47 17 hvcurveto
            52 -139 rlineto
            -41 15 14 -21 38 hhcurveto
            24 30 11 20 13 hvcurveto
            -22 18 -12 28 -10 26 -46 121 rcurveline
            -14 39 -24 34 -32 11 rrcurveto
            74 24 55 66 92 vvcurveto
            -344 125 rmoveto
            -1 34 51 0 30 hhcurveto
            101 24 -62 -62 -59 -24 -64 -101 -30 -46 -1 -2 -39 hvcurveto
            return
          </CharString>
          <CharString index="8">
            489 386 rmoveto
            108 -81 54 -124 -64 -60 -1 -2 -69 vhcurveto
            19 callsubr
            -540 vlineto
            -3 14 21 -46 callsubr
            216 66 vlineto
            51 21 -19 -39 17 hvcurveto
            49 -113 rlineto
            -34 15 15 -17 33 hhcurveto
            26 27 12 18 13 hvcurveto
            -15 14 -13 24 -12 26 -39 87 rcurveline
            -15 33 -18 23 -33 13 rrcurveto
            64 15 53 56 71 vvcurveto
            -305 88 rmoveto
            -1 30 39 0 27 hhcurveto
            83 23 -45 -43 -42 -22 -49 -86 hvcurveto
            -23 -36 -1 -35 hhcurveto
            return
          </CharString>
          <CharString index="9">
            rmoveto
            7 -18 18 -16 18 -6 169 133 rcurveline
            -11 28 -30 28 -29 9 rrcurveto
            endchar
          </CharString>
          <CharString index="10">
            55 100 rmoveto
            -9 -13 -4 -14 -13 vvcurveto
            -8 1 -9 11 -43 vhcurveto
            337 hlineto
            44 25 19 35 17 -3 12 -5 15 hvcurveto
            -11 -24 -38 -4 -45 hhcurveto
            -85 -1 rlineto
            -28 -39 -2 -3 -42 hvcurveto
            -2 3 23 26 30 33 18 24 rlinecurve
            220 283 rlineto
            9 12 4 13 12 vvcurveto
            8 -2 9 -13 45 vhcurveto
            -370 hlineto
            -5 -17 -2 -14 -17 vvcurveto
            -11 1 -11 3 -11 vhcurveto
            139 hlineto
            22 89 1 5 30 hvcurveto
            3 -3 -25 -27 -30 -32 -18 -23 rlinecurve
            return
          </CharString>
          <CharString index="11">
            584 683 rmoveto
            3 -14 -21 1 -16 -17 callsubr
            -444 vlineto
            -112 -53 -59 -98 -98 -52 59 112 vhcurveto
            384 55 callsubr
            -42 vhcurveto
            -38 -23 callgsubr
            -443 vlineto
            -165 100 -86 149 152 99 86 165 vhcurveto
            return
          </CharString>
          <CharString index="12">
            0 callsubr
            -48 vhcurveto
            -13 hlineto
            -13 -23 -1 -3 -24 hvcurveto
            43 callsubr
            -11 36 callsubr
            1 -11 3 -11 vhcurveto
            11 hlineto
            32 11 -15 -36 hvcurveto
            -371 47 callsubr
            18 -52 callgsubr
            return
          </CharString>
          <CharString index="13">
            528 545 rmoveto
            3 -15 -21 56 callsubr
            -18 2 callgsubr
            -352 vlineto
            -82 -42 -45 -85 -84 -43 45 82 vhcurveto
            293 vlineto
            44 -16 19 -40 vhcurveto
            -37 -23 callgsubr
            -350 vlineto
            -134 88 -72 138 139 87 72 134 vhcurveto
            return
          </CharString>
          <CharString index="14">
            rmoveto
            -29 9 -42 -4 -26 -17 rrcurveto
            8 -15 5 -20 -18 vvcurveto
            -38 -19 -31 -40 -26 vhcurveto
            4 -19 12 -17 16 -6 rrcurveto
            74 30 46 55 66 vvcurveto
            18 -4 22 80 callsubr
            endchar
          </CharString>
          <CharString index="15">
            rmoveto
            -16 -5 -21 -16 -7 -22 112 -105 rcurveline
            24 -5 39 1 24 4 114 112 rcurveline
            -5 19 -22 18 -16 6 -115 -82 rcurveline
            endchar
          </CharString>
          <CharString index="16">
            103 hintmask 11010100
            -101 callgsubr
            return
          </CharString>
          <CharString index="17">
            -91 callgsubr
            hintmask 00101000
            -92 callgsubr
          </CharString>
          <CharString index="18">
            93 hintmask 00000000
            hintmask 10010100
            -58 callsubr
            hintmask 01010100
            -86 callgsubr
            return
          </CharString>
          <CharString index="19">
            hintmask 11010000
            -97 callgsubr
            hintmask 00101000
            return
          </CharString>
          <CharString index="20">
            hintmask 11010000
            -97 callsubr
            hintmask 00101000
            return
          </CharString>
          <CharString index="21">
            rmoveto
            11 33 18 57 12 43 rrcurveto
            4 hlineto
            13 -45 21 -67 14 -43 37 -103 rcurveline
            -13 -22 1 -6 hhcurveto
            -87 hlineto
            -7 -26 -1 -14 hhcurveto
            return
          </CharString>
          <CharString index="22">
            rmoveto
            -4 12 16 -1 13 hhcurveto
            13 15 1 4 11 hvcurveto
            79 vlineto
            9 13 -1 9 hhcurveto
            27 hlineto
            5 12 2 17 13 vvcurveto
            9 -1 11 -2 9 vhcurveto
            -62 116 hlineto
            -2 3 rlineto
            -24 hlineto
            -33 -21 -22 -37 hvcurveto
            -60 -24 vlineto
            -14 -30 0 -2 -24 hvcurveto
            -1 2 16 22 18 38 13 27 rlinecurve
            79 171 -17 14 -37 8 -25 -4 rlinecurve
            -117 -252 rlineto
            -7 -12 -8 -20 -14 vvcurveto
            -14 9 -20 9 -15 vhcurveto
            121 hlineto
            14 13 1 12 hhcurveto
            endchar
          </CharString>
          <CharString index="23">
            rmoveto
            2 -17 12 -24 15 -10 215 89 rcurveline
            -4 32 -20 35 -20 14 rrcurveto
            endchar
          </CharString>
          <CharString index="24">
            32 62 rmoveto
            -46 66 89 -29 83 hhcurveto
            164 79 85 114 90 -66 59 -83 37 hvcurveto
            -116 49 rlineto
            -50 22 -36 26 46 vvcurveto
            56 48 42 76 52 66 -21 -26 52 vhcurveto
            22 19 14 31 1 29 rrcurveto
            26 -52 -75 25 -82 hhcurveto
            -134 -90 -85 -107 -84 53 -52 84 -37 hvcurveto
            117 -50 59 -26 37 -36 -1 -50 rlinecurve
            -58 -1 -49 -40 -83 hhcurveto
            -69 -74 30 38 -58 hvcurveto
            -21 -16 -19 -32 -3 -29 rrcurveto
            return
          </CharString>
          <CharString index="25">
            231 168 rmoveto
            -24 callgsubr
            40 -123 rlineto
            -42 13 15 -11 31 hhcurveto
            22 22 4 9 15 hvcurveto
            -226 return
          </CharString>
          <CharString index="26">
            rmoveto
            53 -29 32 -47 vhcurveto
            -12 hlineto
            -16 -28 -1 -3 -27 hvcurveto
            -2 -13 -2 -11 36 callsubr
            2 -11 2 -11 vhcurveto
            20 hlineto
            33 10 -15 -36 hvcurveto
            -407 vlineto
            -67 -16 -28 -56 -28 vhcurveto
            4 -25 12 -23 13 -12 rrcurveto
            133 35 6 71 130 vvcurveto
            return
          </CharString>
          <CharString index="27">
            96 -31 callsubr
            20 -40 callgsubr
            683 vlineto
            3 -15 -20 -33 callgsubr
            -14 hvcurveto
            return
          </CharString>
          <CharString index="28">
            -91 callgsubr
            hintmask 01100000
            -92 callgsubr
          </CharString>
          <CharString index="29">
            266 365 rmoveto
            -17 -39 -11 -39 -10 -31 rrcurveto
            -5 hlineto
            -7 27 -13 40 -15 35 -66 154 rcurveline
            29 -12 -15 11 -27 hhcurveto
            -20 -19 -5 -10 -20 hvcurveto
            163 -369 rlineto
            -168 vlineto
            69 callgsubr
            16 29 callgsubr
            166 vlineto
            164 371 -5 6 rlineto
            4 -15 -12 2 -17 hhcurveto
            -13 -16 -11 callgsubr
            return
          </CharString>
          <CharString index="30">
            -54 callsubr
            69 70 23 33 47 vhcurveto
            -66 callsubr
            return
          </CharString>
          <CharString index="31">
            474 246 rmoveto
            82 -18 70 -52 53 vhcurveto
            37 -37 -49 18 -58 16 callsubr
            -53 -18 -70 -82 vvcurveto
            -82 -36 callgsubr
            69 82 vvcurveto
            -328 hmoveto
            17 callgsubr
            -94 -25 -90 -89 -89 -25 90 94 vhcurveto
            return
          </CharString>
          <CharString index="32">
            -12 3 -25 6 -12 vhcurveto
            -7 13 25 -5 21 hhcurveto
            19 29 72 callgsubr
            6 0 callgsubr
            -6 12 vhcurveto
            7 -12 -28 18 callgsubr
            -21 -25 -5 -7 -13 25 callsubr
            return
          </CharString>
          <CharString index="33">
            10 3 16 12 vvcurveto
            12 -3 15 return
          </CharString>
          <CharString index="34">
            408 335 rmoveto
            -39 callsubr
            -142 62 -142 173 92 77 36 45 50 hvcurveto
            -51 callsubr
            return
          </CharString>
          <CharString index="35">
            70 callgsubr
            hintmask 11010100
            -94 callsubr
            hintmask 00101000
            return
          </CharString>
          <CharString index="36">
            576 26 rmoveto
            -20 17 -11 20 -13 33 -56 147 rcurveline
            -27 70 -28 42 -68 12 15 13 12 16 11 18 155 260 rcurveline
            -6 9 rlineto
            2 -20 -20 1 -17 hhcurveto
            -34 -12 -14 -28 -15 hvcurveto
            -133 -221 rlineto
            -20 -11 -7 -8 -19 hhcurveto
            -60 -1 rlineto
            289 -35 callsubr
            307 vlineto
            2 33 24 1 14 hhcurveto
            61 32 -27 -78 29 hvcurveto
            56 -149 rlineto
            -41 14 13 -21 40 hhcurveto
            24 30 11 21 14 hvcurveto
            return
          </CharString>
          <CharString index="37">
            hintmask 10010000
            -79 callgsubr
            return
          </CharString>
          <CharString index="38">
            -57 88 callgsubr
            -20 7 -22 hhcurveto
            -43 -38 89 callgsubr
            -8 88 callsubr
            22 -12 19 hhcurveto
            12 14 rlineto
            15 11 15 10 14 hhcurveto
            12 12 -5 -4 9 hvcurveto
            endchar
          </CharString>
          <CharString index="39">
            -59 callgsubr
            378 vlineto
            -13 callsubr
            -729 -59 callsubr
            return
          </CharString>
          <CharString index="40">
            rmoveto
            -61 48 -51 70 70 48 51 61 -73 callgsubr
          </CharString>
          <CharString index="41">
            -3 20 -12 28 -16 15 rrcurveto
            -22 -43 -47 -17 -51 hhcurveto
            -86 -28 62 87 -4 hvcurveto
            106 218 rmoveto
            75 29 -61 -73 hvcurveto
            -13 -210 vlineto
            91 4 35 56 67 hhcurveto
            return
          </CharString>
          <CharString index="42">
            8 -11 -27 5 -20 50 callgsubr
            -5 -8 -4 -25 -1 callsubr
            9 -6 20 -4 13 -1 -1 -38 -34 -31 -33 -16 -2 -19 11 -21 17 -8 rrcurveto
            85 31 43 66 79 vvcurveto
            23 -4 25 -7 16 vhcurveto
            return
          </CharString>
          <CharString index="43">
            rmoveto
            -7 16 19 -8 23 hhcurveto
            41 38 25 46 21 hvcurveto
            8 19 rlineto
            17 -8 -21 13 -19 hhcurveto
            -12 -14 rlineto
            -16 -12 -14 -9 -14 hhcurveto
            -11 -13 4 5 -9 hvcurveto
            return
          </CharString>
          <CharString index="44">
            vvcurveto
            87 -27 96 -70 55 vhcurveto
            29 -38 -45 19 -73 hhcurveto
            -71 -46 -19 -29 -37 hvcurveto
            return
          </CharString>
          <CharString index="45">
            rmoveto
            -20 -21 -13 -26 -5 -28 rrcurveto
            -27 43 60 -15 52 hhcurveto
            171 30 112 145 hvcurveto
            436 vlineto
            3 -14 -20 -13 callgsubr
            -16 28 callsubr
            -451 vlineto
            -110 -26 -48 -83 -37 -42 15 18 -30 vhcurveto
            return
          </CharString>
          <CharString index="46">
            hlineto
            5 -47 callsubr
            -399 hlineto
            return
          </CharString>
          <CharString index="47">
            rmoveto
            -11 3 -24 5 5 callgsubr
            21 -5 18 hhcurveto
            16 25 5 7 9 hvcurveto
            5 11 2 24 -10 callgsubr
            -2 24 13 callgsubr
            -10 -24 4 -16 hhcurveto
            -18 -14 callsubr
            -5 -11 -3 -24 -11 vvcurveto
            endchar
          </CharString>
          <CharString index="48">
            -27 callgsubr
            214 vlineto
            2 17 16 82 callgsubr
            48 18 -15 -53 22 hvcurveto
            42 -99 rlineto
            -37 15 12 -20 36 hhcurveto
            25 27 14 16 13 hvcurveto
            -20 15 -14 28 -14 35 rrcurveto
            return
          </CharString>
          <CharString index="49">
            579 687 rmoveto
            -32 hlineto
            -42 -12 -19 -44 hvcurveto
            -264 vlineto
            -69 3 -99 5 -79 vhcurveto
            -3 -1 rlineto
            1 vlineto
            -20 41 -22 51 -26 51 rrcurveto
            return
          </CharString>
          <CharString index="50">
            46 240 rmoveto
            -149 58 -104 113 60 52 30 39 34 vhcurveto
            12 -31 24 -24 38 -8 17 9 16 23 34 callsubr
            533 vlineto
            27 callsubr
            -37 -23 callgsubr
            -262 vlineto
            20 -35 -38 14 -43 hhcurveto
            -93 -97 -81 -180 hvcurveto
            192 -172 rmoveto
            -50 -44 50 122 126 48 57 57 36 36 -17 -21 31 hvcurveto
            -251 vlineto
            -44 -32 -44 -22 -38 hhcurveto
            return
          </CharString>
          <CharString index="51">
            rmoveto
            -123 hlineto
            -22 -30 -2 -4 -30 hvcurveto
            8 15 19 16 29 23 56 44 rcurveline
            50 39 32 37 62 vvcurveto
            68 -53 58 -84 -73 -49 -47 -54 -18 vhcurveto
            10 -15 32 -14 21 -2 rrcurveto
            33 14 24 25 32 hhcurveto
            33 23 -24 -32 -29 -14 -20 -33 -26 hvcurveto
            -71 -58 rlineto
            -44 -36 -33 -42 -39 vvcurveto
            -21 18 -18 10 -12 vhcurveto
            219 hlineto
            26 16 15 24 4 hvcurveto
            1 10 0 16 10 vvcurveto
            endchar
          </CharString>
          <CharString index="52">
            rlineto
            -17 7 21 -13 20 hhcurveto
            11 15 rlineto
            14 11 14 return
          </CharString>
          <CharString index="53">
            443 -34 callgsubr
            -137 -70 -111 -149 -136 47 -123 157 return
          </CharString>
          <CharString index="54">
            rmoveto
            -46 -24 33 43 56 36 34 63 29 34 -1 -4 31 hvcurveto
            -96 vlineto
            -43 -37 -47 -22 -39 hhcurveto
            return
          </CharString>
          <CharString index="55">
            -17 19 -77 11 -98 vhcurveto
            13 -7 27 0 11 7 rrcurveto
            12 97 19 78 17 vvcurveto
            15 -3 16 -4 15 vhcurveto
            7 -11 -19 18 callgsubr
            -21 -17 53 callgsubr
            -4 -15 -2 -16 -15 vvcurveto
            return
          </CharString>
          <CharString index="56">
            -5 21 -22 30 -21 13 rrcurveto
            -39 -52 -53 -22 -52 hhcurveto
            -86 -60 65 135 136 49 71 93 95 26 -69 -74 1 hvcurveto
            return
          </CharString>
          <CharString index="57">
            97 hintmask 00000000
            hintmask 10010100
            -4 callsubr
            hintmask 01010100
            -68 callgsubr
            return
          </CharString>
          <CharString index="58">
            13 2 15 6 callgsubr
            -2 14 return
          </CharString>
          <CharString index="59">
            537 271 rmoveto
            93 -14 84 -81 59 vhcurveto
            29 -39 -73 12 -48 21 callgsubr
            -535 vlineto
            89 callsubr
            76 41 -1 74 hhcurveto
            48 73 11 28 39 hvcurveto
            82 60 13 82 93 vvcurveto
            -102 hmoveto
            -91 -21 -106 -133 vhcurveto
            -37 -27 -1 -33 hhcurveto
            398 vlineto
            -1 33 27 0 37 hhcurveto
            133 21 -107 -92 hvcurveto
            return
          </CharString>
          <CharString index="60">
            15 2 19 -10 callgsubr
            0 14 -3 15 vhcurveto
            return
          </CharString>
          <CharString index="61">
            52 callgsubr
            18 -7 callsubr
            return
          </CharString>
          <CharString index="62">
            171 hmoveto
            52 callsubr
            15 hhcurveto
            15 21 -40 callsubr
            405 vlineto
            21 -1 16 22 vvcurveto
            12 27 -1 12 hhcurveto
            57 hlineto
            41 12 16 28 10 -2 17 -4 11 hvcurveto
            -411 22 callsubr
            -16 -11 vvcurveto
            -12 1 -14 3 -15 vhcurveto
            107 hlineto
            12 27 58 callgsubr
            -22 -1 -16 -21 vvcurveto
            return
          </CharString>
          <CharString index="63">
            rmoveto
            -8 21 -24 23 -23 7 -192 -184 rcurveline
            -7 -16 0 -30 7 -16 197 -186 rcurveline
            22 7 25 23 8 22 -146 167 rcurveline
            return
          </CharString>
          <CharString index="64">
            rmoveto
            -7 15 19 -8 23 hhcurveto
            39 38 25 return
          </CharString>
          <CharString index="65">
            196 hmoveto
            -3 15 19 51 callsubr
            19 -7 callsubr
            526 vlineto
            27 -1 19 28 vvcurveto
            1 hlineto
            13 31 -1 13 hhcurveto
            70 hlineto
            38 18 12 32 13 -2 16 -4 11 hvcurveto
            -455 hlineto
            -3 -15 -1 -2 callsubr
            -13 1 -15 3 -14 vhcurveto
            121 hlineto
            13 30 1 14 hhcurveto
            return
          </CharString>
          <CharString index="66">
            76 153 rmoveto
            -90 38 -72 93 64 62 31 44 44 vhcurveto
            11 -36 25 -28 43 -9 16 9 16 22 34 callsubr
            return
          </CharString>
          <CharString index="67">
            1 3 13 hvcurveto
            return
          </CharString>
          <CharString index="68">
            -2 13 11 -2 13 hhcurveto
            43 14 23 33 79 -67 92 -147 -131 -116 -86 -201 return
          </CharString>
          <CharString index="69">
            rlineto
            8 -16 -19 8 -22 hhcurveto
            -42 -36 return
          </CharString>
          <CharString index="70">
            -25 callsubr
            hstem
            168 93 vstem
            252 -58 -93 callsubr
          </CharString>
          <CharString index="71">
            -1 -1 -17 hvcurveto
            12 1 15 17 vvcurveto
            114 return
          </CharString>
          <CharString index="72">
            -16 callsubr
            -683 3 callsubr
            return
          </CharString>
          <CharString index="73">
            -4 -7 -11 hvcurveto
            return
          </CharString>
          <CharString index="74">
            -2 callgsubr
            17 -30 callsubr
            return
          </CharString>
          <CharString index="75">
            hlineto
            35 20 -22 callgsubr
            return
          </CharString>
          <CharString index="76">
            hmoveto
            -12 callsubr
            16 return
          </CharString>
          <CharString index="77">
            19 -40 callgsubr
            return
          </CharString>
          <CharString index="78">
            280 86 rmoveto
            -27 -30 -1 -2 -31 hvcurveto
            540 vlineto
            20 callsubr
            -619 -22 callsubr
            return
          </CharString>
          <CharString index="79">
            -27 callgsubr
            349 vlineto
            40 36 54 25 42 hhcurveto
            51 14 -30 -70 hvcurveto
            -259 vlineto
            -40 13 -22 38 23 23 9 12 15 vhcurveto
            -12 23 -4 32 34 vvcurveto
            return
          </CharString>
          <CharString index="80">
            -172 224 85 hstem
            51 244 vstem
            295 224 rmoveto
            4 85 callgsubr
            -4 14 vhcurveto
            -244 38 callsubr
          </CharString>
          <CharString index="81">
            -117 78 -68 vhcurveto
            -36 41 51 -24 return
          </CharString>
          <CharString index="82">
            -239 -21 63 -21 148 16 return
          </CharString>
          <CharString index="83">
            123 hlineto
            7 32 58 callgsubr
            return
          </CharString>
          <CharString index="84">
            -2 -1 -74 vhcurveto
            -7 -7 22 callgsubr
            return
          </CharString>
          <CharString index="85">
            vlineto
            -41 24 -22 34 vhcurveto
            265 hlineto
            36 23 1 callgsubr
            13 0 17 10 vvcurveto
            return
          </CharString>
          <CharString index="86">
            452 485 rmoveto
            -4 5 rlineto
            5 -15 -17 2 -17 hhcurveto
            -14 -16 -1 -3 -12 hvcurveto
            -113 -427 rlineto
            -5 -2 1 6 -2 hvcurveto
            -10 39 -15 63 -14 47 rrcurveto
            return
          </CharString>
          <CharString index="87">
            0 79 callgsubr
            10 0 17 -4 return
          </CharString>
          <CharString index="88">
            rmoveto
            13 -8 26 -3 18 7 47 202 rcurveline
            -24 15 -41 4 -27 -6 rrcurveto
            endchar
          </CharString>
          <CharString index="89">
            -10 -1 82 156 79 148 81 return
          </CharString>
          <CharString index="90">
            hhcurveto
            -15 -19 -11 callgsubr
            return
          </CharString>
          <CharString index="91">
            62 callsubr
            -19 -33 callgsubr
            -15 hvcurveto
            return
          </CharString>
          <CharString index="92">
            25 callgsubr
            -14 1 -15 81 callsubr
            return
          </CharString>
          <CharString index="93">
            -21 -34 callsubr
            return
          </CharString>
          <CharString index="94">
            27 callsubr
            -36 4 callgsubr
            return
          </CharString>
          <CharString index="95">
            -3 -5 callgsubr
            return
          </CharString>
          <CharString index="96">
            rmoveto
            -20 -21 -4 -8 82 callsubr
            -14 3 -23 5 -8 vhcurveto
            -8 13 21 -4 20 hhcurveto
            20 22 4 61 callgsubr
            return
          </CharString>
          <CharString index="97">
            hvcurveto
            238 vlineto
            1 22 24 2 13 hhcurveto
            49 -1 22 -17 23 -50 58 -125 rcurveline
            -34 15 13 -20 36 hhcurveto
            24 26 14 19 13 hvcurveto
            return
          </CharString>
          <CharString index="98">
            -8 17 9 16 23 5 18 rrcurveto
            return
          </CharString>
          <CharString index="99">
            -70 -55 -28 -96 -87 vvcurveto
            return
          </CharString>
          <CharString index="100">
            1 18 callsubr
            return
          </CharString>
          <CharString index="101">
            hhcurveto
            15 16 1 3 return
          </CharString>
          <CharString index="102">
            vhcurveto
            -7 11 return
          </CharString>
          <CharString index="103">
            470 340 rmoveto
            21 callsubr
            -29 -39 -43 vhcurveto
            return
          </CharString>
          <CharString index="104">
            138 -13 81 547 81 return
          </CharString>
          <CharString index="105">
            -15 -12 vvcurveto
            return
          </CharString>
          <CharString index="106">
            -16 vvcurveto
            -17 4 -21 5 -9 vhcurveto
            return
          </CharString>
          <CharString index="107">
            411 rmoveto
            53 -29 32 return
          </CharString>
          <CharString index="108">
            vlineto
            35 callgsubr
            return
          </CharString>
          <CharString index="109">
            -16 hhcurveto
            -15 return
          </CharString>
          <CharString index="110">
            vlineto
            -9 callgsubr
            return
          </CharString>
          <CharString index="111">
            hvcurveto
            2 13 0 return
          </CharString>
          <CharString index="112">
            hlineto
            -6 -6 return
          </CharString>
          <CharString index="113">
            -13 vvcurveto
            -13 return
          </CharString>
          <CharString index="114">
            -13 -13 78 166 68 125 79 return
          </CharString>
          <CharString index="115">
            -51 -24 -36 -41 hvcurveto
            return
          </CharString>
          <CharString index="116">
            1 -11 14 callgsubr
            return
          </CharString>
          <CharString index="117">
            26 callsubr
            -1 27 callgsubr
            rrcurveto
            return
          </CharString>
          <CharString index="118">
            80 149 71 147 72 return
          </CharString>
          <CharString index="119">
            69 -13 76 418 77 return
          </CharString>
          <CharString index="120">
            198 hstemhm
            return
          </CharString>
          <CharString index="121">
            21 5 61 callgsubr
            3 24 6 callgsubr
            -3 23 -5 9 vhcurveto
            7 -13 -21 5 return
          </CharString>
          <CharString index="122">
            vlineto
            4 -14 -17 1 -14 hhcurveto
            -13 -19 -1 -4 return
          </CharString>
          <CharString index="123">
            hhcurveto
            -58 -49 -18 -37 -37 hvcurveto
            -52 return
          </CharString>
          <CharString index="124">
            7 11 hvcurveto
            return
          </CharString>
          <CharString index="125">
            3 16 hvcurveto
            return
          </CharString>
          <CharString index="126">
            -5 -5 rlineto
            return
          </CharString>
          <CharString index="127">
            44 -14 20 -41 vhcurveto
            -39 -23 callgsubr
            return
          </CharString>
          <CharString index="128">
            90 -38 72 -94 -60 -58 return
          </CharString>
          <CharString index="129">
            hlineto
            -3 -14 -1 return
          </CharString>
          <CharString index="130">
            3 12 1 return
          </CharString>
          <CharString index="131">
            100 -4 115 438 -20 return
          </CharString>
          <CharString index="132">
            hvcurveto
            -6 -12 -3 -25 -12 vvcurveto
            return
          </CharString>
          <CharString index="133">
            41 15 19 23 vhcurveto
            return
          </CharString>
          <CharString index="134">
            43 -11 19 -41 vhcurveto
            return
          </CharString>
          <CharString index="135">
            -20 2 callgsubr
            return
          </CharString>
          <CharString index="136">
            -227 -4 691 return
          </CharString>
          <CharString index="137">
            -18 callgsubr
            45 30 callgsubr
            21 566 return
          </CharString>
          <CharString index="138">
            -25 callgsubr
            44 198 55 callgsubr
            return
          </CharString>
          <CharString index="139">
            -3 rrcurveto
            3 7 9 2 8 hhcurveto
            29 return
          </CharString>
          <CharString index="140">
            -7 -7 rlineto
            -671 vlineto
            7 -7 rlineto
            return
          </CharString>
          <CharString index="141">
            5 18 rrcurveto
            -22 20 -6 38 39 vvcurveto
            return
          </CharString>
          <CharString index="142">
            1 3 14 hvcurveto
            return
          </CharString>
          <CharString index="143">
            -12 vvcurveto
            -12 return
          </CharString>
          <CharString index="144">
            46 -19 callgsubr
            45 30 callgsubr
            92 98 return
          </CharString>
          <CharString index="145">
            -15 callsubr
            endchar
          </CharString>
          <CharString index="146">
            vvcurveto
            10 32 -1 9 hhcurveto
            145 hlineto
            9 32 1 10 hhcurveto
            return
          </CharString>
          <CharString index="147">
            -198 -21 641 74 return
          </CharString>
          <CharString index="148">
            41 0 87 511 85 return
          </CharString>
          <CharString index="149">
            -254 422 74 return
          </CharString>
          <CharString index="150">
            -3 -13 -1 return
          </CharString>
          <CharString index="151">
            hlineto
            43 callsubr
            -8 87 callsubr
            -8 14 callgsubr
            return
          </CharString>
          <CharString index="152">
            hvcurveto
            -12 -208 vlineto
            92 5 35 55 66 hhcurveto
            endchar
          </CharString>
          <CharString index="153">
            -3 13 vhcurveto
            return
          </CharString>
          <CharString index="154">
            vlineto
            -3 13 return
          </CharString>
          <CharString index="155">
            23 -5 9 vhcurveto
            8 -13 -22 4 -20 hhcurveto
            endchar
          </CharString>
          <CharString index="156">
            25 216 78 179 75 return
          </CharString>
          <CharString index="157">
            80 277 83 247 80 return
          </CharString>
          <CharString index="158">
            61 callsubr
            15 return
          </CharString>
          <CharString index="159">
            -3 14 21 -1 return
          </CharString>
          <CharString index="160">
            149 -13 81 return
          </CharString>
          <CharString index="161">
            151 123 return
          </CharString>
          <CharString index="162">
            vlineto
            44 -14 20 return
          </CharString>
          <CharString index="163">
            -13 callgsubr
            -15 return
          </CharString>
          <CharString index="164">
            180 hstemhm
            return
          </CharString>
          <CharString index="165">
            53 callsubr
            660 30 callgsubr
            84 100 return
          </CharString>
          <CharString index="166">
            vvcurveto
            -59 45 -34 61 40 26 callsubr
            return
          </CharString>
          <CharString index="167">
            -13 79 411 81 return
          </CharString>
          <CharString index="168">
            -1 16 hhcurveto
            return
          </CharString>
          <CharString index="169">
            vlineto
            3 -15 return
          </CharString>
          <CharString index="170">
            hlineto
            41 11 19 43 hvcurveto
            179 vlineto
            -21 return
          </CharString>
          <CharString index="171">
            hintmask 00000000
            hintmask 10100000
            return
          </CharString>
          <CharString index="172">
            84 -13 87 540 82 return
          </CharString>
          <CharString index="173">
            16 -13 84 407 80 return
          </CharString>
          <CharString index="174">
            5 -9 vhcurveto
            9 -6 20 return
          </CharString>
          <CharString index="175">
            -82 -13 73 371 75 return
          </CharString>
          <CharString index="176">
            1 -13 75 370 74 return
          </CharString>
          <CharString index="177">
            94 114 94 return
          </CharString>
          <CharString index="178">
            16 31 5 hvcurveto
            return
          </CharString>
          <CharString index="179">
            90 callsubr
            18 return
          </CharString>
          <CharString index="180">
            -5 rlineto
            -4 return
          </CharString>
          <CharString index="181">
            505 243 -243 255 hstemhm
            return
          </CharString>
          <CharString index="182">
            80 216 11 -3 -20 hstemhm
            86 98 return
          </CharString>
          <CharString index="183">
            82 354 79 -6 -20 hstemhm
            46 98 return
          </CharString>
          <CharString index="184">
            -1 9 hhcurveto
            175 hlineto
            9 39 1 return
          </CharString>
          <CharString index="185">
            -1 14 hhcurveto
            return
          </CharString>
          <CharString index="186">
            20 -1 16 return
          </CharString>
          <CharString index="187">
            -5 11 vhcurveto
            return
          </CharString>
          <CharString index="188">
            3 -13 vhcurveto
            return
          </CharString>
          <CharString index="189">
            -13 hvcurveto
            -5 -9 -3 -23 -13 vvcurveto
            return
          </CharString>
          <CharString index="190">
            -18 1 -11 hhcurveto
            -10 -20 -1 -2 return
          </CharString>
          <CharString index="191">
            -4 18 -5 10 vhcurveto
            7 -10 -23 return
          </CharString>
          <CharString index="192">
            hintmask 00000000
            hintmask 11101100
            return
          </CharString>
          <CharString index="193">
            -11 79 477 -20 return
          </CharString>
          <CharString index="194">
            6 callsubr
            1 return
          </CharString>
          <CharString index="195">
            -20 rlineto
            -17 7 return
          </CharString>
          <CharString index="196">
            5 -5 rlineto
            -2 return
          </CharString>
          <CharString index="197">
            -1 17 hhcurveto
            return
          </CharString>
          <CharString index="198">
            -1 -21 hhcurveto
            return
          </CharString>
          <CharString index="199">
            rmoveto
            123 return
          </CharString>
        <CharString name=".notdef">
          -333 endchar
        </CharString>
        <CharString name=".null">
          -519 endchar
        </CharString>
        <CharString name="A">
          -18 callgsubr
          hstem
          21 566 vstem
          -105 callgsubr
          endchar
        </CharString>
        <CharString name="AE">
          356 -1 86 83 83 52 84 211 85 hstem
          402 97 vstem
          256 168 rmoveto
          89 hlineto
          7 33 1 17 hhcurveto
          -108 vlineto
          -38 22 -24 35 vhcurveto
          301 hlineto
          35 23 -31 callgsubr
          -263 hlineto
          -26 -20 -1 -2 -19 hvcurveto
          18 1 14 17 vvcurveto
          173 -42 callgsubr
          4 14 1 17 -10 callgsubr
          -1 17 -4 -76 callgsubr
          24 0 16 hhcurveto
          242 -61 callsubr
          -17 -27 -2 -8 -15 hvcurveto
          -333 -666 4 73 callsubr
          13 17 -3 19 hhcurveto
          15 20 35 callsubr
          83 170 rlineto
          17 30 -1 8 hhcurveto
          80 276 rmoveto
          19 40 24 54 18 45 rrcurveto
          5 -333 hlineto
          -17 -33 1 -6 hhcurveto
          -64 hlineto
          -6 -20 -1 -15 hhcurveto
          endchar
        </CharString>
        <CharString name="Aacute">
          30 callsubr
          -380 244 -103 callgsubr
          hintmask 00010100
          11 529 -84 callsubr
        </CharString>
        <CharString name="Acircumflex">
          -18 callgsubr
          47 159 hstemhm
          21 566 -440 312 -103 callgsubr
          hintmask 00010100
          220 487 -83 callgsubr
        </CharString>
        <CharString name="Adieresis">
          -18 callgsubr
          64 92 hstemhm
          21 566 -433 70 callsubr
          -103 callgsubr
          hintmask 00010110
          213 589 -106 callgsubr
        </CharString>
        <CharString name="Agrave">
          30 callsubr
          -415 244 -103 callgsubr
          hintmask 00010100
          20 648 -53 callgsubr
        </CharString>
        <CharString name="Aogonek">
          89 -217 66 146 12 -4 -20 24 -20 181 83 332 100 hstemhm
          419 79 hintmask 00000000
          hintmask 10011110
          21 7 rmoveto
          3 -5 rlineto
          hintmask 11001110
          -61 callgsubr
          16 37 -1 8 hhcurveto
          -24 callgsubr
          hintmask 10101110
          40 -123 6 -21 7 -14 10 -8 rlinecurve
          -40 -32 -33 -46 -49 vvcurveto
          -59 -1 callgsubr
          43 38 36 51 32 hvcurveto
          -226 677 rlineto
          3 -13 -27 -45 callgsubr
          -15 hvcurveto
          10 -239 -87 callgsubr
          endchar
        </CharString>
        <CharString name="Aring">
          89 -5 12 0 -20 181 83 584 56 hstemhm
          186 68 101 68 hintmask 00000000
          hintmask 01111100
          -82 callsubr
          675 rlineto
          38 18 24 38 43 vvcurveto
          61 -49 50 -69 -70 -49 -50 -61 -43 23 -37 38 -19 vhcurveto
          -226 -674 3 -5 rlineto
          hintmask 10111100
          -61 callgsubr
          hintmask 01111100
          -89 callgsubr
          58 530 rmoveto
          31 22 -35 callgsubr
          -22 23 32 vhcurveto
          endchar
        </CharString>
        <CharString name="Atilde">
          -18 callgsubr
          58 81 hstemhm
          21 566 -460 356 -103 callgsubr
          hintmask 00000000
          121 506 -64 callsubr
          hintmask 00010100
          -69 callsubr
        </CharString>
        <CharString name="B">
          85 -4 77 247 78 211 78 hstemhm
          92 99 228 102 -71 103 64 callgsubr
          99 684 rmoveto
          33 callsubr
          -1 74 62 -2 81 hhcurveto
          168 69 87 108 86 -59 69 -69 19 hvcurveto
          hintmask 11111000
          58 22 38 56 63 vvcurveto
          111 -69 70 -148 vhcurveto
          hintmask 11110100
          -66 -67 -2 -1 -72 hvcurveto
          211 -364 rmoveto
          111 29 -73 -51 -51 -21 -72 -112 -39 -43 0 -1 -44 hvcurveto
          248 vlineto
          290 vmoveto
          -1 34 49 0 28 hhcurveto
          hintmask 11111000
          98 19 -55 -50 -48 -21 -58 -98 hvcurveto
          -109 hlineto
          endchar
        </CharString>
        <CharString name="C">
          65 callsubr
          hstem
          51 105 vstem
          -75 callgsubr
          endchar
        </CharString>
        <CharString name="CR">
          -333 endchar
        </CharString>
        <CharString name="Cacute">
          65 callsubr
          33 30 callgsubr
          51 105 67 244 hintmask 11010000
          -75 callgsubr
          hintmask 00101000
          -241 329 -84 callsubr
        </CharString>
        <CharString name="Ccaron">
          65 callsubr
          43 76 hstemhm
          51 105 8 313 hintmask 11010000
          -75 callgsubr
          hintmask 00101000
          -256 439 -92 callsubr
        </CharString>
        <CharString name="Ccedilla">
          84 24 callgsubr
          49 26 85 540 82 hstemhm
          51 105 192 79 hintmask 00000000
          hintmask 10101110
          263 -6 callgsubr
          hintmask 01101110
          -11 -14 -9 -18 -1 -19 rrcurveto
          hintmask 10101110
          31 callgsubr
          hintmask 10111110
          65 callgsubr
          86 9 75 40 48 48 -54 callgsubr
          -41 callgsubr
          -170 63 -165 170 -14 hvcurveto
          hintmask 10101110
          -8 -20 -8 -25 -5 -18 rrcurveto
          endchar
        </CharString>
        <CharString name="D">
          127 -5 81 530 81 81 callgsubr
          297 104 vstem
          -51 callgsubr
          endchar
        </CharString>
        <CharString name="Dcaron">
          127 -5 81 530 81 51 76 hstemhm
          92 100 -42 313 26 104 hintmask 11010100
          -51 callgsubr
          hintmask 00101000
          -295 548 -92 callsubr
        </CharString>
        <CharString name="E">
          46 -19 callgsubr
          hstem
          92 98 vstem
          -105 callsubr
          endchar
        </CharString>
        <CharString name="Eacute">
          37 callsubr
          11 244 -103 callsubr
          hintmask 00010100
          -315 694 -84 callsubr
        </CharString>
        <CharString name="Ecaron">
          46 -19 callgsubr
          55 76 hstemhm
          92 98 -48 313 -103 callsubr
          hintmask 00010100
          -330 804 -92 callsubr
        </CharString>
        <CharString name="Ecircumflex">
          46 -19 callgsubr
          47 159 hstemhm
          92 98 -49 312 -103 callsubr
          hintmask 00010100
          -106 652 -83 callgsubr
        </CharString>
        <CharString name="Edieresis">
          46 -19 callgsubr
          64 92 hstemhm
          92 98 -42 70 callsubr
          -103 callsubr
          hintmask 00010110
          -113 754 -106 callgsubr
        </CharString>
        <CharString name="Egrave">
          37 callsubr
          -24 244 -103 callsubr
          hintmask 00010100
          -306 813 -53 callgsubr
        </CharString>
        <CharString name="Eogonek">
          51 -217 66 150 86 218 84 211 85 hstem
          92 98 116 79 vstem
          -106 callsubr
          229 hlineto
          -42 -31 -30 -43 -49 59 callsubr
          27 callgsubr
          vhcurveto
          -9 -16 -22 -8 -22 60 callgsubr
          39 35 45 59 24 hvcurveto
          1 0 1 1 hhcurveto
          18 7 11 14 4 21 rrcurveto
          2 13 0 17 9 vvcurveto
          endchar
        </CharString>
        <CharString name="Eth">
          143 -5 81 229 83 218 81 hstem
          108 99 298 104 vstem
          609 342 rmoveto
          116 -17 104 -88 11 callgsubr
          -87 hvcurveto
          -6 -7 rlineto
          -289 -78 vlineto
          -3 -14 -1 -13 -16 vvcurveto
          -16 1 -12 14 callgsubr
          78 -299 hlineto
          6 -7 rlineto
          -2 87 49 33 callgsubr
          89 74 16 105 117 vvcurveto
          -245 -37 rmoveto
          3 12 2 13 16 vvcurveto
          16 -2 12 19 callgsubr
          -157 219 hlineto
          46 34 -1 43 hhcurveto
          153 22 -142 -122 -121 -22 -145 -153 hvcurveto
          -43 -34 1 -46 hhcurveto
          228 vlineto
          endchar
        </CharString>
        <CharString name="Euro">
          47 -13 83 145 67 81 67 148 83 hstem
          98 100 vstem
          496 519 rmoveto
          23 13 18 27 6 22 rrcurveto
          51 -62 -77 29 -72 hhcurveto
          -145 -63 -102 -129 -20 hvcurveto
          -77 44 callsubr
          71 hlineto
          -1 -13 0 -13 -13 vvcurveto
          -14 0 -14 1 -14 vhcurveto
          -71 44 callsubr
          78 hlineto
          -129 20 64 -99 143 hhcurveto
          72 76 28 52 63 hvcurveto
          -6 22 -17 26 -24 14 rrcurveto
          -36 -47 -58 -23 -47 hhcurveto
          -77 -45 49 96 -17 hvcurveto
          210 44 callgsubr
          -217 hlineto
          -1 13 0 13 15 vvcurveto
          14 0 13 1 13 vhcurveto
          217 44 callgsubr
          -210 hlineto
          98 17 44 50 78 hhcurveto
          47 58 -23 -36 47 hvcurveto
          endchar
        </CharString>
        <CharString name="Euro.smcp">
          -18 -13 79 112 63 64 63 110 80 -62 -20 hstemhm
          88 94 64 callgsubr
          437 437 rmoveto
          hintmask 11101100
          21 12 18 25 4 22 rrcurveto
          hintmask 11110100
          41 -54 -64 21 -65 hhcurveto
          -128 -56 -84 -106 -19 hvcurveto
          -70 hlineto
          -3 -12 0 -11 -10 vvcurveto
          -10 0 -8 14 callgsubr
          64 hlineto
          -1 -11 0 -11 -11 vvcurveto
          -11 0 -10 1 -10 vhcurveto
          -64 hlineto
          -3 -12 0 -10 -8 vvcurveto
          -11 0 -9 81 callsubr
          71 hlineto
          -106 19 56 -85 127 hhcurveto
          66 62 21 42 55 hvcurveto
          -4 21 -17 24 -22 13 rrcurveto
          -27 -42 -46 -15 -40 hhcurveto
          -65 -38 38 74 -16 hvcurveto
          175 hlineto
          3 13 1 9 11 vvcurveto
          10 -1 8 -3 12 vhcurveto
          -183 31 hlineto
          33 183 vlineto
          23 callsubr
          8 10 vvcurveto
          12 -1 9 -3 12 vhcurveto
          -175 hlineto
          73 16 38 37 65 hhcurveto
          40 46 -14 -27 42 hvcurveto
          endchar
        </CharString>
        <CharString name="F">
          1 302 84 211 86 81 callgsubr
          vstem
          192 hmoveto
          303 vlineto
          -1 16 15 0 14 hhcurveto
          202 hlineto
          3 -12 callgsubr
          -2 18 46 callsubr
          -202 hlineto
          -14 -15 0 -1 -16 hvcurveto
          91 vlineto
          39 -1 42 41 vvcurveto
          -1 28 33 0 38 hhcurveto
          150 hlineto
          38 19 14 32 13 -2 15 -4 12 hvcurveto
          -392 hlineto
          -7 -6 rlineto
          -677 45 callgsubr
          endchar
        </CharString>
        <CharString name="G">
          123 -13 84 198 87 254 86 hstem
          51 104 326 96 vstem
          351 356 rmoveto
          -4 -12 -4 -18 -12 vvcurveto
          -32 15 -13 32 vhcurveto
          92 hlineto
          -1 -19 0 -21 -23 vvcurveto
          -117 vlineto
          -10 -34 -44 -8 -53 hhcurveto
          -129 -66 88 177 202 86 72 102 70 64 -25 -38 49 hvcurveto
          21 14 24 30 5 31 rrcurveto
          46 -59 -88 28 -85 hhcurveto
          -145 -148 -104 -255 -184 74 -166 207 97 88 20 23 60 hvcurveto
          260 vlineto
          43 -19 23 -53 vhcurveto
          endchar
        </CharString>
        <CharString name="H">
          154 310 86 81 callgsubr
          289 100 vstem
          481 hmoveto
          -3 15 19 61 callsubr
          16 18 -7 callsubr
          683 1 callsubr
          -16 hhcurveto
          -16 -19 -11 callgsubr
          -214 vlineto
          -28 1 -19 -27 vvcurveto
          -10 -39 1 -9 hhcurveto
          -175 hlineto
          -9 -39 -1 -10 hhcurveto
          27 1 19 28 vvcurveto
          214 -35 callsubr
          237 vlineto
          28 -1 19 27 vvcurveto
          10 39 77 callsubr
          10 hhcurveto
          -27 -1 -19 -28 vvcurveto
          endchar
        </CharString>
        <CharString name="Hbar">
          164 309 85 101 79 hstem
          97 100 288 100 vstem
          197 hmoveto
          236 vlineto
          28 -1 19 27 vvcurveto
          9 40 77 callsubr
          9 hhcurveto
          -27 -1 -19 -28 vvcurveto
          -236 45 callgsubr
          495 72 vlineto
          3 12 2 11 16 vvcurveto
          17 -2 9 19 callgsubr
          -72 109 hlineto
          35 callgsubr
          -15 hhcurveto
          -16 -19 2 callgsubr
          -109 -288 109 62 callsubr
          -19 1 -17 hhcurveto
          -15 -20 -11 callgsubr
          -109 -72 vlineto
          -3 -14 -1 -11 -15 vvcurveto
          -16 9 callsubr
          72 -495 hlineto
          -3 14 20 -33 callsubr
          232 394 rmoveto
          -175 hlineto
          -9 -40 -1 -9 hhcurveto
          27 1 20 28 vvcurveto
          27 288 -27 vlineto
          -28 1 -20 -27 vvcurveto
          -9 -39 1 -9 hhcurveto
          endchar
        </CharString>
        <CharString name="I">
          29 callsubr
          hstem
          96 100 vstem
          -80 callsubr
          endchar
        </CharString>
        <CharString name="IJ">
          216 -10 84 -78 691 hstemhm
          96 100 359 100 hintmask 01100000
          -80 callsubr
          hintmask 10010000
          241 -576 -62 callsubr
          endchar
        </CharString>
        <CharString name="Iacute">
          29 callsubr
          41 30 callgsubr
          48 244 -196 100 -69 callgsubr
          hintmask 01100000
          -48 96 -84 callsubr
        </CharString>
        <CharString name="Icircumflex">
          29 callsubr
          43 159 hstemhm
          -12 312 -204 100 -69 callgsubr
          hintmask 01100000
          161 54 -83 callgsubr
        </CharString>
        <CharString name="Idieresis">
          29 callsubr
          60 92 hstemhm
          -5 94 7 100 7 94 -69 callgsubr
          hintmask 01101000
          154 156 -106 callgsubr
        </CharString>
        <CharString name="Igrave">
          29 callsubr
          41 30 callgsubr
          13 244 -161 100 -69 callgsubr
          hintmask 01100000
          -39 215 -53 callgsubr
        </CharString>
        <CharString name="Itilde">
          29 callsubr
          54 81 hstemhm
          -32 356 -228 100 -69 callgsubr
          hintmask 00000000
          62 73 -64 callsubr
          hintmask 01100000
          -69 callsubr
        </CharString>
        <CharString name="J">
          -73 -10 84 hstem
          266 100 vstem
          48 107 -62 callsubr
          endchar
        </CharString>
        <CharString name="Jcircumflex">
          -73 -10 84 656 159 hstemhm
          159 312 -205 100 hintmask 10010000
          48 107 -62 callsubr
          hintmask 01100000
          380 630 -83 callgsubr
        </CharString>
        <CharString name="K">
          75 310 85 279 12 81 callgsubr
          vstem
          -71 callsubr
          endchar
        </CharString>
        <CharString name="Kcommaaccent">
          75 -25 callsubr
          364 85 279 12 hstemhm
          92 100 88 93 hintmask 00011100
          -71 callsubr
          hintmask 11100010
          -212 -84 -93 callsubr
        </CharString>
        <CharString name="L">
          -8 -1 87 81 callgsubr
          vstem
          -29 callsubr
          endchar
        </CharString>
        <CharString name="Ldot">
          -8 -1 87 221 92 hstemhm
          92 100 144 108 hintmask 10100000
          -29 callsubr
          hintmask 01010000
          -146 267 -60 callsubr
        </CharString>
        <CharString name="Lslash">
          -2 -1 87 hstem
          98 100 vstem
          198 623 rmoveto
          20 callsubr
          -311 vlineto
          -77 -25 -5 -25 0 -31 7 -21 rlinecurve
          7 -4 68 24 rlineto
          -226 -22 callsubr
          -202 hlineto
          -27 -30 -1 -2 -31 hvcurveto
          235 vlineto
          187 61 6 24 -1 32 -6 21 rlinecurve
          -7 4 -179 -60 rlineto
          endchar
        </CharString>
        <CharString name="M">
          285 1 -20 124 100 371 107 hstem
          76 652 vstem
          76 1 rmoveto
          -4 13 20 -2 17 -6 callsubr
          15 hvcurveto
          24 377 4 52 2 89 2 59 rlinecurve
          6 hlineto
          142 -471 rlineto
          -3 14 20 51 callsubr
          20 -7 callsubr
          141 471 rlineto
          6 hlineto
          1 -59 4 -89 3 -52 25 -377 rcurveline
          -3 14 15 -2 callgsubr
          17 20 2 4 14 hvcurveto
          -53 682 rlineto
          4 -24 -28 0 -15 hhcurveto
          -16 -23 0 -4 -25 hvcurveto
          -99 -322 -10 -31 -26 -100 -4 -25 rlinecurve
          -6 hlineto
          -4 25 -25 100 -10 31 -100 322 rcurveline
          4 -22 -25 0 -16 hhcurveto
          -16 -29 0 -4 -23 hvcurveto
          endchar
        </CharString>
        <CharString name="N">
          7 callgsubr
          hstemhm
          92 93 308 93 86 callgsubr
          -58 callsubr
          hintmask 01110000
          -86 callgsubr
          endchar
        </CharString>
        <CharString name="Nacute">
          7 callgsubr
          41 30 callgsubr
          92 93 59 244 5 -89 callsubr
          hintmask 00101000
          -342 97 -84 callsubr
        </CharString>
        <CharString name="Ncaron">
          7 callgsubr
          51 76 hstemhm
          92 93 0 313 -5 -89 callsubr
          hintmask 00101000
          -357 207 -92 callsubr
        </CharString>
        <CharString name="Ntilde">
          7 callgsubr
          54 81 hstemhm
          92 93 -21 356 -27 -89 callsubr
          hintmask 00000000
          -232 74 -64 callsubr
          hintmask 00101000
          -69 callsubr
        </CharString>
        <CharString name="O">
          -3 callsubr
          hstem
          51 105 344 106 vstem
          -104 callsubr
          endchar
        </CharString>
        <CharString name="OE">
          375 -19 callgsubr
          hstem
          51 104 269 97 vstem
          848 85 rmoveto
          -262 hlineto
          -26 -21 -1 -1 -19 hvcurveto
          17 -60 callgsubr
          4 14 1 17 -10 callgsubr
          -1 17 -4 -76 callgsubr
          24 0 16 hhcurveto
          241 hlineto
          6 -47 callsubr
          -373 hlineto
          5 -38 -45 8 -43 hhcurveto
          -80 8 callsubr
          -78 -68 -29 8 callgsubr
          -110 29 -26 callsubr
          80 hhcurveto
          42 45 7 5 36 hvcurveto
          329 hlineto
          35 23 71 callsubr
          3 13 0 17 9 vvcurveto
          -519 -17 rmoveto
          -143 -31 54 callsubr
          123 31 150 144 30 34 -6 -7 30 hvcurveto
          -522 vlineto
          -7 -30 -34 -5 -31 hhcurveto
          endchar
        </CharString>
        <CharString name="Oacute">
          -3 callsubr
          32 30 callgsubr
          51 105 74 244 26 -93 callgsubr
          hintmask 00101000
          179 437 -84 callsubr
        </CharString>
        <CharString name="Ocircumflex">
          -3 callsubr
          34 159 hstemhm
          51 105 14 312 18 -93 callgsubr
          hintmask 00101000
          388 395 -83 callgsubr
        </CharString>
        <CharString name="Odieresis">
          -3 callsubr
          51 92 hstemhm
          51 105 21 70 callsubr
          21 106 hintmask 11010010
          -104 callsubr
          hintmask 00101100
          381 497 -106 callgsubr
        </CharString>
        <CharString name="Ograve">
          -3 callsubr
          32 30 callgsubr
          51 105 39 244 61 -93 callgsubr
          hintmask 00101000
          188 556 -53 callgsubr
        </CharString>
        <CharString name="Oslash">
          139 -14 -20 21 79 551 79 hstemhm
          51 102 351 103 hintmask 00000000
          hintmask 10111000
          51 342 rmoveto
          -101 24 -107 65 -70 vhcurveto
          -44 -78 rlineto
          hintmask 01111000
          14 -18 29 -15 23 -3 38 66 rcurveline
          -18 34 41 -11 54 hhcurveto
          79 51 24 36 41 hvcurveto
          78 68 29 117 110 vvcurveto
          100 -25 107 -64 69 vhcurveto
          44 80 -14 18 -29 15 -23 3 rlinecurve
          -39 -68 rlineto
          19 -34 -41 11 -53 hhcurveto
          -79 8 callsubr
          hintmask 10111000
          -78 -68 -29 8 callgsubr
          102 hmoveto
          123 33 152 143 35 29 -10 -16 23 vhcurveto
          -227 -436 rlineto
          -28 54 -8 70 63 vvcurveto
          351 hmoveto
          hintmask 01111000
          -123 -32 -153 -143 -36 -29 10 16 -23 vhcurveto
          228 435 rlineto
          hintmask 10111000
          26 -53 9 -70 -62 vvcurveto
          endchar
        </CharString>
        <CharString name="Otilde">
          -3 callsubr
          51 81 hstemhm
          51 105 -4 350 -2 -93 callgsubr
          hintmask 00000000
          288 420 -43 callsubr
          46 20 hvcurveto
          9 19 -7 17 -21 12 -20 1 rlinecurve
          -11 -14 -55 callgsubr
          hintmask 00101000
          -56 26 -38 callsubr
          89 callgsubr
          -9 -19 -55 callsubr
          10 15 hhcurveto
          11 12 -5 -3 9 hvcurveto
          endchar
        </CharString>
        <CharString name="P">
          46 245 80 281 81 81 callgsubr
          232 105 vstem
          529 466 rmoveto
          148 -96 73 -132 -67 -61 -2 -1 -74 vhcurveto
          -7 -7 rlineto
          -677 3 callsubr
          245 109 vlineto
          133 95 76 145 hvcurveto
          -337 141 rmoveto
          -1 34 44 0 29 hhcurveto
          102 23 -77 -63 -62 -23 -79 -102 hvcurveto
          -21 -48 -1 -38 hhcurveto
          endchar
        </CharString>
        <CharString name="Q">
          131 -126 73 40 83 545 81 hstem
          51 104 338 105 vstem
          455 -100 rmoveto
          -16 21 22 -10 30 hhcurveto
          33 33 24 49 3 hvcurveto
          -35 1 -28 10 -64 46 -22 15 rcurveline
          20 8 19 13 19 19 rrcurveto
          72 68 20 111 104 vvcurveto
          106 -25 121 -78 69 vhcurveto
          36 -41 -50 22 -79 hhcurveto
          -79 -51 -22 -36 -41 hvcurveto
          -78 -69 -25 -121 -106 vvcurveto
          -108 25 -120 78 -69 vhcurveto
          -35 41 55 -23 79 hhcurveto
          4 3 0 1 4 hvcurveto
          -185 354 rmoveto
          125 27 148 143 142 26 -148 -125 -124 -26 -148 -142 -143 -27 148 124 vhcurveto
          endchar
        </CharString>
        <CharString name="R">
          50 callsubr
          81 callgsubr
          240 104 vstem
          -100 callsubr
          endchar
        </CharString>
        <CharString name="Racute">
          50 callsubr
          41 30 callgsubr
          92 100 8 244 -12 104 hintmask 11010100
          -100 callsubr
          hintmask 00101000
          8 422 -84 callsubr
        </CharString>
        <CharString name="Rcaron">
          50 callsubr
          51 76 hstemhm
          92 100 -51 313 -22 104 hintmask 11010100
          -100 callsubr
          hintmask 00101000
          -7 532 -92 callsubr
        </CharString>
        <CharString name="Rcommaaccent">
          80 -25 callsubr
          331 83 247 80 hstemhm
          92 100 87 93 60 104 hintmask 00011101
          -100 callsubr
          hintmask 11100010
          171 -415 -93 callsubr
        </CharString>
        <CharString name="S">
          67 callgsubr
          hstem
          60 102 247 104 vstem
          -83 callsubr
          endchar
        </CharString>
        <CharString name="Sacute">
          67 callgsubr
          32 30 callgsubr
          60 102 27 244 -24 104 hintmask 11010100
          -83 callsubr
          hintmask 00101000
          157 717 -84 callsubr
        </CharString>
        <CharString name="Scaron">
          67 callgsubr
          42 76 hstemhm
          60 102 -32 313 -34 104 hintmask 11010100
          -83 callsubr
          hintmask 00101000
          142 827 -92 callsubr
        </CharString>
        <CharString name="T">
          -29 599 84 hstem
          196 100 vstem
          -42 callsubr
          endchar
        </CharString>
        <CharString name="Tcaron">
          -29 599 84 55 76 hstemhm
          88 313 -205 100 hintmask 10010000
          -42 callsubr
          hintmask 01100000
          -64 289 -92 callsubr
        </CharString>
        <CharString name="Thorn">
          49 146 81 274 81 81 callgsubr
          231 104 vstem
          92 hmoveto
          -9 callgsubr
          146 107 vlineto
          133 95 73 145 148 -96 70 -132 -36 -36 -1 -1 -35 hvcurveto
          103 -16 callsubr
          205 -182 rmoveto
          102 24 -74 -63 -61 -24 -76 -102 -19 -47 0 -1 -39 hvcurveto
          276 vlineto
          39 43 -1 23 hhcurveto
          endchar
        </CharString>
        <CharString name="U">
          53 callsubr
          hstem
          84 100 301 99 vstem
          -96 callsubr
          endchar
        </CharString>
        <CharString name="Uacute">
          58 callsubr
          51 244 6 -71 callgsubr
          -349 541 -84 callsubr
        </CharString>
        <CharString name="Ucircumflex">
          53 callsubr
          662 159 hstemhm
          84 100 -9 312 -2 -71 callgsubr
          -140 499 -83 callgsubr
        </CharString>
        <CharString name="Udieresis">
          53 callsubr
          679 92 hstemhm
          84 100 -2 70 callsubr
          1 99 hintmask 10100100
          -96 callsubr
          hintmask 01011000
          -147 601 -106 callgsubr
        </CharString>
        <CharString name="Ugrave">
          58 callsubr
          16 244 41 -71 callgsubr
          -340 660 -53 callgsubr
        </CharString>
        <CharString name="Uring">
          53 callsubr
          600 87 callgsubr
          84 100 31 68 100 68 34 99 hintmask 10010010
          -96 callsubr
          hintmask 01101100
          -369 542 -21 callgsubr
        </CharString>
        <CharString name="V">
          52 -5 96 hstemhm
          22 531 hintmask 00000000
          hintmask 11000000
          298 91 rmoveto
          -5 -2 1 8 -2 hvcurveto
          -13 52 -17 71 -14 48 -107 370 rcurveline
          36 -10 -18 13 -27 hhcurveto
          -21 -21 -7 -9 -19 hvcurveto
          186 -630 rlineto
          -43 12 24 -6 33 hhcurveto
          26 26 2 2 24 hvcurveto
          200 675 -4 7 rlineto
          4 -13 -18 2 -15 hhcurveto
          -16 -14 54 callgsubr
          endchar
        </CharString>
        <CharString name="W">
          325 -5 88 485 101 hstem
          32 783 vstem
          158 46 rmoveto
          -44 9 27 -7 31 hhcurveto
          26 36 2 3 24 hvcurveto
          64 319 13 66 17 94 15 89 rlinecurve
          7 hlineto
          14 -89 16 -96 12 -64 49 -274 rcurveline
          -43 8 24 -7 30 hhcurveto
          26 40 2 4 24 hvcurveto
          145 673 -5 7 rlineto
          4 -15 -18 2 -15 hhcurveto
          -15 -17 54 callgsubr
          -80 -395 -10 -51 -17 -93 -9 -61 rlinecurve
          -5 -2 0 11 -2 hvcurveto
          -103 575 rlineto
          3 -16 -29 1 -19 hhcurveto
          -18 -28 -1 -3 -19 hvcurveto
          -113 -586 rlineto
          -5 -2 0 11 -1 hvcurveto
          -33 193 -65 349 rlineto
          40 -7 -14 14 -32 hhcurveto
          -18 -19 -3 -9 -19 hvcurveto
          endchar
        </CharString>
        <CharString name="X">
          65 -7 697 hstem
          19 546 vstem
          447 683 rmoveto
          -146 -241 -128 208 rlineto
          30 -19 -19 10 -25 hhcurveto
          -20 -25 -7 -15 -21 hvcurveto
          191 -310 -216 -347 3 -7 rlineto
          -5 12 21 -4 20 hhcurveto
          15 19 2 3 9 hvcurveto
          167 276 150 -243 rlineto
          -30 19 20 -10 24 hhcurveto
          21 25 7 15 21 hvcurveto
          -214 346 192 311 -3 7 rlineto
          5 -11 -21 4 -20 hhcurveto
          -15 -18 -2 -3 -8 hvcurveto
          endchar
        </CharString>
        <CharString name="Y">
          -21 -4 694 hstem
          200 100 vstem
          301 -77 callgsubr
          endchar
        </CharString>
        <CharString name="Yacute">
          -24 -4 694 38 30 callgsubr
          153 244 -199 100 hintmask 10010000
          299 -77 callgsubr
          hintmask 01100000
          -239 96 -84 callsubr
        </CharString>
        <CharString name="Ydieresis">
          -24 -4 694 57 92 hstemhm
          100 94 4 100 10 94 hintmask 10010000
          299 -77 callgsubr
          hintmask 01101000
          -37 156 -106 callgsubr
        </CharString>
        <CharString name="Z">
          41 callsubr
          hstem
          49 462 vstem
          -97 callgsubr
          endchar
        </CharString>
        <CharString name="Zacute">
          41 callsubr
          45 30 callgsubr
          49 462 -326 244 -88 callsubr
          -134 283 -84 callsubr
        </CharString>
        <CharString name="Zcaron">
          41 callsubr
          55 76 hstemhm
          49 462 -385 313 -88 callsubr
          -149 393 -92 callsubr
        </CharString>
        <CharString name="Zdotaccent">
          41 callsubr
          72 86 hstemhm
          49 462 -289 114 -88 callsubr
          -97 302 -95 callgsubr
        </CharString>
        <CharString name="a">
          7 callsubr
          hstem
          45 97 193 95 vstem
          -98 callgsubr
          endchar
        </CharString>
        <CharString name="a.smcp">
          -25 callgsubr
          hstem
          14 512 vstem
          -107 callsubr
          endchar
        </CharString>
        <CharString name="aacute">
          7 callsubr
          34 13 callsubr
          45 97 29 212 -48 95 hintmask 11101010
          -98 callgsubr
          hintmask 00010100
          -41 512 -98 callsubr
        </CharString>
        <CharString name="aacute.smcp">
          31 callsubr
          -327 212 -102 callgsubr
          hintmask 00010100
          21 425 -98 callsubr
        </CharString>
        <CharString name="acircumflex">
          -13 45 0 97 195 endchar
        </CharString>
        <CharString name="acircumflex.smcp">
          -25 callgsubr
          47 179 55 callgsubr
          -398 287 -102 callgsubr
          hintmask 00010100
          189 394 -90 callgsubr
        </CharString>
        <CharString name="acute">
          537 198 hstem
          126 212 vstem
          126 577 -98 callsubr
        </CharString>
        <CharString name="acute.cap">
          728 170 hstem
          101 244 vstem
          101 779 -84 callsubr
        </CharString>
        <CharString name="adieresis">
          7 callsubr
          70 76 hstemhm
          45 97 -44 73 callgsubr
          -48 95 hintmask 11101001
          -98 callgsubr
          hintmask 00010110
          70 546 -107 callgsubr
        </CharString>
        <CharString name="adieresis.smcp">
          -25 callgsubr
          80 76 55 callgsubr
          -400 73 callgsubr
          -102 callgsubr
          hintmask 00010110
          132 459 -107 callgsubr
        </CharString>
        <CharString name="ae">
          266 -13 80 149 71 -56 68 125 79 -69 72 hstemhm
          45 97 193 97 208 95 hintmask 00000000
          hintmask 11001111
          728 -34 callgsubr
          -62 -46 -27 -39 -33 vhcurveto
          hintmask 10110111
          41 -26 -45 22 -61 hhcurveto
          -67 -80 -22 -24 -55 hvcurveto
          -50 callgsubr
          -42 vlineto
          5 -33 -34 3 -32 hhcurveto
          -110 -81 -51 -113 -73 48 -75 99 77 64 42 44 39 hvcurveto
          -58 34 56 -28 74 hhcurveto
          69 69 23 33 47 hvcurveto
          -3 20 -12 28 -16 16 rrcurveto
          -23 -43 -46 -17 -51 hhcurveto
          hintmask 11001111
          -86 -28 62 87 -4 hvcurveto
          -220 -151 rmoveto
          -46 -24 34 42 hvcurveto
          hintmask 10101111
          57 36 33 63 29 34 -3 -4 30 vhcurveto
          2 -32 4 -28 6 -25 rrcurveto
          hintmask 11001111
          -51 -38 -53 -23 -43 hhcurveto
          326 369 rmoveto
          74 28 -62 -73 45 callsubr
        </CharString>
        <CharString name="ae.smcp">
          261 -1 82 45 78 33 79 148 81 hstem
          359 94 vstem
          228 126 rmoveto
          83 hlineto
          7 26 82 callgsubr
          -69 vlineto
          -36 21 -23 35 vhcurveto
          258 -32 callsubr
          14 9 vvcurveto
          -225 hlineto
          -26 -16 -36 callsubr
          vlineto
          -1 21 21 58 callgsubr
          162 hlineto
          5 13 0 16 11 vvcurveto
          10 0 16 -5 13 vhcurveto
          -162 hlineto
          -13 -21 -47 callgsubr
          13 hhcurveto
          207 hlineto
          6 15 2 16 -10 callgsubr
          0 14 19 callgsubr
          -355 hlineto
          -17 -28 -2 -7 -15 hvcurveto
          -294 -528 3 -6 rlineto
          -5 13 16 -2 16 hhcurveto
          16 15 35 callsubr
          70 128 rlineto
          11 35 -1 8 hhcurveto
          47 186 rmoveto
          22 42 35 69 22 45 rrcurveto
          5 -265 hlineto
          -15 -27 1 -7 hhcurveto
          -55 hlineto
          -7 -20 -1 -13 hhcurveto
          endchar
        </CharString>
        <CharString name="agrave">
          -13 48 0 97 193 endchar
        </CharString>
        <CharString name="agrave.smcp">
          31 callsubr
          -385 212 -102 callgsubr
          hintmask 00010100
          33 583 -66 callgsubr
        </CharString>
        <CharString name="ampersand">
          99 -13 80 253 84 211 81 hstemhm
          51 104 -75 104 215 97 64 callgsubr
          310 404 rmoveto
          hintmask 11101100
          -88 -38 44 64 60 40 43 72 54 48 -12 -13 44 hvcurveto
          17 18 10 33 -1 26 rrcurveto
          16 -44 -69 13 -67 hhcurveto
          -132 -76 -80 -98 -71 44 -60 59 -21 hvcurveto
          hintmask 11110100
          -70 -22 -62 -72 -92 vvcurveto
          -110 66 -83 126 58 58 21 32 44 vhcurveto
          8 -41 rlineto
          -2 11 16 -2 18 hhcurveto
          19 15 2 3 12 hvcurveto
          -2 37 -4 75 38 vvcurveto
          108 vlineto
          16 -1 23 23 vvcurveto
          32 hlineto
          42 31 12 40 17 -4 19 -9 11 hvcurveto
          -10 -22 -36 -5 -36 hhcurveto
          -94 -147 rmoveto
          -142 vlineto
          -25 -29 -51 -23 -55 hhcurveto
          -66 -43 43 74 66 40 70 105 hvcurveto
          100 hlineto
          -1 -23 0 -24 -16 vvcurveto
          endchar
        </CharString>
        <CharString name="ampersand.smcp">
          35 -13 76 185 81 151 78 hstemhm
          46 103 -76 103 179 96 64 callgsubr
          284 329 rmoveto
          hintmask 11101100
          -75 -33 29 48 43 33 31 62 46 43 -10 -12 40 hvcurveto
          17 19 10 31 -2 25 rrcurveto
          14 -41 -63 11 -58 hhcurveto
          -122 -68 -63 -82 -58 38 -48 53 -16 hvcurveto
          hintmask 11110100
          -63 -17 -55 -57 -74 vvcurveto
          -88 58 -68 112 55 51 17 26 38 vhcurveto
          6 -35 rlineto
          -2 11 16 -2 16 hhcurveto
          18 18 2 4 12 hvcurveto
          -1 25 -5 56 29 vvcurveto
          86 vlineto
          18 0 18 -1 19 vhcurveto
          22 hlineto
          41 27 12 38 16 -5 18 -8 11 hvcurveto
          -10 -19 -30 -4 -31 hhcurveto
          -92 -134 rmoveto
          -96 vlineto
          -19 -25 -44 -17 -45 hhcurveto
          -56 -36 30 56 52 36 47 89 hvcurveto
          82 hlineto
          -1 -18 0 -18 -17 vvcurveto
          endchar
        </CharString>
        <CharString name="aogonek">
          17 -217 66 138 78 166 68 125 79 hstemhm
          45 97 135 79 -21 95 hintmask 00000000
          hintmask 11111010
          465 -134 rmoveto
          hintmask 11111100
          -9 -16 -22 -8 -22 60 callgsubr
          37 28 29 35 29 hvcurveto
          hintmask 11111010
          22 19 14 17 7 19 rrcurveto
          -23 20 -9 27 -84 callgsubr
          hvcurveto
          hintmask 11111100
          66 51 35 36 36 hvcurveto
          6 -15 9 -13 11 -10 rrcurveto
          -50 -35 -44 -51 -58 59 callsubr
          hintmask 11111010
          27 callgsubr
          vhcurveto
          -253 199 -53 callsubr
          endchar
        </CharString>
        <CharString name="aogonek.smcp">
          21 -217 66 154 -20 24 -20 137 81 257 83 hstemhm
          358 79 hintmask 00000000
          hintmask 10111100
          14 7 rmoveto
          -78 callgsubr
          -24 callsubr
          hintmask 11011100
          31 -86 6 -18 7 -11 8 -7 rlinecurve
          -40 -32 -35 -46 -49 vvcurveto
          -59 45 -34 62 40 10 callsubr
          -9 -15 -22 -8 -22 hhcurveto
          -29 -21 16 30 42 38 37 51 30 -67 callgsubr
          9 -216 -86 callsubr
          endchar
        </CharString>
        <CharString name="aring">
          7 callsubr
          35 87 callgsubr
          45 97 -16 68 100 68 -27 95 hintmask 1110010010000000
          -98 callgsubr
          hintmask 0001101100000000
          -86 585 -67 callsubr
        </CharString>
        <CharString name="aring.smcp">
          -25 callgsubr
          45 87 callgsubr
          14 512 -372 68 100 68 hintmask 11100100
          -107 callsubr
          hintmask 00011011
          -24 498 -67 callsubr
        </CharString>
        <CharString name="asciicircum">
          11 570 78 -78 82 hstemhm
          46 438 64 callsubr
          317 648 rmoveto
          hintmask 01100000
          -25 6 -55 0 -24 -6 -167 -342 rcurveline
          21 -6 50 -1 25 7 rrcurveto
          hintmask 10100000
          86 183 11 23 14 36 9 22 rlinecurve
          6 hlineto
          9 -22 14 -36 11 -23 86 -183 rcurveline
          25 -7 50 1 21 6 rrcurveto
          endchar
        </CharString>
        <CharString name="asciitilde">
          61 213 92 -24 91 hstemhm
          41 499 hintmask 00000000
          hintmask 01100000
          272 352 rmoveto
          13 -27 -30 7 -27 hhcurveto
          -59 -46 -30 -55 -30 hvcurveto
          -12 -23 9 -21 27 -15 21 -1 rlinecurve
          18 21 rlineto
          21 17 20 12 24 hhcurveto
          17 17 -4 -8 18 hvcurveto
          hintmask 10100000
          79 -35 rlineto
          -13 28 29 -8 27 hhcurveto
          59 46 31 55 30 hvcurveto
          13 22 -9 22 -28 14 -21 2 rlinecurve
          -18 -21 rlineto
          -21 -17 -20 -12 -24 hhcurveto
          -17 -17 4 8 -18 hvcurveto
          endchar
        </CharString>
        <CharString name="asterisk">
          -17 731 7 hstem
          209 85 vstem
          46 551 rmoveto
          52 -17 35 -13 42 -3 36 -2 rlinecurve
          -28 -24 -31 -28 -23 -30 -32 -43 rcurveline
          13 -21 35 -25 22 -5 31 44 rcurveline
          23 31 16 38 14 34 14 -33 16 -40 23 -30 31 -44 rcurveline
          24 5 34 26 11 19 -32 44 rcurveline
          -22 30 -31 28 -29 24 36 3 43 3 36 12 52 16 rcurveline
          2 24 -15 42 -14 15 -52 -16 rcurveline
          -36 -13 -36 -20 -31 -20 8 36 10 40 1 38 rrcurveto
          55 vlineto
          -21 9 -44 0 -21 -9 1 -55 rcurveline
          -38 9 -41 8 -35 vhcurveto
          -31 19 -36 22 -35 12 -51 17 rcurveline
          -16 -18 -14 -41 3 -22 rrcurveto
          endchar
        </CharString>
        <CharString name="at">
          426 -187 76 117 77 -73 74 325 72 123 72 hstemhm
          52 97 134 95 188 92 148 96 hintmask 0000000000000000
          hintmask 1011111110000000
          659 412 rmoveto
          38 -40 -63 31 -70 hhcurveto
          -131 -72 -115 -140 hvcurveto
          hintmask 1101111110000000
          -134 60 -86 99 53 52 29 38 35 vhcurveto
          hintmask 1011111110000000
          -39 21 41 -24 56 hhcurveto
          102 100 96 183 236 -170 151 -243 -256 -181 -192 -258 -271 165 -142 228 80 84 17 27 72 hvcurveto
          24 -11 30 -16 15 vhcurveto
          -25 -61 -69 -12 -74 hhcurveto
          -179 -122 118 219 215 134 163 206 192 125 -124 -188 -154 -52 -54 -51 -30 -15 20 52 hvcurveto
          hintmask 1101111110000000
          -196 -73 rmoveto
          -60 -24 59 87 98 35 82 73 33 30 -14 -17 17 hvcurveto
          -232 vlineto
          -35 -26 -42 -28 -36 hhcurveto
          endchar
        </CharString>
        <CharString name="atilde">
          -13 45 0 97 196 endchar
        </CharString>
        <CharString name="atilde.smcp">
          -25 callgsubr
          63 82 55 callgsubr
          -429 350 -102 callgsubr
          hintmask 00000000
          106 419 -91 callgsubr
          hintmask 00010100
          -92 callgsubr
        </CharString>
        <CharString name="b">
          8 -8 73 355 81 hstem
          80 95 208 99 vstem
          482 253 rmoveto
          145 -59 103 -114 -56 -46 -25 -28 -32 vhcurveto
          225 vlineto
          43 -11 19 -42 vhcurveto
          -35 4 callgsubr
          -704 vlineto
          -21 56 61 -12 64 hhcurveto
          118 103 84 177 hvcurveto
          -193 167 rmoveto
          52 42 -49 -119 -125 -52 -62 -70 -33 -27 4 9 -26 hvcurveto
          282 vlineto
          36 29 43 24 42 hhcurveto
          endchar
        </CharString>
        <CharString name="b.smcp">
          27 -3 74 179 74 151 73 hstemhm
          86 96 191 98 -71 101 64 callgsubr
          91 545 rmoveto
          19 callsubr
          -535 vlineto
          89 callsubr
          69 52 -1 73 hhcurveto
          148 68 61 96 67 -51 55 -61 17 hvcurveto
          hintmask 11111000
          51 17 31 45 50 vvcurveto
          93 -65 50 -133 vhcurveto
          hintmask 11110100
          -59 -64 -2 -1 -59 hvcurveto
          188 -295 rmoveto
          94 27 -52 -39 -38 -19 -50 -93 hvcurveto
          -36 -32 -1 -38 hhcurveto
          180 vlineto
          226 vmoveto
          -1 28 38 0 24 hhcurveto
          hintmask 11111000
          82 19 -38 -37 -36 -20 -40 -83 hvcurveto
          -88 hlineto
          endchar
        </CharString>
        <CharString name="backslash">
          -100 -110 870 hstem
          11 400 vstem
          327 -110 rmoveto
          27 3 33 11 24 18 -316 838 rcurveline
          -28 -1 -32 -11 -24 -19 rrcurveto
          endchar
        </CharString>
        <CharString name="bar">
          -265 -145 924 hstem
          81 91 vstem
          81 -141 rmoveto
          -3 14 20 callgsubr
          915 15 callsubr
          -14 hvcurveto
          endchar
        </CharString>
        <CharString name="braceleft">
          -179 -167 984 hstemhm
          38 102 -16 98 64 callsubr
          42 357 rmoveto
          hintmask 11000000
          -6 -15 0 -34 6 -15 rrcurveto
          hintmask 10100000
          46 -15 36 -44 -60 vvcurveto
          -171 vlineto
          -95 59 -53 81 -14 vhcurveto
          49 -8 13 15 9 33 -5 19 rlinecurve
          -48 16 rlineto
          -38 11 -22 30 47 vvcurveto
          168 vlineto
          63 -32 62 -50 24 vhcurveto
          8 vlineto
          50 24 32 62 63 vvcurveto
          168 vlineto
          46 22 30 38 12 vhcurveto
          48 15 5 20 -9 33 -13 15 rlinecurve
          -49 -8 rlineto
          -81 -14 -59 -53 -95 vvcurveto
          -171 vlineto
          -60 -36 -44 -46 -15 vhcurveto
          endchar
        </CharString>
        <CharString name="braceright">
          -179 -167 984 hstem
          118 98 vstem
          298 357 rmoveto
          -46 15 -36 44 60 vvcurveto
          171 vlineto
          95 -59 53 -80 14 vhcurveto
          -50 8 -13 -15 -9 -33 5 -20 rlinecurve
          48 -15 rlineto
          38 -12 22 -30 -46 vvcurveto
          -168 vlineto
          -63 32 -62 50 -24 vhcurveto
          -8 vlineto
          -50 -24 -32 -62 -63 vvcurveto
          -168 vlineto
          -47 -22 -30 -38 -11 vhcurveto
          -48 -16 -5 -19 9 -33 13 -15 rlinecurve
          50 8 rlineto
          80 14 59 53 95 vvcurveto
          171 vlineto
          60 36 44 46 15 vhcurveto
          6 15 0 34 -6 15 rrcurveto
          endchar
        </CharString>
        <CharString name="bracketleft">
          76 callgsubr
          99 98 vstem
          303 -140 rmoveto
          3 9 1 11 9 vvcurveto
          14 -5 18 -3 10 vhcurveto
          -102 2 rlineto
          800 vlineto
          102 3 rlineto
          3 9 5 18 14 vvcurveto
          9 -1 12 -3 8 vhcurveto
          -197 8 -7 -7 rlineto
          -948 vlineto
          7 -7 rlineto
          endchar
        </CharString>
        <CharString name="bracketright">
          76 callgsubr
          141 97 vstem
          231 -148 rmoveto
          7 7 rlineto
          948 vlineto
          -7 7 -197 -8 rlineto
          -3 -8 0 -12 -9 vvcurveto
          -14 4 -18 4 -9 vhcurveto
          102 -3 rlineto
          -800 vlineto
          -102 -2 rlineto
          -4 -10 -4 -18 -14 vvcurveto
          -9 0 -11 3 -9 vhcurveto
          endchar
        </CharString>
        <CharString name="brokenbar">
          -271 -145 924 hstem
          79 90 vstem
          79 -141 rmoveto
          -3 callgsubr
          141 vmoveto
          -3 callgsubr
          endchar
        </CharString>
        <CharString name="bullet">
          -74 186 171 hstem
          112 208 vstem
          112 271 rmoveto
          -20 5 -44 10 -21 vhcurveto
          -12 21 41 -9 34 hhcurveto
          32 47 9 12 18 hvcurveto
          10 21 5 44 20 vvcurveto
          21 -5 44 -10 21 vhcurveto
          12 -19 -46 9 -32 hhcurveto
          -34 -41 -9 -12 -21 hvcurveto
          -10 -21 -5 -44 -21 vvcurveto
          endchar
        </CharString>
        <CharString name="c">
          -48 -13 80 364 75 hstem
          46 100 197 90 vstem
          -44 callgsubr
          endchar
        </CharString>
        <CharString name="c.smcp">
          66 callsubr
          hstem
          41 103 vstem
          -73 callsubr
          endchar
        </CharString>
        <CharString name="cacute">
          -48 53 0 99 194 endchar
        </CharString>
        <CharString name="cacute.smcp">
          66 callsubr
          43 callgsubr
          41 103 72 212 hintmask 11010000
          -73 callsubr
          hintmask 00101000
          -192 294 -98 callsubr
        </CharString>
        <CharString name="caron">
          550 180 hstem
          58 287 vstem
          105 724 -99 callgsubr
        </CharString>
        <CharString name="caron.alt">
          -100 558 8 198 16 hstem
          202 104 vstem
          202 566 -19 callsubr
        </CharString>
        <CharString name="caron.cap">
          738 76 hstem
          42 313 vstem
          86 889 -92 callsubr
        </CharString>
        <CharString name="ccaron">
          -48 -13 80 364 75 44 57 callsubr
          46 100 -36 287 -54 90 hintmask 11010100
          -44 callgsubr
          hintmask 00101000
          -186 418 -99 callgsubr
        </CharString>
        <CharString name="ccaron.smcp">
          66 callsubr
          44 57 callsubr
          41 103 3 287 hintmask 11010000
          -73 callsubr
          hintmask 00101000
          -214 441 -99 callgsubr
        </CharString>
        <CharString name="ccedilla">
          -48 24 callgsubr
          153 364 75 hstemhm
          46 100 134 80 -17 90 hintmask 00000000
          hintmask 10111100
          196 -74 rmoveto
          2 -7 7 -7 8 32 callsubr
          14 -18 -22 -21 -13 -19 -32 -18 -20 6 8 -13 hvcurveto
          hintmask 01111100
          51 callgsubr
          hintmask 10111100
          31 callgsubr
          65 callgsubr
          58 7 51 26 39 39 -26 callgsubr
          hvcurveto
          hintmask 10111010
          75 19 -62 -63 -2 hvcurveto
          -3 13 12 -2 callgsubr
          36 14 22 33 65 -57 84 -123 -105 -102 -78 -185 -125 50 -113 121 -16 hvcurveto
          hintmask 10111100
          -8 -19 -9 -25 -4 -19 rrcurveto
          endchar
        </CharString>
        <CharString name="ccedilla.smcp">
          16 24 callgsubr
          49 25 83 407 80 hstemhm
          41 103 172 79 hintmask 00000000
          hintmask 10111110
          231 -6 callgsubr
          hintmask 01011100
          51 callgsubr
          hintmask 10111110
          -10 16 34 callgsubr
          -38 33 -54 4 hvcurveto
          hintmask 10011110
          65 callgsubr
          75 8 63 32 43 39 -51 callsubr
          -39 callsubr
          -135 56 -136 155 -12 hvcurveto
          hintmask 10111110
          -8 -19 -8 -25 -5 -18 rrcurveto
          endchar
        </CharString>
        <CharString name="cedilla">
          24 callgsubr
          49 -49 86 hstemhm
          231 80 hintmask 00000000
          hintmask 10011000
          146 -74 rmoveto
          3 -7 7 -7 8 -3 rrcurveto
          3 7 8 2 8 hhcurveto
          30 14 -18 -22 -21 -14 -19 -32 -18 -19 6 8 -13 hvcurveto
          hintmask 01011000
          51 callgsubr
          hintmask 10101000
          -10 16 31 -9 31 hhcurveto
          67 51 40 57 51 -39 33 -54 4 hvcurveto
          hintmask 10011000
          4 11 9 16 5 10 rrcurveto
          -64 hlineto
          -9 -20 -11 -32 -6 -22 rrcurveto
          endchar
        </CharString>
        <CharString name="cent">
          -50 -31 178 363 171 hstem
          44 102 62 79 53 89 vstem
          208 -31 rmoveto
          -2 9 83 callgsubr
          11 hvcurveto
          100 vlineto
          55 9 50 28 34 39 -7 20 -20 24 -17 11 rrcurveto
          -29 -34 -41 -24 -46 hhcurveto
          -72 -43 54 122 124 37 63 65 75 20 -66 -58 -3 hvcurveto
          -3 12 14 -1 12 hhcurveto
          39 12 22 36 55 -43 73 -96 15 hvcurveto
          98 vlineto
          2 -11 83 callsubr
          -9 hvcurveto
          -99 vlineto
          -90 -18 -77 -81 -160 vvcurveto
          -114 41 -120 123 -20 vhcurveto
          endchar
        </CharString>
        <CharString name="cent.smcp">
          -97 -29 153 301 151 hstemhm
          40 96 47 76 39 88 hintmask 00000000
          hintmask 11111000
          183 -29 rmoveto
          -2 10 19 -1 10 hhcurveto
          10 17 0 3 10 hvcurveto
          78 vlineto
          48 8 45 21 31 32 -6 20 -19 23 -16 10 rrcurveto
          -21 -31 -36 -18 -40 hhcurveto
          -63 -36 49 97 103 32 52 54 62 16 -48 -56 -2 hvcurveto
          -3 11 16 -2 10 hhcurveto
          38 13 21 35 55 -41 58 -84 12 hvcurveto
          79 vlineto
          3 -10 -17 1 -9 hhcurveto
          -10 -19 -1 -3 -10 hvcurveto
          -80 vlineto
          -79 -17 -67 -71 -137 vvcurveto
          -95 35 -105 108 -21 vhcurveto
          endchar
        </CharString>
        <CharString name="circumflex">
          540 179 hstem
          55 287 vstem
          294 546 -90 callgsubr
        </CharString>
        <CharString name="circumflex.cap">
          730 159 hstem
          41 312 vstem
          310 737 -83 callgsubr
        </CharString>
        <CharString name="colon">
          -254 4 98 234 98 hstemhm
          65 127 hintmask 10100000
          65 53 rmoveto
          -75 callsubr
          hintmask 01100000
          332 vmoveto
          -75 callsubr
          endchar
        </CharString>
        <CharString name="comma">
          -253 -159 273 hstem
          77 127 vstem
          194 -37 callgsubr
          endchar
        </CharString>
        <CharString name="commaaccent">
          -37 callsubr
        </CharString>
        <CharString name="commaaccent.cap">
          -37 callsubr
        </CharString>
        <CharString name="copyright">
          285 -19 70 92 66 268 64 91 70 hstem
          41 83 104 86 366 83 vstem
          41 341 rmoveto
          -204 157 -156 204 203 158 156 204 204 -158 157 -203 -204 -157 -157 -204 vhcurveto
          83 hmoveto
          160 117 131 161 160 118 -131 -160 -160 -118 -130 -160 -161 -117 130 160 vhcurveto
          352 41 rmoveto
          -3 9 12 -2 13 hhcurveto
          31 12 19 26 52 -49 67 -99 -87 -90 -61 -139 -113 59 -85 113 55 60 26 34 34 hvcurveto
          -5 17 -15 22 -16 8 rrcurveto
          -23 -28 -39 -18 -34 hhcurveto
          -61 -37 47 85 89 33 47 55 58 19 -50 -45 -3 hvcurveto
          endchar
        </CharString>
        <CharString name="currency">
          54 121 74 280 74 hstem
          69 98 238 98 vstem
          69 334 rmoveto
          -46 13 -41 22 -34 vhcurveto
          -71 -77 13 -22 20 -20 21 -12 rlinecurve
          78 72 rlineto
          -21 34 41 -12 46 hhcurveto
          46 41 12 21 34 hvcurveto
          79 -72 21 13 21 20 11 20 rlinecurve
          -72 78 rlineto
          23 34 13 41 46 vvcurveto
          46 -13 42 -23 34 vhcurveto
          72 79 -12 21 -21 21 -20 11 rlinecurve
          -79 -73 rlineto
          22 -34 -41 12 -46 hhcurveto
          -46 -42 -13 -21 -34 hvcurveto
          -77 72 -21 -13 -22 -20 -11 -21 rlinecurve
          71 -77 rlineto
          -23 -34 -12 -42 -46 vvcurveto
          98 hmoveto
          76 44 65 75 76 43 -65 -76 -75 -43 -64 -76 -75 -44 65 74 vhcurveto
          endchar
        </CharString>
        <CharString name="currency.smcp">
          -55 90 70 215 70 hstem
          50 94 177 93 vstem
          50 267 rmoveto
          -37 9 -33 18 -28 vhcurveto
          -58 -63 13 -21 19 -20 21 -11 rlinecurve
          65 59 rlineto
          -15 27 32 -8 36 hhcurveto
          35 33 8 15 27 hvcurveto
          65 -60 21 13 21 20 11 20 rlinecurve
          -59 63 rlineto
          18 27 10 34 37 vvcurveto
          36 -10 33 -17 28 vhcurveto
          59 65 -13 20 -21 21 -19 11 rlinecurve
          -66 -60 rlineto
          15 -27 -33 9 -35 hhcurveto
          -36 -33 -9 -15 -27 hvcurveto
          -64 59 -21 -12 -22 -20 -10 -20 rlinecurve
          58 -63 rlineto
          -18 -28 -9 -33 -37 vvcurveto
          94 hmoveto
          59 29 49 59 57 32 -49 -59 -59 -32 -48 -57 -59 -29 50 57 vhcurveto
          endchar
        </CharString>
        <CharString name="d">
          10 -13 81 355 78 hstem
          46 98 208 95 vstem
          -57 callsubr
          endchar
        </CharString>
        <CharString name="d.smcp">
          62 -3 77 396 78 93 callgsubr
          251 102 vstem
          -48 callsubr
          endchar
        </CharString>
        <CharString name="dcaron">
          69 -13 81 355 78 56 8 198 16 hstemhm
          46 98 208 95 62 104 hintmask 11001100
          -57 callsubr
          hintmask 00110010
          271 497 -19 callsubr
        </CharString>
        <CharString name="dcaron.smcp">
          62 -3 77 396 78 54 57 callsubr
          86 98 -49 287 13 102 hintmask 11010100
          -48 callsubr
          hintmask 00101000
          -253 505 -99 callgsubr
        </CharString>
        <CharString name="degree">
          -195 381 67 156 67 hstem
          18 75 137 76 vstem
          18 526 rmoveto
          -83 62 -62 82 82 62 62 83 83 -62 62 -82 -82 -62 -62 -83 vhcurveto
          75 hmoveto
          45 27 33 42 41 27 -33 -45 -45 -27 -33 -41 -42 -27 33 45 vhcurveto
          endchar
        </CharString>
        <CharString name="dieresis">
          573 76 hstem
          53 73 callgsubr
          vstem
          237 611 -107 callgsubr
        </CharString>
        <CharString name="dieresis.cap">
          747 92 hstem
          48 70 callsubr
          vstem
          303 839 -106 callgsubr
        </CharString>
        <CharString name="divide">
          11 73 82 96 85 93 83 hstem
          206 109 vstem
          206 470 rmoveto
          -13 4 -18 4 -10 -5 callsubr
          22 -4 18 hhcurveto
          17 24 4 7 9 hvcurveto
          5 10 4 18 13 vvcurveto
          14 84 callsubr
          4 -17 hhcurveto
          -18 -21 -4 -7 -12 hvcurveto
          -4 -10 -4 -18 -14 vvcurveto
          -356 vmoveto
          -14 4 -17 4 -10 -5 callsubr
          22 -5 18 hhcurveto
          17 24 5 7 9 hvcurveto
          5 10 4 17 14 vvcurveto
          13 84 callsubr
          5 -17 hhcurveto
          -18 -21 53 callgsubr
          -4 -10 -4 -17 -14 vvcurveto
          267 137 rmoveto
          3 13 1 16 13 vvcurveto
          14 -1 15 19 callgsubr
          -416 25 callgsubr
          -13 1 -16 81 callsubr
          endchar
        </CharString>
        <CharString name="dollar">
          -21 -39 157 408 162 hstemhm
          57 100 43 79 -75 79 73 102 85 callsubr
          34 99 rmoveto
          hintmask 11110100
          35 -23 60 -26 71 -10 rrcurveto
          -79 vlineto
          -2 10 83 callgsubr
          10 hvcurveto
          77 vlineto
          111 8 68 63 89 vvcurveto
          78 -58 54 -74 26 vhcurveto
          -98 36 rlineto
          -46 16 -25 15 35 vvcurveto
          43 36 25 56 47 58 -16 -23 50 vhcurveto
          21 18 14 31 28 vvcurveto
          -41 19 -54 19 -61 5 rrcurveto
          81 vlineto
          2 -10 83 callsubr
          -10 hvcurveto
          -83 vlineto
          -91 -15 -56 -61 -78 vvcurveto
          -70 45 -45 77 -29 vhcurveto
          101 -36 rlineto
          46 -16 30 -30 -37 vvcurveto
          -46 -46 -24 -55 -72 -63 30 26 -46 vhcurveto
          -20 -13 -19 -36 -1 -26 rrcurveto
          endchar
        </CharString>
        <CharString name="dollar.smcp">
          -78 -32 139 332 76 hstemhm
          49 97 30 74 -71 74 52 100 85 callsubr
          30 79 rmoveto
          hintmask 11110100
          30 -19 53 -22 63 -8 rrcurveto
          -62 vlineto
          -2 9 18 -1 10 hhcurveto
          10 18 1 2 9 hvcurveto
          61 vlineto
          94 9 61 49 78 vvcurveto
          70 -48 43 -75 27 vhcurveto
          -76 28 rlineto
          -37 13 -23 12 28 vvcurveto
          32 28 21 46 42 51 -15 -20 42 vhcurveto
          22 17 12 27 1 30 -37 17 -49 16 -51 4 rrcurveto
          64 vlineto
          2 -9 -18 1 -10 hhcurveto
          -9 -19 -1 -2 -9 hvcurveto
          -67 vlineto
          -81 -14 -49 -52 -69 vvcurveto
          -63 44 -38 65 -24 vhcurveto
          87 -31 rlineto
          43 -16 17 -21 -26 vvcurveto
          -35 -32 -16 -48 -61 -56 22 23 -41 vhcurveto
          -20 -13 -16 -35 -1 -25 rrcurveto
          endchar
        </CharString>
        <CharString name="dotaccent">
          587 75 callgsubr
          630 -95 callgsubr
        </CharString>
        <CharString name="dotaccent.cap">
          755 75 callgsubr
          798 -95 callgsubr
        </CharString>
        <CharString name="dotlessi">
          -251 422 74 hstemhm
          93 96 hintmask 00000000
          hintmask 11000000
          189 -95 callsubr
          endchar
        </CharString>
        <CharString name="dotlessj">
          -244 40 callsubr
          hstem
          100 96 vstem
          196 411 -81 callsubr
          endchar
        </CharString>
        <CharString name="e">
          -18 -13 11 callsubr
          hstem
          46 100 210 94 vstem
          -77 callsubr
          endchar
        </CharString>
        <CharString name="e.smcp">
          -18 callsubr
          hstem
          86 97 vstem
          -104 callgsubr
          endchar
        </CharString>
        <CharString name="eacute">
          -18 -13 11 callsubr
          43 callgsubr
          46 100 37 212 -39 94 hintmask 11101010
          -77 callsubr
          hintmask 00010100
          -69 143 -98 callsubr
        </CharString>
        <CharString name="eacute.smcp">
          -18 callsubr
          44 13 callsubr
          86 97 17 212 -102 callsubr
          hintmask 00010100
          -265 548 -98 callsubr
        </CharString>
        <CharString name="ecaron">
          -18 56 0 101 207 endchar
        </CharString>
        <CharString name="ecaron.smcp">
          -18 callsubr
          57 57 callsubr
          86 97 -52 287 -102 callsubr
          hintmask 00010100
          -287 695 -99 callgsubr
        </CharString>
        <CharString name="ecircumflex">
          -18 56 0 101 195 endchar
        </CharString>
        <CharString name="ecircumflex.smcp">
          -18 callsubr
          47 92 callgsubr
          86 97 -55 287 -102 callsubr
          hintmask 00010100
          -98 517 -90 callgsubr
        </CharString>
        <CharString name="edieresis">
          -18 -13 11 callsubr
          67 76 hstemhm
          46 100 -37 73 callgsubr
          -38 94 hintmask 11101001
          -77 callsubr
          hintmask 00010110
          41 177 -107 callgsubr
        </CharString>
        <CharString name="edieresis.smcp">
          -18 callsubr
          80 76 hstemhm
          86 97 -57 73 callgsubr
          -102 callsubr
          hintmask 00010110
          -155 582 -107 callgsubr
        </CharString>
        <CharString name="egrave">
          -18 59 0 101 193 endchar
        </CharString>
        <CharString name="egrave.smcp">
          -18 callsubr
          44 13 callsubr
          86 97 -42 212 -102 callsubr
          hintmask 00010100
          -254 706 -66 callgsubr
        </CharString>
        <CharString name="eight">
          11 -13 72 529 73 hstemhm
          46 100 -82 98 206 97 -83 101 hintmask 00000000
          hintmask 11100100
          46 163 rmoveto
          -112 87 -64 127 121 101 69 115 1 vhcurveto
          83 -47 57 -69 36 vhcurveto
          hintmask 11011000
          55 30 43 51 67 vvcurveto
          98 -83 68 -118 -113 -87 -71 -100 -71 40 -49 60 -33 vhcurveto
          hintmask 11100100
          -64 -33 -54 -63 -78 vvcurveto
          191 144 rmoveto
          16 -5 rlineto
          67 -19 62 -40 -71 vvcurveto
          -70 -53 -43 -65 -66 -52 39 72 53 30 53 59 31 vhcurveto
          hintmask 11011000
          -73 185 rmoveto
          58 45 38 57 58 46 -36 -61 -48 -28 -41 -47 -26 vhcurveto
          -12 4 rlineto
          -72 20 -47 33 59 vvcurveto
          endchar
        </CharString>
        <CharString name="eight.smcp">
          -37 -13 69 432 70 hstemhm
          43 96 -80 95 173 95 -82 70 callgsubr
          hintmask 11100100
          43 130 rmoveto
          -89 78 -54 115 112 91 55 105 66 -41 47 -60 33 vhcurveto
          hintmask 11011000
          47 23 37 42 59 vvcurveto
          83 -74 58 -107 -104 -78 -62 -87 -61 37 -40 56 -29 vhcurveto
          hintmask 11100100
          -58 -26 -51 -55 -68 vvcurveto
          188 117 rmoveto
          54 -19 55 -31 -57 vvcurveto
          -54 -41 -30 -60 -58 -42 29 53 43 29 42 61 24 vhcurveto
          hintmask 11011000
          -75 169 rmoveto
          41 35 31 52 53 33 -29 -44 -35 -21 -35 -41 -21 vhcurveto
          -10 4 rlineto
          -63 23 -38 21 44 vvcurveto
          endchar
        </CharString>
        <CharString name="emdash">
          278 225 80 hstem
          76 645 vstem
          717 38 callgsubr
          -637 22 callsubr
          -13 -14 vvcurveto
          -13 1 -14 14 callgsubr
          endchar
        </CharString>
        <CharString name="endash">
          9 225 80 hstem
          61 406 vstem
          463 38 callgsubr
          -397 hlineto
          -4 -14 -1 -13 -14 vvcurveto
          -13 1 -14 4 -12 vhcurveto
          endchar
        </CharString>
        <CharString name="eogonek">
          -18 -217 66 138 11 callsubr
          hstem
          46 100 70 79 61 94 vstem
          -54 callsubr
          vhcurveto
          8 8 1 8 hhcurveto
          -35 -32 -23 -39 -40 vvcurveto
          -60 -1 callgsubr
          34 25 42 45 36 hvcurveto
          26 9 25 13 20 14 -66 callsubr
          endchar
        </CharString>
        <CharString name="eogonek.smcp">
          -10 -217 66 150 83 154 81 146 82 hstem
          86 97 72 79 vstem
          443 -134 rmoveto
          -9 -16 -21 -8 -22 hhcurveto
          -29 -21 16 30 39 35 44 59 25 hvcurveto
          1 0 1 1 hhcurveto
          18 6 11 15 4 21 rrcurveto
          2 12 0 15 9 vvcurveto
          -224 hlineto
          -25 -17 -1 -1 -17 hvcurveto
          11 1 15 17 vvcurveto
          113 56 vlineto
          161 hlineto
          4 13 -20 callsubr
          13 91 callgsubr
          hlineto
          -13 -22 0 -1 -21 hvcurveto
          97 vlineto
          79 callsubr
          14 vvcurveto
          57 hlineto
          206 hlineto
          5 15 -72 callgsubr
          185 hlineto
          -43 -30 -30 -44 -49 vvcurveto
          -59 -8 callgsubr
          endchar
        </CharString>
        <CharString name="equal">
          11 158 85 103 85 hstem
          53 424 vstem
          473 158 -4 callgsubr
          416 188 -4 callgsubr
          endchar
        </CharString>
        <CharString name="eth">
          -2 -13 74 353 73 hstem
          44 100 229 99 vstem
          115 572 rmoveto
          2 -19 19 -23 15 -10 100 69 rcurveline
          36 -37 29 -42 15 -42 rrcurveto
          11 -24 -26 8 -27 hhcurveto
          -58 -46 -19 -34 -35 hvcurveto
          -50 -50 -21 -62 -81 vvcurveto
          -77 -36 callgsubr
          71 78 vvcurveto
          160 -53 136 -97 98 vhcurveto
          74 51 -3 18 -19 24 -14 10 rlinecurve
          -87 -61 -34 26 -38 23 -42 18 rlinecurve
          -19 -10 -16 -28 -4 -24 28 -14 28 -18 27 -21 rrcurveto
          170 -388 rmoveto
          -93 -26 -90 -89 -89 -25 89 90 95 28 79 87 36 34 -12 -19 27 vhcurveto
          10 -36 7 -44 -59 vvcurveto
          endchar
        </CharString>
        <CharString name="eth.smcp">
          68 -3 76 160 80 158 77 hstem
          92 97 253 102 vstem
          544 271 rmoveto
          93 -15 84 -81 59 vhcurveto
          29 -39 -72 12 -49 21 callgsubr
          -227 -64 vlineto
          -3 -14 -1 -11 -16 vvcurveto
          -15 1 -12 14 callgsubr
          64 -228 hlineto
          89 callsubr
          77 40 -1 74 hhcurveto
          49 72 11 28 39 hvcurveto
          82 60 14 82 93 vvcurveto
          -102 hmoveto
          -91 -22 -107 -133 vhcurveto
          -37 -27 -1 -34 hhcurveto
          161 129 vlineto
          23 callsubr
          12 15 vvcurveto
          17 -1 10 19 callgsubr
          -129 159 hlineto
          34 27 -1 37 hhcurveto
          133 22 -108 -92 hvcurveto
          endchar
        </CharString>
        <CharString name="exclam">
          -234 4 102 577 7 hstemhm
          97 93 hintmask 00000000
          hintmask 11100000
          103 193 rmoveto
          -4 12 15 -1 12 hhcurveto
          11 14 1 4 12 hvcurveto
          23 490 -6 7 rlineto
          -41 -40 -11 -17 -23 hvcurveto
          49 -556 -11 callsubr
          3 23 14 vvcurveto
          13 -3 48 callsubr
        </CharString>
        <CharString name="exclamdown">
          -234 -197 7 576 103 hstemhm
          95 92 hintmask 00000000
          hintmask 11100000
          182 300 rmoveto
          4 -11 -16 1 -11 hhcurveto
          -12 -13 -1 -4 -12 hvcurveto
          -24 -490 6 -7 rlineto
          42 39 11 17 23 hvcurveto
          -49 555 rmoveto
          21 14 callsubr
          -21 hhcurveto
          -19 -23 53 callgsubr
          -5 -9 -4 -23 6 callsubr
          4 -24 5 -8 vhcurveto
          -8 12 23 -5 19 hhcurveto
          endchar
        </CharString>
        <CharString name="f">
          -188 422 71 173 73 hstem
          102 95 vstem
          102 hmoveto
          -3 15 17 -2 callgsubr
          16 18 35 callsubr
          423 vlineto
          136 -1 rlineto
          2 11 2 13 12 vvcurveto
          13 -2 11 -2 12 vhcurveto
          -142 -2 rlineto
          -5 31 -3 30 27 vvcurveto
          55 28 31 47 29 32 -7 -8 27 vhcurveto
          14 15 8 27 23 vvcurveto
          12 -30 -51 11 -43 hhcurveto
          -98 -55 -66 -87 -29 3 -32 4 -32 hvcurveto
          -82 1 rlineto
          -2 -12 -2 -11 -13 vvcurveto
          -12 2 -13 2 -11 vhcurveto
          86 1 rlineto
          endchar
        </CharString>
        <CharString name="f.smcp">
          -53 231 80 151 83 93 callgsubr
          vstem
          442 545 rmoveto
          -351 hlineto
          -5 -4 rlineto
          -541 62 callgsubr
          19 32 callgsubr
          231 37 vlineto
          173 hlineto
          3 13 1 16 -10 callgsubr
          -1 16 46 callsubr
          -173 hlineto
          -11 -13 0 -1 -13 hvcurveto
          69 vlineto
          27 -1 28 29 vvcurveto
          -1 25 28 0 32 hhcurveto
          127 hlineto
          40 12 17 28 10 -2 17 -3 11 hvcurveto
          endchar
        </CharString>
        <CharString name="five">
          11 -13 80 286 77 134 84 hstem
          88 94 188 101 vstem
          437 648 rmoveto
          -335 hlineto
          -7 -7 -14 -301 8 -14 21 -16 18 -3 rlinecurve
          30 35 41 16 40 hhcurveto
          58 68 -31 -104 -105 -64 -46 -67 -56 -43 21 28 -40 hvcurveto
          -20 -15 -18 -30 -4 -21 rrcurveto
          -35 42 65 -28 80 hhcurveto
          113 113 74 162 130 -80 77 -121 -33 -32 -8 -12 -28 hvcurveto
          2 10 0 9 1 9 4 73 rcurveline
          1 12 0 20 21 vvcurveto
          42 hlineto
          174 hlineto
          28 15 15 29 10 -2 16 -5 14 hvcurveto
          endchar
        </CharString>
        <CharString name="five.smcp">
          -37 -13 79 221 72 106 80 hstem
          81 94 154 100 vstem
          53 41 rmoveto
          -32 40 60 -22 71 hhcurveto
          104 101 65 132 106 -76 69 -102 -29 -28 -7 -9 -25 hvcurveto
          2 12 0 13 1 11 3 65 rcurveline
          21 33 vlineto
          154 hlineto
          30 15 13 28 9 -1 15 -5 15 hvcurveto
          -307 5 callsubr
          -14 -258 12 -15 19 -14 17 -4 rlinecurve
          23 33 34 16 37 hhcurveto
          50 53 -32 -76 -76 -52 -37 -60 -48 -39 14 24 -36 hvcurveto
          -20 -13 -17 -31 -4 -19 rrcurveto
          endchar
        </CharString>
        <CharString name="four">
          11 140 82 432 -20 hstem
          294 95 vstem
          294 hmoveto
          -3 15 16 61 callsubr
          17 16 -40 callgsubr
          91 vlineto
          15 -1 21 14 vvcurveto
          97 hlineto
          5 15 2 18 12 vvcurveto
          11 0 13 46 callsubr
          -56 hlineto
          -15 -15 -1 -15 hhcurveto
          15 1 21 15 vvcurveto
          137 vlineto
          -4 4 rlineto
          -27 hlineto
          -39 -25 -27 -47 hvcurveto
          -84 vlineto
          -7 0 -16 1 -11 vhcurveto
          -44 hlineto
          -22 -53 -1 -2 -38 hvcurveto
          -2 3 20 33 28 63 17 40 rlinecurve
          121 278 -19 16 -45 8 -27 -6 rlinecurve
          -170 -393 rlineto
          -11 -26 -9 -21 -15 vvcurveto
          -18 10 -21 12 -20 vhcurveto
          181 hlineto
          16 20 82 callgsubr
          -14 -1 -21 -15 vvcurveto
          endchar
        </CharString>
        <CharString name="four.smcp">
          -37 112 80 358 -20 hstem
          268 90 vstem
          268 hmoveto
          -3 14 16 51 callsubr
          14 -40 callgsubr
          65 vlineto
          15 -1 18 15 vvcurveto
          83 hlineto
          6 16 1 14 16 vvcurveto
          11 0 10 -2 13 vhcurveto
          -49 hlineto
          -10 -18 -1 -11 hhcurveto
          15 2 27 15 vvcurveto
          99 vlineto
          -4 4 rlineto
          -26 hlineto
          -36 -25 -27 -44 hvcurveto
          -57 vlineto
          -6 0 -16 1 -10 vhcurveto
          -31 hlineto
          -19 -50 -2 -3 -34 hvcurveto
          -3 3 20 35 26 52 17 34 rlinecurve
          106 220 -20 15 -41 10 -28 -6 rlinecurve
          -155 -327 rlineto
          -10 -19 -8 -20 -14 vvcurveto
          -17 10 -22 12 -19 vhcurveto
          158 hlineto
          16 19 82 callgsubr
          -15 -1 -18 -15 vvcurveto
          endchar
        </CharString>
        <CharString name="foursuperior">
          -99 421 71 hstem
          225 80 vstem
          225 343 -85 callsubr
        </CharString>
        <CharString name="fraction">
          -301 0 -20 hstem
          -127 472 vstem
          -127 hmoveto
          -32 callgsubr
          endchar
        </CharString>
        <CharString name="g">
          8 -220 75 136 76 callsubr
          211 93 85 callsubr
          46 245 rmoveto
          -152 58 -102 115 55 48 26 31 33 vhcurveto
          -49 vlineto
          -78 -21 -66 -105 -39 -56 12 20 -41 vhcurveto
          -15 -17 -11 -32 -25 vvcurveto
          -18 45 65 -15 61 hhcurveto
          75 57 27 38 31 hvcurveto
          32 39 15 57 112 vvcurveto
          300 vlineto
          hintmask 11011100
          39 6 38 22 20 vhcurveto
          -5 18 -16 23 -17 9 rrcurveto
          hintmask 11101100
          -31 -7 -20 -17 -13 -23 rrcurveto
          29 -33 -43 24 -62 hhcurveto
          -93 -97 -82 -179 hvcurveto
          309 126 rmoveto
          -235 vlineto
          -38 -30 -44 -25 -44 hhcurveto
          -51 -42 50 122 125 47 57 59 36 37 -18 -29 32 hvcurveto
          endchar
        </CharString>
        <CharString name="g.smcp">
          43 -13 78 145 83 182 83 -56 -20 hstemhm
          43 102 266 94 85 callsubr
          296 291 rmoveto
          -4 -10 -2 -17 -12 vvcurveto
          -29 16 -13 30 vhcurveto
          77 hlineto
          -2 -25 0 -23 -2 vvcurveto
          -82 vlineto
          -7 -28 -35 -6 -40 hhcurveto
          -110 -53 69 135 150 69 56 87 59 52 -17 -29 44 hvcurveto
          hintmask 11011100
          20 13 20 32 5 28 rrcurveto
          hintmask 11101100
          34 -51 -76 22 -73 hhcurveto
          -131 -127 -79 -209 -148 62 -135 184 80 84 17 18 52 hvcurveto
          213 vlineto
          38 -17 20 -60 -45 -43 -1 -1 -44 vhcurveto
          endchar
        </CharString>
        <CharString name="germandbls">
          -80 callgsubr
        </CharString>
        <CharString name="germandbls.cap">
          -80 callgsubr
        </CharString>
        <CharString name="germandbls.cap_smcp">
          46 -11 73 202 76 145 73 hstem
          92 98 245 103 vstem
          92 hmoveto
          -3 14 19 61 callsubr
          16 29 callgsubr
          380 vlineto
          69 35 36 70 68 34 -45 -53 vhcurveto
          -6 -1 -5 -5 vvcurveto
          -49 -19 -36 -39 -45 vvcurveto
          -32 19 -27 38 -28 vhcurveto
          35 -26 rlineto
          23 -18 9 -15 -17 vvcurveto
          -25 -24 -18 -38 -26 -26 7 11 -24 vhcurveto
          -16 -15 -12 -33 -1 -21 rrcurveto
          -14 33 43 -8 39 hhcurveto
          91 64 46 68 35 -17 33 -44 35 hvcurveto
          -31 25 rlineto
          -21 15 -10 12 15 vvcurveto
          27 28 23 43 10 vhcurveto
          7 20 2 21 18 vvcurveto
          98 -81 68 -118 -118 -86 -53 -113 vhcurveto
          -52 vlineto
          -77 1 rlineto
          -3 -11 -1 -15 -11 vvcurveto
          -13 1 -16 3 -11 vhcurveto
          77 1 rlineto
          endchar
        </CharString>
        <CharString name="germandbls.smcp">
          468 60 callsubr
          hstemhm
          44 103 209 105 76 103 209 105 hintmask 11110000
          -94 callgsubr
          hintmask 11001100
          493 hmoveto
          -101 callsubr
          endchar
        </CharString>
        <CharString name="grave">
          537 198 hstem
          65 212 vstem
          135 735 -66 callgsubr
        </CharString>
        <CharString name="grave.cap">
          728 170 hstem
          66 244 vstem
          110 898 -53 callgsubr
        </CharString>
        <CharString name="greater">
          11 51 484 hstem
          376 105 vstem
          476 254 rmoveto
          8 24 -2 31 -6 23 -371 203 rcurveline
          -22 -14 -20 -30 -3 -33 244 -128 rcurveline
          18 -10 38 -17 16 -7 rrcurveto
          -6 vlineto
          -16 -7 -38 -18 -18 -9 -244 -129 rcurveline
          3 -32 19 -30 23 -14 rrcurveto
          endchar
        </CharString>
        <CharString name="guillemotleft">
          32 38 432 hstemhm
          35 257 -35 257 hintmask 10100000
          509 419 -44 callsubr
          hintmask 11000000
          -81 162 -44 callsubr
          endchar
        </CharString>
        <CharString name="guillemotright">
          32 38 432 hstemhm
          37 258 -36 258 hintmask 11000000
          43 90 -43 callgsubr
          hintmask 10100000
          82 -162 -43 callgsubr
          endchar
        </CharString>
        <CharString name="guilsinglleft">
          -190 38 432 hstem
          35 257 vstem
          287 419 -44 callsubr
          endchar
        </CharString>
        <CharString name="guilsinglright">
          -190 38 432 hstem
          37 258 vstem
          43 90 -43 callgsubr
          endchar
        </CharString>
        <CharString name="h">
          25 414 87 hstem
          80 95 197 96 vstem
          468 339 rmoveto
          21 callsubr
          -28 -39 -43 vhcurveto
          239 vlineto
          -13 callsubr
          -729 -28 callsubr
          endchar
        </CharString>
        <CharString name="h.smcp">
          94 242 83 220 -20 93 callgsubr
          245 98 vstem
          429 hmoveto
          -3 15 18 32 callgsubr
          545 1 callsubr
          -15 -17 callsubr
          -162 vlineto
          -23 1 -15 -21 vvcurveto
          -10 -32 1 -9 hhcurveto
          63 callgsubr
          15 23 vvcurveto
          162 -15 callgsubr
          -545 16 callgsubr
          -30 callsubr
          184 vlineto
          23 -1 15 21 39 callsubr
          -21 -1 -15 -23 vvcurveto
          endchar
        </CharString>
        <CharString name="hbar">
          28 414 87 69 66 hstem
          83 95 197 96 vstem
          178 673 rmoveto
          -13 callsubr
          -93 vlineto
          -70 1 rlineto
          -3 -12 -1 -9 -12 vvcurveto
          -13 1 -10 14 callgsubr
          70 1 rlineto
          -570 -28 callsubr
          236 vlineto
          21 callsubr
          -28 -39 -43 vhcurveto
          137 vlineto
          161 -2 rlineto
          23 callsubr
          10 13 vvcurveto
          12 -1 9 -3 12 91 callgsubr
          -2 rlineto
          endchar
        </CharString>
        <CharString name="hbar.smcp">
          102 241 82 71 151 hstem
          90 98 245 98 vstem
          188 hmoveto
          182 vlineto
          23 -1 15 22 39 callsubr
          -22 -1 -15 -23 vvcurveto
          -182 vlineto
          -3 15 18 32 callgsubr
          394 63 vlineto
          23 callsubr
          11 6 callgsubr
          -1 9 -3 12 vhcurveto
          -63 81 hlineto
          3 -15 -20 1 -15 -17 callsubr
          -81 -245 81 -15 callgsubr
          -81 -63 vlineto
          -3 -12 -1 -10 87 callsubr
          -10 14 callgsubr
          63 -394 hlineto
          69 callgsubr
          15 -30 callsubr
          195 323 rmoveto
          63 callgsubr
          16 23 vvcurveto
          12 245 -12 vlineto
          -23 1 -16 -21 vvcurveto
          -10 -32 1 -9 hhcurveto
          endchar
        </CharString>
        <CharString name="hyphen">
          -27 callsubr
        </CharString>
        <CharString name="i">
          -251 -76 0 245 199 endchar
        </CharString>
        <CharString name="i.smcp">
          28 callgsubr
          hstem
          89 99 vstem
          -79 callgsubr
          endchar
        </CharString>
        <CharString name="iacute">
          42 callsubr
          41 13 callsubr
          47 212 -168 96 -88 callgsubr
          hintmask 01100000
          -140 577 -98 callsubr
        </CharString>
        <CharString name="iacute.smcp">
          28 callgsubr
          64 13 callsubr
          66 212 -189 99 -70 callsubr
          hintmask 01100000
          -23 84 -98 callsubr
        </CharString>
        <CharString name="icircumflex">
          42 callsubr
          44 92 callgsubr
          -24 287 -172 96 -88 callgsubr
          hintmask 01100000
          28 546 -90 callgsubr
        </CharString>
        <CharString name="icircumflex.smcp">
          28 callgsubr
          67 92 callgsubr
          -5 287 -193 99 -70 callsubr
          hintmask 01100000
          145 53 -90 callgsubr
        </CharString>
        <CharString name="idieresis">
          42 callsubr
          77 76 hstemhm
          -26 100 17 96 -29 101 -88 callgsubr
          hintmask 01101000
          -29 611 -107 callgsubr
        </CharString>
        <CharString name="idieresis.smcp">
          28 callgsubr
          100 76 hstemhm
          -7 100 -4 99 -11 101 -70 callsubr
          hintmask 01101000
          88 118 -107 callgsubr
        </CharString>
        <CharString name="igrave">
          42 callsubr
          41 13 callsubr
          -11 212 -110 96 -88 callgsubr
          hintmask 01100000
          -128 735 -66 callgsubr
        </CharString>
        <CharString name="igrave.smcp">
          28 callgsubr
          64 13 callsubr
          7 212 -130 99 -70 callsubr
          hintmask 01100000
          -12 242 -66 callgsubr
        </CharString>
        <CharString name="ij">
          21 40 callsubr
          91 86 hstemhm
          62 114 -83 96 144 114 -82 96 hintmask 00000000
          hintmask 01001000
          189 -95 callsubr
          hintmask 00110000
          -127 630 -100 callgsubr
          hintmask 11000010
          399 -219 -81 callsubr
          hintmask 00100100
          -128 613 -95 callgsubr
        </CharString>
        <CharString name="ij.smcp">
          153 86 callsubr
          hstemhm
          89 99 314 98 hintmask 01100000
          -79 callgsubr
          hintmask 11010000
          226 -448 -58 callgsubr
          endchar
        </CharString>
        <CharString name="itilde">
          42 callsubr
          60 82 hstemhm
          -55 350 -204 96 -88 callgsubr
          hintmask 00000000
          -55 571 -79 callsubr
        </CharString>
        <CharString name="itilde.smcp">
          28 callgsubr
          83 82 hstemhm
          -36 350 -225 99 -70 callsubr
          hintmask 00000000
          62 78 -79 callsubr
        </CharString>
        <CharString name="j">
          -244 40 callsubr
          91 86 hstemhm
          68 114 -82 96 hintmask 11001000
          196 411 -81 callsubr
          hintmask 00110000
          -128 613 -95 callgsubr
        </CharString>
        <CharString name="j.smcp">
          -123 86 callsubr
          hstem
          225 98 vstem
          38 97 -58 callgsubr
          endchar
        </CharString>
        <CharString name="jcircumflex">
          -248 40 callsubr
          44 92 callgsubr
          -19 287 -171 96 hintmask 11001000
          193 411 -81 callsubr
          hintmask 00110000
          27 529 -90 callgsubr
        </CharString>
        <CharString name="jcircumflex.smcp">
          -123 86 callsubr
          67 92 callgsubr
          130 287 -192 98 hintmask 11001000
          38 97 -58 callgsubr
          hintmask 00110000
          331 501 -90 callgsubr
        </CharString>
        <CharString name="k">
          -20 217 80 190 9 hstem
          80 95 vstem
          -68 callsubr
          endchar
        </CharString>
        <CharString name="k.smcp">
          24 241 75 callsubr
          hintmask 00000000
          hintmask 11010000
          -70 callgsubr
          hintmask 10110000
          -38 callgsubr
          endchar
        </CharString>
        <CharString name="kcommaaccent">
          -20 -25 callsubr
          271 80 190 9 hstemhm
          80 95 62 93 hintmask 00011100
          -68 callsubr
          hintmask 11100010
          -112 -159 -93 callsubr
        </CharString>
        <CharString name="kcommaaccent.smcp">
          17 -25 callsubr
          295 75 callsubr
          63 93 hintmask 00000000
          hintmask 00011010
          -70 callgsubr
          hintmask 00010110
          -38 callgsubr
          hintmask 11100001
          -191 -85 -93 callsubr
        </CharString>
        <CharString name="kgreenlandic">
          -20 217 80 190 9 hstem
          80 95 vstem
          -59 callgsubr
          140 vlineto
          -13 callsubr
          -491 -59 callsubr
          endchar
        </CharString>
        <CharString name="kgreenlandic.smcp">
          24 241 80 216 11 93 callgsubr
          vstem
          -70 callgsubr
          167 vlineto
          27 callsubr
          -40 -23 callgsubr
          -543 47 callsubr
          18 72 callsubr
          19 1 3 13 -10 callsubr
          endchar
        </CharString>
        <CharString name="l">
          -228 -4 77 hstem
          79 94 vstem
          -30 callgsubr
          endchar
        </CharString>
        <CharString name="l.smcp">
          -55 -1 84 465 -20 hstem
          85 99 vstem
          -28 callgsubr
          endchar
        </CharString>
        <CharString name="ldot">
          -176 -4 77 234 92 hstemhm
          79 94 66 108 hintmask 10100000
          -30 callgsubr
          hintmask 01010000
          -12 280 -60 callsubr
        </CharString>
        <CharString name="ldot.smcp">
          -51 -1 84 180 92 193 -20 hstemhm
          85 99 116 108 hintmask 10110000
          -28 callgsubr
          hintmask 01001000
          -139 226 -60 callsubr
        </CharString>
        <CharString name="less">
          11 50 484 hstem
          54 100 vstem
          54 331 rmoveto
          -8 -24 2 -30 6 -24 371 -203 rcurveline
          22 14 20 30 3 33 -244 128 rcurveline
          -18 10 -38 17 -16 7 rrcurveto
          6 vlineto
          16 7 38 18 18 9 244 129 rcurveline
          -3 32 -19 30 -23 14 rrcurveto
          endchar
        </CharString>
        <CharString name="logicalnot">
          11 256 85 hstem
          382 90 vstem
          52 341 rmoveto
          -3 -14 -1 -15 87 callsubr
          -17 81 callsubr
          285 68 callgsubr
          -14 -1 -18 -12 vvcurveto
          -99 vlineto
          -3 15 14 90 callsubr
          16 15 -40 callsubr
          221 vlineto
          -6 6 rlineto
          endchar
        </CharString>
        <CharString name="lslash">
          -192 -4 77 hstem
          107 94 vstem
          240 73 rmoveto
          -26 -13 15 29 hvcurveto
          243 vlineto
          88 47 5 24 0 29 -6 21 rlinecurve
          -7 3 -80 -42 rlineto
          231 vlineto
          27 callsubr
          -36 -23 callgsubr
          -337 vlineto
          -79 -41 -5 -24 0 -28 7 -21 rlinecurve
          7 -4 70 37 rlineto
          -217 vlineto
          -65 33 -33 62 26 34 3 4 22 vhcurveto
          2 6 0 77 callgsubr
          endchar
        </CharString>
        <CharString name="lslash.smcp">
          -44 -1 84 465 -20 hstem
          95 99 vstem
          194 487 rmoveto
          43 -14 18 -40 vhcurveto
          -39 hlineto
          -6 -5 rlineto
          -241 vlineto
          -66 -19 -5 -24 1 -31 6 -18 rlinecurve
          7 -4 57 17 rlineto
          -164 vlineto
          -38 24 -22 33 vhcurveto
          232 hlineto
          35 23 71 callsubr
          2 12 0 14 1 11 rrcurveto
          -173 hlineto
          -25 -29 -2 -2 -29 hvcurveto
          172 vlineto
          162 49 5 24 -1 30 -6 19 rlinecurve
          -7 3 -153 -47 rlineto
          endchar
        </CharString>
        <CharString name="m">
          277 414 88 hstem
          80 97 175 96 176 96 vstem
          352 315 rmoveto
          -315 47 callsubr
          18 -52 callgsubr
          347 vlineto
          2 vlineto
          40 34 44 25 36 hhcurveto
          41 21 -26 -72 hvcurveto
          -261 vlineto
          -40 13 -22 38 23 24 9 12 14 vhcurveto
          -12 23 -4 32 34 vvcurveto
          243 vlineto
          86 -40 70 -87 -58 -56 -31 -43 -46 vhcurveto
          44 -19 -37 30 -57 hhcurveto
          -52 -51 -27 -41 -40 hvcurveto
          40 -2 -13 23 -39 hhcurveto
          -36 hlineto
          -7 -7 rlineto
          -490 62 callgsubr
          17 -17 callgsubr
          350 vlineto
          38 33 44 26 36 hhcurveto
          42 20 -27 -72 hvcurveto
          endchar
        </CharString>
        <CharString name="m.smcp">
          211 1 -20 100 90 272 102 hstem
          69 591 vstem
          69 1 rmoveto
          -3 13 20 -3 18 hhcurveto
          15 16 2 2 15 hvcurveto
          22 279 rlineto
          4 46 2 75 44 vvcurveto
          6 hlineto
          115 -362 rlineto
          -2 -5 callgsubr
          15 21 1 2 14 hvcurveto
          116 362 rlineto
          5 hlineto
          1 -44 1 -75 4 -46 23 -279 rcurveline
          -2 14 16 -2 15 hhcurveto
          18 19 3 3 14 hvcurveto
          -52 544 rlineto
          4 -16 -31 2 -18 hhcurveto
          -18 -29 -2 -4 -17 hvcurveto
          -79 -257 -9 -26 -19 -65 -4 -26 rlinecurve
          -5 hlineto
          -4 26 -20 65 -8 26 -81 257 rcurveline
          4 -17 -28 2 -18 hhcurveto
          -19 -28 -2 -4 -19 hvcurveto
          endchar
        </CharString>
        <CharString name="macron">
          576 79 hstemhm
          60 278 hintmask 00000000
          hintmask 11000000
          338 576 rmoveto
          23 callsubr
          11 16 vvcurveto
          17 -1 10 46 callsubr
          -278 hlineto
          43 callsubr
          -11 -16 vvcurveto
          -16 9 callsubr
          endchar
        </CharString>
        <CharString name="mu">
          35 -197 -21 208 85 418 -20 hstem
          80 95 200 97 vstem
          472 493 rmoveto
          2 -14 -17 2 -18 hhcurveto
          -17 -18 -2 -2 -13 hvcurveto
          -356 vlineto
          -38 -28 -37 -24 -42 hhcurveto
          -54 -37 35 63 -2 hvcurveto
          320 vlineto
          2 -13 -17 2 -18 hhcurveto
          -17 -17 -2 -2 -13 hvcurveto
          -602 vlineto
          -30 -2 -35 -13 -25 vhcurveto
          -12 15 21 -7 23 hhcurveto
          38 9 24 41 hvcurveto
          173 vlineto
          -19 23 29 -11 34 hhcurveto
          55 44 28 40 30 hvcurveto
          12 -32 24 -24 40 -9 17 9 16 22 5 18 rrcurveto
          -23 20 -5 38 40 vvcurveto
          endchar
        </CharString>
        <CharString name="multiply">
          11 101 383 hstem
          73 383 vstem
          236 204 rmoveto
          9 8 11 11 9 10 28 -29 rcurveline
          102 -102 13 5 13 9 10 10 rlinecurve
          11 11 8 12 6 14 -102 102 rcurveline
          -29 28 29 28 102 102 -6 14 -9 13 -11 10 rlinecurve
          -10 10 -12 9 -13 5 -102 -102 rcurveline
          -28 -30 -9 10 -11 12 -9 8 rlinecurve
          -101 102 -14 -5 -12 -8 -11 -11 rlinecurve
          -11 -12 -7 -12 -7 -13 103 -101 rcurveline
          8 -9 11 -11 10 -9 -10 -9 -11 -11 -8 -9 -103 -101 rcurveline
          7 -14 9 -13 10 -10 10 -9 11 -9 15 -7 rrcurveto
          endchar
        </CharString>
        <CharString name="n">
          66 callgsubr
          hstemhm
          80 97 196 97 86 callgsubr
          -4 callsubr
          hintmask 01110000
          -68 callgsubr
          endchar
        </CharString>
        <CharString name="n.smcp">
          24 callsubr
          hstem
          86 93 260 94 vstem
          -96 callgsubr
          endchar
        </CharString>
        <CharString name="nacute">
          27 80 0 110 194 endchar
        </CharString>
        <CharString name="nacute.smcp">
          24 callsubr
          60 13 callsubr
          86 93 60 212 -12 -85 callgsubr
          hintmask 00101000
          -294 86 -98 callsubr
        </CharString>
        <CharString name="nbspace">
          -299 0 0 32 32 endchar
        </CharString>
        <CharString name="ncaron">
          66 callgsubr
          73 57 callsubr
          80 97 -40 287 -51 -50 callsubr
          hintmask 00101000
          -286 621 -99 callgsubr
        </CharString>
        <CharString name="ncaron.smcp">
          24 callsubr
          73 57 callsubr
          86 93 -9 287 -18 -85 callgsubr
          hintmask 00101000
          -316 233 -99 callgsubr
        </CharString>
        <CharString name="nine">
          11 -13 79 150 82 287 76 hstem
          46 100 229 103 vstem
          258 661 rmoveto
          -124 -88 -93 -136 -147 74 -69 109 57 52 24 34 37 hvcurveto
          -117 -3 -46 -91 -109 hhcurveto
          -44 -33 11 11 -25 hvcurveto
          -20 -15 -13 -29 -2 -25 rrcurveto
          -20 34 52 -12 56 hhcurveto
          168 88 131 202 200 -53 56 -18 22 hvcurveto
          22 -18 -45 41 -86 hhcurveto
          -5 -363 rmoveto
          -61 -46 34 107 88 39 58 72 34 25 -16 -22 17 hvcurveto
          33 -42 10 -78 -54 vvcurveto
          -16 vlineto
          -37 -35 -47 -22 -41 hhcurveto
          endchar
        </CharString>
        <CharString name="nine.smcp">
          -37 -13 76 128 76 218 73 hstem
          51 97 193 99 vstem
          241 558 rmoveto
          -111 -79 -77 -114 -111 58 -65 104 50 44 17 27 34 hvcurveto
          -101 -3 -34 -71 -100 hhcurveto
          -38 -31 8 8 -22 hvcurveto
          -18 -15 -12 -24 -4 -26 rrcurveto
          -17 31 52 -10 46 hhcurveto
          152 80 107 170 94 -13 94 -54 56 hvcurveto
          31 -30 -43 19 -59 hhcurveto
          -4 -291 rmoveto
          -51 -38 30 79 67 33 42 60 30 21 -13 -16 14 hvcurveto
          27 -33 8 -58 -44 vvcurveto
          -12 vlineto
          -24 -30 -40 -18 -34 hhcurveto
          endchar
        </CharString>
        <CharString name="ntilde">
          66 callgsubr
          79 82 hstemhm
          80 97 -74 350 -80 -50 callsubr
          hintmask 00000000
          -180 468 -90 callsubr
        </CharString>
        <CharString name="ntilde.smcp">
          24 callsubr
          79 82 hstemhm
          86 93 -43 350 -47 -85 callgsubr
          hintmask 00000000
          -210 80 -90 callsubr
        </CharString>
        <CharString name="numbersign">
          118 6 7 144 82 173 81 144 7 hstem
          24 591 vstem
          423 493 rmoveto
          -127 hlineto
          33 144 -21 9 -45 0 -22 -9 rlinecurve
          -33 -144 rlineto
          -131 hlineto
          -8 -22 0 -37 8 -22 rrcurveto
          113 hlineto
          -38 -173 rlineto
          -122 hlineto
          -8 -23 0 -37 8 -22 rrcurveto
          103 37 callgsubr
          127 37 callgsubr
          126 hlineto
          8 22 0 37 -8 23 rrcurveto
          -107 hlineto
          38 173 rlineto
          116 hlineto
          8 22 0 37 -8 22 rrcurveto
          -98 hlineto
          33 144 -22 9 -44 0 -23 -9 rlinecurve
          -177 -225 rmoveto
          127 hlineto
          -39 -173 rlineto
          -126 hlineto
          endchar
        </CharString>
        <CharString name="o">
          69 callsubr
          hstem
          46 100 228 100 vstem
          -76 callsubr
          endchar
        </CharString>
        <CharString name="o.smcp">
          12 callsubr
          hstem
          41 103 299 103 vstem
          -101 callgsubr
          endchar
        </CharString>
        <CharString name="oacute">
          69 callsubr
          43 callgsubr
          46 100 41 212 -25 100 hintmask 11010100
          -76 callsubr
          hintmask 00101000
          41 331 -98 callsubr
        </CharString>
        <CharString name="oacute.smcp">
          12 callsubr
          43 callgsubr
          41 103 77 212 10 -91 callsubr
          hintmask 00101000
          180 357 -98 callsubr
        </CharString>
        <CharString name="ocircumflex">
          1 61 0 111 195 endchar
        </CharString>
        <CharString name="ocircumflex.smcp">
          12 callsubr
          34 92 callgsubr
          41 103 5 287 7 -91 callsubr
          hintmask 00101000
          347 326 -90 callgsubr
        </CharString>
        <CharString name="odieresis">
          1 61 0 111 200 endchar
        </CharString>
        <CharString name="odieresis.smcp">
          12 callsubr
          67 76 hstemhm
          41 103 3 73 callgsubr
          11 103 hintmask 11010010
          -101 callgsubr
          hintmask 00101100
          290 391 -107 callgsubr
        </CharString>
        <CharString name="oe">
          313 -13 75 -75 11 callsubr
          hstemhm
          46 100 228 106 208 94 hintmask 00000000
          hintmask 10111110
          776 216 rmoveto
          5 27 1 19 30 vvcurveto
          119 -67 95 -129 -76 -52 -34 -55 -32 vhcurveto
          54 -32 -52 35 -82 16 callsubr
          -52 -18 -71 -82 vvcurveto
          -81 18 -71 52 -52 vhcurveto
          -37 37 49 -18 58 hhcurveto
          81 52 34 51 31 hvcurveto
          hintmask 01111110
          -52 29 49 -33 81 hhcurveto
          69 69 23 34 48 hvcurveto
          -3 19 -12 28 -16 15 rrcurveto
          -22 -43 -46 -17 -51 hhcurveto
          -87 -27 62 87 -4 hvcurveto
          hintmask 10111110
          -334 30 rmoveto
          17 callgsubr
          -93 -25 -91 -89 -89 -25 91 93 vhcurveto
          440 188 rmoveto
          74 28 -61 -74 45 callsubr
        </CharString>
        <CharString name="oe.smcp">
          285 -1 82 155 80 148 81 hstem
          41 104 236 95 vstem
          760 81 rmoveto
          -225 hlineto
          -26 -17 0 -1 -17 hvcurveto
          14 1 24 14 vvcurveto
          104 vlineto
          -1 21 22 1 14 hhcurveto
          162 hlineto
          4 13 1 79 callgsubr
          10 -1 17 -4 12 vhcurveto
          -162 hlineto
          -14 -22 91 callsubr
          95 vlineto
          14 -1 25 15 vvcurveto
          -1 21 23 1 14 hhcurveto
          207 hlineto
          5 -12 callgsubr
          0 14 19 callgsubr
          -331 hlineto
          6 -37 -40 7 -40 hhcurveto
          -74 -46 -20 -29 -38 hvcurveto
          -71 -55 -26 -95 -86 vvcurveto
          -87 26 -95 71 -55 vhcurveto
          -29 38 46 -20 74 hhcurveto
          39 39 6 6 36 hvcurveto
          287 hlineto
          36 20 71 callsubr
          2 12 0 15 8 vvcurveto
          -464 -16 rmoveto
          -125 -26 114 94 92 25 116 126 27 30 -6 -7 28 hvcurveto
          -391 vlineto
          -7 -27 -30 -5 -28 hhcurveto
          endchar
        </CharString>
        <CharString name="ograve">
          1 63 0 111 193 endchar
        </CharString>
        <CharString name="ograve.smcp">
          12 callsubr
          43 callgsubr
          41 103 18 212 69 -91 callsubr
          hintmask 00101000
          191 515 -66 callgsubr
        </CharString>
        <CharString name="one">
          11 0 82 566 -20 hstem
          245 96 vstem
          62 457 rmoveto
          6 -25 15 -21 21 -12 52 22 56 40 38 47 rrcurveto
          -2 -41 -3 -56 -24 vvcurveto
          -240 vlineto
          -24 1 -19 -23 vvcurveto
          -15 -29 1 -12 hhcurveto
          -93 hlineto
          -3 -13 -2 -15 -13 vvcurveto
          -14 2 -13 3 -14 vhcurveto
          371 hlineto
          3 14 2 13 14 vvcurveto
          13 -2 15 46 callsubr
          -70 hlineto
          -13 -31 -1 -14 hhcurveto
          23 1 19 24 vvcurveto
          501 vlineto
          4 -17 -15 1 -14 hhcurveto
          -14 -16 -1 -4 -16 hvcurveto
          -26 -60 -64 -71 -97 -60 rrcurveto
          endchar
        </CharString>
        <CharString name="one.smcp">
          -37 0 79 466 -20 hstem
          217 96 vstem
          57 389 rmoveto
          4 -24 15 -23 21 -10 47 19 45 28 33 37 rrcurveto
          -2 -24 -3 -25 -18 vvcurveto
          -272 vlineto
          -13 -27 2 -12 hhcurveto
          -80 hlineto
          -2 -12 -2 -15 6 callsubr
          2 -13 2 -13 vhcurveto
          340 hlineto
          2 12 2 14 6 callgsubr
          -2 15 -2 12 vhcurveto
          -59 hlineto
          -11 -31 -2 -12 hhcurveto
          19 1 18 20 vvcurveto
          411 vlineto
          3 -17 -15 0 -13 hhcurveto
          -14 -18 0 15 callgsubr
          -25 -53 -52 -53 -88 -50 rrcurveto
          endchar
        </CharString>
        <CharString name="onehalf">
          413 0 -20 20 75 186 72 24 74 hstemhm
          164 82 6 472 60 88 hintmask 10000100
          252 hmoveto
          -32 callgsubr
          hintmask 00101000
          -591 -136 -81 callgsubr
          hintmask 01010010
          846 -472 -56 callsubr
        </CharString>
        <CharString name="onequarter">
          413 0 -20 101 71 109 72 hstemhm
          164 82 20 472 9 80 hintmask 00110000
          37 547 -81 callgsubr
          hintmask 10001000
          229 -547 rmoveto
          -32 callgsubr
          hintmask 01000100
          105 -680 -85 callsubr
        </CharString>
        <CharString name="onesuperior">
          -99 343 72 hstem
          190 82 vstem
          63 629 -81 callgsubr
          endchar
        </CharString>
        <CharString name="ordfeminine">
          -99 295 65 119 58 90 69 hstem
          40 83 144 83 vstem
          374 341 rmoveto
          -21 17 -3 23 30 vvcurveto
          154 vlineto
          88 -51 43 -79 -56 -65 -18 -18 -44 vhcurveto
          1 -24 11 -24 13 -12 rrcurveto
          17 44 40 10 43 hhcurveto
          35 25 -19 -46 hvcurveto
          -29 vlineto
          2 -26 -27 2 -23 hhcurveto
          -88 -63 -38 -89 -57 39 -58 79 49 40 24 26 30 hvcurveto
          11 -24 21 -17 29 -5 17 8 16 20 3 14 rrcurveto
          -199 19 rmoveto
          -33 -19 26 30 39 27 24 44 23 26 -2 -2 24 hvcurveto
          -69 vlineto
          -30 -29 -35 -16 -28 hhcurveto
          endchar
        </CharString>
        <CharString name="ordmasculine">
          -112 295 66 269 66 hstem
          35 85 167 85 vstem
          372 496 rmoveto
          61 -16 56 -40 42 vhcurveto
          27 -28 -40 14 -45 hhcurveto
          -45 -39 -14 -27 -28 hvcurveto
          -40 -42 -16 -56 -61 vvcurveto
          -62 16 -57 40 -41 vhcurveto
          -27 28 39 -14 45 hhcurveto
          45 40 14 27 28 hvcurveto
          40 41 16 57 62 vvcurveto
          -252 hmoveto
          71 21 63 63 62 21 -63 -71 -72 -21 -63 -62 -63 -21 63 72 vhcurveto
          endchar
        </CharString>
        <CharString name="oslash">
          2 -13 72 376 71 43 -20 hstem
          46 93 243 93 vstem
          475 247 rmoveto
          77 -18 73 -52 52 vhcurveto
          39 68 -13 16 -25 13 -20 3 rlinecurve
          -35 -61 rlineto
          12 -27 -30 6 -34 hhcurveto
          -58 -48 -18 -37 -37 hvcurveto
          -53 -52 -18 -74 -78 vvcurveto
          -78 17 -72 51 -52 vhcurveto
          -39 -68 11 -16 26 -14 20 -2 rlinecurve
          35 61 rlineto
          -13 27 31 -6 35 hhcurveto
          59 48 18 37 37 hvcurveto
          53 52 18 74 79 vvcurveto
          -93 hmoveto
          -93 -27 -95 -94 -22 -19 5 9 -15 vhcurveto
          155 295 rlineto
          16 -34 6 -44 -43 vvcurveto
          -243 hmoveto
          93 27 95 95 21 17 -5 -9 15 vhcurveto
          -155 -294 rlineto
          -15 34 -5 43 43 vvcurveto
          endchar
        </CharString>
        <CharString name="oslash.smcp">
          69 -13 72 -56 -20 503 72 hstemhm
          41 99 307 70 callgsubr
          hintmask 01111000
          41 272 rmoveto
          -71 19 -77 45 -56 vhcurveto
          -46 -65 rlineto
          hintmask 10111000
          10 -17 26 -18 21 -6 42 59 rcurveline
          -21 34 42 -13 59 hhcurveto
          73 45 19 29 38 hvcurveto
          70 55 27 96 86 vvcurveto
          72 -19 78 -46 56 vhcurveto
          46 64 -12 18 -25 17 -21 6 rlinecurve
          -42 -58 rlineto
          20 -33 -42 13 -59 hhcurveto
          -71 -46 -19 -29 -37 hvcurveto
          hintmask 01111000
          -8 callsubr
          406 hmoveto
          hintmask 10111000
          -95 -27 -118 -126 -38 -29 10 18 -22 vhcurveto
          220 312 rlineto
          hintmask 01111000
          16 -39 6 -46 -42 vvcurveto
          -307 hmoveto
          95 28 119 126 36 29 -11 -16 21 vhcurveto
          -219 -312 rlineto
          -16 38 -5 46 41 vvcurveto
          endchar
        </CharString>
        <CharString name="otilde">
          69 callsubr
          50 82 hstemhm
          46 100 -61 350 -61 100 hintmask 11010100
          -76 callsubr
          hintmask 00000000
          126 325 -90 callsubr
        </CharString>
        <CharString name="otilde.smcp">
          12 callsubr
          50 82 hstemhm
          41 103 -26 350 -25 -91 callsubr
          hintmask 00000000
          264 351 -90 callsubr
        </CharString>
        <CharString name="p">
          10 49 callgsubr
          79 354 82 -9 -20 hstemhm
          80 95 210 98 hintmask 00000000
          hintmask 01110110
          483 252 rmoveto
          150 -58 104 -113 -57 -48 -26 -35 -34 vhcurveto
          hintmask 01101110
          33 -5 -16 19 -35 hhcurveto
          -30 4 callgsubr
          -700 vlineto
          7 -6 rlineto
          hintmask 10110110
          36 63 callsubr
          35 39 -14 44 hhcurveto
          hintmask 01110110
          93 97 82 179 hvcurveto
          -192 172 rmoveto
          50 44 -49 -122 -126 -48 -57 -57 -38 -36 17 22 -31 hvcurveto
          246 vlineto
          47 31 46 22 39 hhcurveto
          endchar
        </CharString>
        <CharString name="p.smcp">
          -12 193 76 203 76 93 callgsubr
          194 102 vstem
          480 370 92 callsubr
          -88 55 -119 -62 -59 -2 -1 -61 vhcurveto
          19 callsubr
          -540 16 callgsubr
          -30 callsubr
          193 89 vlineto
          121 86 58 119 hvcurveto
          -296 103 rmoveto
          -1 30 30 0 25 hhcurveto
          89 20 -56 -45 -45 -20 -57 -89 hvcurveto
          -85 hlineto
          endchar
        </CharString>
        <CharString name="paragraph">
          142 -155 77 675 86 hstem
          288 99 66 99 vstem
          288 60 rmoveto
          -58 -6 -30 -14 -18 vhcurveto
          -24 -18 -26 -8 -33 hhcurveto
          -30 -39 11 11 -26 hvcurveto
          -14 -19 -10 -35 -21 vvcurveto
          -12 28 53 -12 47 hhcurveto
          56 54 16 37 33 hvcurveto
          38 43 6 58 76 vvcurveto
          603 vlineto
          -6 6 rlineto
          2 -42 -27 2 -40 hhcurveto
          -132 -96 -69 -147 -145 95 -74 130 hvcurveto
          19 hlineto
          165 -386 rmoveto
          -12 callsubr
          17 29 callgsubr
          731 vlineto
          -1 12 14 0 13 hhcurveto
          41 hlineto
          7 20 0 46 -7 20 rrcurveto
          -173 -23 callgsubr
          endchar
        </CharString>
        <CharString name="parenleft">
          -193 -178 1005 hstem
          63 105 vstem
          168 325 rmoveto
          156 43 164 100 129 vhcurveto
          -13 29 -22 17 -23 7 rrcurveto
          -123 -120 -67 -207 -175 vvcurveto
          -175 67 -207 123 -121 vhcurveto
          23 8 22 17 13 28 rrcurveto
          -100 129 -43 164 157 vvcurveto
          endchar
        </CharString>
        <CharString name="parenright">
          -193 -178 1005 hstem
          159 104 vstem
          159 325 rmoveto
          -157 -44 -164 -100 -129 vhcurveto
          13 -28 22 -17 24 -8 rrcurveto
          123 121 66 207 175 vvcurveto
          175 -66 207 -123 120 vhcurveto
          -24 -7 -22 -17 -13 -29 rrcurveto
          100 -129 44 -164 -156 vvcurveto
          endchar
        </CharString>
        <CharString name="percent">
          378 -12 65 -53 -20 308 65 -23 65 235 65 hstemhm
          48 84 144 84 177 84 144 84 hintmask 0000000000000000
          hintmask 0110111110000000
          849 192 rmoveto
          hintmask 1001111110000000
          61 -9 61 -40 39 vhcurveto
          30 -28 -35 12 -44 hhcurveto
          -44 -36 -12 -30 -28 hvcurveto
          -39 -39 -9 -61 -61 vvcurveto
          -62 10 -61 38 -40 vhcurveto
          -29 29 35 -12 44 hhcurveto
          44 35 12 29 28 hvcurveto
          hintmask 0110111110000000
          39 40 10 61 62 vvcurveto
          hintmask 1001111110000000
          -228 hmoveto
          72 13 66 59 59 13 -66 -72 -73 -13 -66 -59 -59 -13 66 73 vhcurveto
          -261 300 rmoveto
          61 -9 61 -40 40 vhcurveto
          29 -27 -36 12 -44 hhcurveto
          -44 -35 -12 -29 -28 hvcurveto
          -39 -40 -10 -61 -61 vvcurveto
          hintmask 0110111110000000
          -62 10 -61 39 -39 vhcurveto
          -29 28 35 -13 44 hhcurveto
          44 35 13 29 28 hvcurveto
          hintmask 1001111110000000
          39 39 10 61 62 vvcurveto
          hintmask 0110111110000000
          -228 hmoveto
          72 13 66 60 58 13 -66 -72 -72 -13 -67 -58 -60 -13 67 72 vhcurveto
          80 -492 rmoveto
          18 -7 54 -1 24 8 376 683 rcurveline
          -18 7 -54 1 -23 -8 rrcurveto
          endchar
        </CharString>
        <CharString name="period">
          -259 4 98 hstem
          62 127 vstem
          62 53 rmoveto
          -75 callsubr
          endchar
        </CharString>
        <CharString name="periodcentered">
          -217 234 98 hstem
          87 120 vstem
          87 283 rmoveto
          -12 3 -25 6 -12 vhcurveto
          -7 12 23 -5 20 hhcurveto
          18 27 72 callgsubr
          5 0 callgsubr
          -5 12 vhcurveto
          7 -12 -26 5 -18 hhcurveto
          -20 -23 -5 -7 -12 25 callsubr
          endchar
        </CharString>
        <CharString name="plus">
          11 251 84 hstem
          220 90 vstem
          220 381 rmoveto
          -15 1 -18 -14 vvcurveto
          -15 -17 1 -14 hhcurveto
          -118 hlineto
          43 callsubr
          -12 -17 vvcurveto
          -16 1 -14 14 callgsubr
          118 68 callgsubr
          -15 -1 -17 -14 vvcurveto
          -129 vlineto
          -2 14 15 -1 80 callgsubr
          16 1 2 13 hvcurveto
          129 vlineto
          14 -1 17 15 vvcurveto
          14 18 78 callsubr
          118 hlineto
          23 callsubr
          14 16 vvcurveto
          17 -1 11 19 callgsubr
          -118 hlineto
          -14 -18 -1 -14 hhcurveto
          14 1 18 15 vvcurveto
          128 vlineto
          2 -13 -16 1 -16 hhcurveto
          -17 -14 -1 -2 -14 hvcurveto
          endchar
        </CharString>
        <CharString name="plusminus">
          11 0 82 220 81 hstem
          221 89 vstem
          221 429 rmoveto
          -14 1 -19 -14 vvcurveto
          -15 -17 1 -14 hhcurveto
          -109 22 callsubr
          -10 -16 vvcurveto
          -16 1 -11 3 -14 vhcurveto
          109 68 callgsubr
          -14 -1 -20 -13 vvcurveto
          -108 47 callsubr
          15 61 callsubr
          16 16 -40 callsubr
          108 vlineto
          13 -1 20 57 callgsubr
          17 78 callsubr
          109 hlineto
          3 14 1 11 16 vvcurveto
          16 -1 10 19 callgsubr
          -109 hlineto
          -14 -17 -1 -14 hhcurveto
          14 1 19 14 vvcurveto
          107 vlineto
          3 -13 -16 1 -16 hhcurveto
          -16 -15 54 callgsubr
          242 -536 rmoveto
          3 14 1 12 15 vvcurveto
          17 -1 9 -3 15 vhcurveto
          -396 hlineto
          -3 -15 -1 -9 -17 vvcurveto
          -15 1 -12 3 -14 vhcurveto
          endchar
        </CharString>
        <CharString name="q">
          9 49 callgsubr
          76 callsubr
          209 95 hintmask 00000000
          hintmask 10101110
          353 -153 rmoveto
          -43 11 -19 41 vhcurveto
          36 hlineto
          7 6 rlineto
          562 vlineto
          39 5 38 23 20 vhcurveto
          -6 18 -16 23 -16 9 rrcurveto
          hintmask 01110110
          -31 -7 -20 -16 -14 -22 rrcurveto
          28 -32 -43 23 -62 hhcurveto
          -93 -97 -82 -179 -152 58 -102 115 54 47 25 30 33 hvcurveto
          -116 27 rmoveto
          -49 -44 50 122 125 48 57 58 35 37 -18 -27 31 hvcurveto
          -11 vlineto
          -238 vlineto
          -36 -30 -43 -24 -43 hhcurveto
          endchar
        </CharString>
        <CharString name="q.smcp">
          69 -102 71 18 76 418 77 hstemhm
          41 103 299 103 hintmask 00000000
          hintmask 01111000
          41 272 rmoveto
          -20 callgsubr
          48 -19 72 hhcurveto
          10 10 2 2 8 hvcurveto
          hintmask 11111000
          87 -66 rlineto
          -21 25 23 -6 21 hhcurveto
          36 34 23 48 1 hvcurveto
          -29 1 -33 5 -59 43 -8 5 rcurveline
          23 12 18 15 16 18 rrcurveto
          49 55 18 75 74 -63 callsubr
          hintmask 01111000
          -8 callsubr
          103 hmoveto
          -74 callgsubr
          endchar
        </CharString>
        <CharString name="question">
          -126 3 102 504 86 hstemhm
          92 109 -96 81 94 104 hintmask 00000000
          hintmask 11101000
          12 646 rmoveto
          2 -27 17 -32 17 -15 rrcurveto
          21 40 46 16 46 hhcurveto
          63 37 -37 -55 -60 -48 -42 -73 -38 hvcurveto
          hintmask 11011000
          -48 -24 -8 -11 5 -149 rlineto
          -4 12 14 -1 13 hhcurveto
          12 13 1 4 11 hvcurveto
          8 105 63 35 rlineto
          73 41 57 61 91 vvcurveto
          103 -72 66 -111 -69 -66 -20 -29 -54 vhcurveto
          134 -541 -11 callsubr
          4 23 14 vvcurveto
          13 -4 48 callsubr
        </CharString>
        <CharString name="questiondown">
          -126 -204 86 504 103 hstemhm
          11 104 79 109 -95 81 hintmask 00000000
          hintmask 11110000
          383 -154 rmoveto
          -2 27 -17 32 -17 15 rrcurveto
          -21 -40 -46 -17 -45 hhcurveto
          -63 -38 37 56 60 49 42 72 38 hvcurveto
          hintmask 11101000
          48 24 8 11 -5 149 rlineto
          4 -12 -14 1 -13 hhcurveto
          -12 -13 -1 -4 -11 hvcurveto
          -8 -105 -63 -35 rlineto
          -72 -41 -58 -61 -92 vvcurveto
          -102 72 -67 111 69 66 21 29 54 vhcurveto
          -134 540 rmoveto
          20 14 callsubr
          -20 hhcurveto
          -20 -22 -5 -7 82 callsubr
          -13 3 -24 5 -8 vhcurveto
          -8 13 22 -5 20 hhcurveto
          endchar
        </CharString>
        <CharString name="quotedbl">
          -137 74 callsubr
          48 112 63 112 hintmask 00000000
          hintmask 01010000
          223 702 rmoveto
          hintmask 10010000
          -52 callsubr
          hintmask 00000000
          -175 hmoveto
          hintmask 01100000
          -52 callsubr
          endchar
        </CharString>
        <CharString name="quotedblbase">
          -106 -9 108 hstemhm
          57 128 61 128 hintmask 11000000
          174 99 rmoveto
          -64 callgsubr
          hintmask 10100000
          189 hmoveto
          -64 callgsubr
          endchar
        </CharString>
        <CharString name="quotedblleft">
          -107 520 107 hstemhm
          42 128 61 128 hintmask 11000000
          53 520 rmoveto
          -65 callgsubr
          hintmask 10100000
          189 hmoveto
          -65 callgsubr
          endchar
        </CharString>
        <CharString name="quotedblright">
          -107 554 -20 105 107 hstemhm
          53 128 62 128 hintmask 11100000
          170 746 rmoveto
          -65 callsubr
          hintmask 11010000
          190 hmoveto
          -65 callsubr
          endchar
        </CharString>
        <CharString name="quoteleft">
          -296 520 107 hstem
          43 128 vstem
          54 520 rmoveto
          -65 callgsubr
          endchar
        </CharString>
        <CharString name="quoteright">
          -296 554 -20 105 107 hstem
          52 128 vstem
          169 746 rmoveto
          -65 callsubr
          endchar
        </CharString>
        <CharString name="quotesinglbase">
          -295 -9 108 hstem
          57 128 vstem
          174 99 rmoveto
          -64 callgsubr
          endchar
        </CharString>
        <CharString name="quotesingle">
          -312 74 callsubr
          44 112 hintmask 00000000
          hintmask 01100000
          44 702 rmoveto
          hintmask 10100000
          -52 callsubr
          endchar
        </CharString>
        <CharString name="r">
          -154 407 93 hstem
          89 97 vstem
          -46 callgsubr
          endchar
        </CharString>
        <CharString name="r.smcp">
          49 callsubr
          93 callgsubr
          202 103 vstem
          -99 callsubr
          endchar
        </CharString>
        <CharString name="racute">
          -154 2 0 114 194 endchar
        </CharString>
        <CharString name="racute.smcp">
          49 callsubr
          41 13 callsubr
          86 98 13 212 -23 103 hintmask 11010100
          -99 callsubr
          hintmask 00101000
          13 336 -98 callsubr
        </CharString>
        <CharString name="rcaron">
          -154 2 0 114 207 endchar
        </CharString>
        <CharString name="rcaron.smcp">
          49 callsubr
          54 57 callsubr
          86 98 -55 287 -30 103 hintmask 11010100
          -99 callsubr
          hintmask 00101000
          -8 483 -99 callgsubr
        </CharString>
        <CharString name="rcommaaccent">
          -154 -25 callsubr
          461 93 hstemhm
          89 97 -79 93 hintmask 00011000
          -46 callgsubr
          hintmask 11100100
          138 -506 -93 callsubr
        </CharString>
        <CharString name="rcommaaccent.smcp">
          25 -25 callsubr
          270 78 179 75 hstemhm
          86 98 62 93 47 103 hintmask 00011101
          -99 callsubr
          hintmask 11100010
          146 -351 -93 callsubr
        </CharString>
        <CharString name="registered">
          73 222 60 170 47 68 45 71 60 hstem
          35 66 98 59 78 61 93 66 vstem
          35 482 rmoveto
          -146 115 -114 145 146 115 114 146 146 -115 115 -146 -145 -115 -115 -146 vhcurveto
          66 hmoveto
          111 84 90 110 112 83 -90 -111 -110 -83 -90 -112 -110 -84 90 110 vhcurveto
          296 55 rmoveto
          45 -30 30 -65 -30 -38 -1 -1 -32 vhcurveto
          -3 -3 rlineto
          -247 vlineto
          17 -5 25 0 17 5 rrcurveto
          92 24 vlineto
          16 8 -7 -12 7 hvcurveto
          25 -47 rlineto
          -20 9 10 -11 18 hhcurveto
          17 15 10 12 8 hvcurveto
          -9 6 -7 11 -6 11 -14 27 rcurveline
          -8 15 -8 17 -17 7 rrcurveto
          25 8 26 21 37 vvcurveto
          -139 30 rmoveto
          40 hlineto
          26 12 -16 -18 -18 -12 -16 -29 hvcurveto
          -37 hlineto
          endchar
        </CharString>
        <CharString name="ring">
          538 59 callgsubr
          650 -67 callsubr
        </CharString>
        <CharString name="ring.cap">
          668 59 callgsubr
          780 -21 callgsubr
        </CharString>
        <CharString name="s">
          68 callsubr
          hstem
          50 98 151 100 vstem
          -82 callgsubr
          endchar
        </CharString>
        <CharString name="s.smcp">
          -26 60 callsubr
          hstem
          44 103 209 105 vstem
          -94 callgsubr
          endchar
        </CharString>
        <CharString name="sacute">
          68 callsubr
          43 callgsubr
          50 98 -1 212 -60 100 hintmask 11010100
          -82 callgsubr
          hintmask 00101000
          115 540 -98 callsubr
        </CharString>
        <CharString name="sacute.smcp">
          -26 60 callsubr
          43 callgsubr
          44 103 25 212 -28 105 hintmask 11010100
          -94 callgsubr
          hintmask 00101000
          143 584 -98 callsubr
        </CharString>
        <CharString name="scaron">
          68 callsubr
          44 57 callsubr
          50 98 -70 287 -66 100 hintmask 11010100
          -82 callgsubr
          hintmask 00101000
          93 687 -99 callgsubr
        </CharString>
        <CharString name="scaron.smcp">
          -26 60 callsubr
          44 57 callsubr
          44 103 -44 287 -34 105 hintmask 11010100
          -94 callgsubr
          hintmask 00101000
          121 731 -99 callgsubr
        </CharString>
        <CharString name="section">
          -35 -107 75 37 -20 636 75 -35 -20 hstemhm
          32 97 -59 98 149 98 -59 96 hintmask 00000000
          hintmask 11011001
          452 303 rmoveto
          90 -76 42 -84 34 vhcurveto
          hintmask 11100101
          -59 23 rlineto
          -41 17 -24 19 31 vvcurveto
          38 33 24 46 45 47 -16 -15 34 vhcurveto
          hintmask 11011001
          17 15 12 31 -1 25 rrcurveto
          hintmask 11100101
          19 -41 -61 16 -53 hhcurveto
          -99 -77 -58 -86 -54 28 -37 41 -27 hvcurveto
          hintmask 11011010
          -60 -33 -47 -52 -63 vvcurveto
          -89 77 -43 84 -33 vhcurveto
          59 -24 rlineto
          41 -16 24 -20 -31 vvcurveto
          -38 -33 -24 -51 -55 -47 20 17 -32 vhcurveto
          -17 -13 -16 -32 1 -25 rrcurveto
          -26 41 66 -16 57 hhcurveto
          108 76 58 86 53 -29 38 -41 27 hvcurveto
          hintmask 11011001
          60 32 47 52 64 vvcurveto
          -201 80 rmoveto
          55 -21 50 -26 -47 vvcurveto
          -45 -37 -34 -43 -20 vhcurveto
          -42 16 rlineto
          -56 22 -49 25 47 vvcurveto
          45 36 34 43 21 vhcurveto
          endchar
        </CharString>
        <CharString name="semicolon">
          -250 -159 273 222 98 hstemhm
          67 127 -118 127 hintmask 10010000
          193 -37 callgsubr
          hintmask 01100000
          -126 284 rmoveto
          -75 callsubr
          endchar
        </CharString>
        <CharString name="seven">
          11 563 85 hstem
          156 100 vstem
          70 648 rmoveto
          -5 -16 -3 -17 -18 vvcurveto
          -11 1 -12 3 -11 vhcurveto
          165 hlineto
          26 102 3 6 27 hvcurveto
          3 -4 -12 -14 -26 -30 -17 -26 rlinecurve
          -11 -16 -83 -120 -65 -144 -17 -178 rlinecurve
          -4 -40 rlineto
          -3 14 19 -2 17 hhcurveto
          19 19 2 3 13 hvcurveto
          3 35 19 192 61 128 96 142 rlinecurve
          33 48 rlineto
          11 15 5 14 13 vvcurveto
          17 -9 25 -10 19 vhcurveto
          endchar
        </CharString>
        <CharString name="seven.smcp">
          -37 462 83 hstemhm
          54 387 -301 98 hintmask 00000000
          hintmask 11000000
          63 545 rmoveto
          -6 -15 -3 -17 -17 vvcurveto
          -12 2 -13 3 -9 vhcurveto
          148 hlineto
          26 89 2 5 25 hvcurveto
          3 -3 -10 -9 -14 -17 -8 -10 rlinecurve
          -13 -16 rlineto
          hintmask 10100000
          -95 -121 -56 -119 -13 -158 -1 -16 rcurveline
          -4 13 20 90 callsubr
          19 17 1 4 12 hvcurveto
          1 17 10 157 53 103 81 111 rlinecurve
          43 60 rlineto
          11 14 4 10 13 vvcurveto
          15 -9 26 -10 19 vhcurveto
          endchar
        </CharString>
        <CharString name="six">
          11 -13 76 287 82 150 79 hstem
          52 102 230 100 vstem
          272 -13 rmoveto
          124 88 93 136 147 -74 69 -109 -57 -52 -24 -35 -38 hvcurveto
          117 4 45 92 110 hhcurveto
          44 33 -11 -11 25 hvcurveto
          20 15 13 29 2 25 rrcurveto
          20 -34 -52 12 -56 hhcurveto
          -168 -88 -131 -202 -200 53 -56 18 -22 hvcurveto
          -22 18 45 -41 86 hhcurveto
          5 363 rmoveto
          61 46 -34 -107 -88 -39 -58 -72 -34 -25 16 22 -17 hvcurveto
          -33 42 -10 78 54 vvcurveto
          16 vlineto
          36 34 47 23 42 hhcurveto
          endchar
        </CharString>
        <CharString name="six.smcp">
          -37 -13 73 218 76 128 76 hstem
          49 99 193 98 vstem
          248 -13 rmoveto
          112 79 77 113 112 -59 65 -104 -50 -44 -18 -27 -34 hvcurveto
          101 3 34 72 100 hhcurveto
          38 31 -8 -8 22 hvcurveto
          18 15 13 24 3 26 rrcurveto
          17 -31 -51 10 -47 hhcurveto
          -152 -80 -107 -170 -94 13 -94 54 -56 hvcurveto
          -31 30 43 -19 59 hhcurveto
          4 291 rmoveto
          52 37 -30 -79 -67 -33 -42 -60 -30 -21 13 16 -14 hvcurveto
          -27 33 -8 58 44 vvcurveto
          11 vlineto
          25 30 40 18 34 hhcurveto
          endchar
        </CharString>
        <CharString name="slash">
          -100 -110 870 hstem
          8 400 vstem
          8 -78 rmoveto
          24 -19 32 -11 28 -2 316 839 rcurveline
          -23 18 -34 11 -27 2 rrcurveto
          endchar
        </CharString>
        <CharString name="space">
          -299 endchar
        </CharString>
        <CharString name="sterling">
          9 -1 84 186 74 235 83 hstemhm
          77 98 -40 92 hintmask 00000000
          hintmask 11101000
          227 263 rmoveto
          7 vlineto
          -1 57 56 0 57 hhcurveto
          6 22 0 31 -6 21 rrcurveto
          hintmask 11110000
          -70 -61 -1 -54 hhcurveto
          -15 46 -22 42 48 vvcurveto
          64 47 36 59 42 55 -20 -35 42 vhcurveto
          26 8 22 31 3 26 rrcurveto
          33 -37 -70 40 -90 hhcurveto
          -136 -61 -95 -83 -52 24 -44 17 -45 hvcurveto
          hintmask 11101000
          -20 -20 1 -19 hhcurveto
          -7 -23 0 -30 7 -21 rrcurveto
          76 -4 hlineto
          -55 -27 -46 -22 -33 vhcurveto
          -17 -25 rlineto
          -10 -14 -3 -14 -15 vvcurveto
          -10 1 -10 12 -44 vhcurveto
          354 hlineto
          35 24 16 32 5 4 callsubr
          10 13 vvcurveto
          -192 hlineto
          -62 -37 -3 -2 -36 hvcurveto
          -3 3 rlineto
          28 39 40 72 71 vvcurveto
          endchar
        </CharString>
        <CharString name="sterling.smcp">
          -50 -1 81 149 69 180 80 -62 -20 hstemhm
          70 95 -45 90 hintmask 00000000
          hintmask 11100100
          210 227 rmoveto
          3 vlineto
          -1 48 48 0 50 hhcurveto
          6 20 0 30 -6 19 rrcurveto
          hintmask 11101000
          -62 -54 -1 -46 hhcurveto
          -13 34 -16 35 34 vvcurveto
          49 38 29 48 39 46 -17 -27 36 vhcurveto
          hintmask 11011000
          24 10 21 28 4 24 rrcurveto
          hintmask 11101000
          30 -34 -62 32 -80 hhcurveto
          -117 -58 -78 -74 -40 17 -36 14 -33 hvcurveto
          hintmask 11100100
          -15 -16 -13 callgsubr
          -6 -20 0 -30 6 -19 rrcurveto
          65 hlineto
          -42 -20 -32 -21 -33 vhcurveto
          -14 -21 rlineto
          -9 -15 -3 -13 -13 vvcurveto
          -12 2 -12 10 -37 vhcurveto
          303 hlineto
          36 23 71 callsubr
          3 13 -1 10 11 vvcurveto
          -155 hlineto
          -60 -36 -2 -2 -28 hvcurveto
          -3 2 rlineto
          26 36 32 59 54 vvcurveto
          endchar
        </CharString>
        <CharString name="t">
          -171 -4 77 349 71 hstem
          99 94 vstem
          -56 callgsubr
          endchar
        </CharString>
        <CharString name="t.smcp">
          -84 463 82 hstem
          171 99 vstem
          -45 callsubr
          endchar
        </CharString>
        <CharString name="tcaron">
          -160 -4 77 349 71 64 8 198 16 hstemhm
          99 94 63 104 hintmask 11001000
          -56 callgsubr
          hintmask 00110100
          -62 71 -19 callsubr
        </CharString>
        <CharString name="tcaron.smcp">
          -84 463 82 57 57 callsubr
          80 287 -196 99 hintmask 10010000
          -45 callsubr
          hintmask 01100000
          -44 371 -99 callgsubr
        </CharString>
        <CharString name="thorn">
          8 49 callgsubr
          79 350 81 hstemhm
          80 94 209 70 callgsubr
          hintmask 01111100
          482 255 rmoveto
          144 -61 102 -110 -56 -48 -24 -34 -33 vhcurveto
          230 vlineto
          27 callsubr
          -35 4 callgsubr
          -938 vlineto
          7 -6 rlineto
          hintmask 10111100
          35 63 callsubr
          36 40 -14 43 hhcurveto
          hintmask 01111100
          89 100 78 186 hvcurveto
          -193 165 rmoveto
          50 44 -48 -121 -125 -48 -56 -57 -36 -36 17 21 -32 hvcurveto
          245 vlineto
          45 31 45 22 39 hhcurveto
          endchar
        </CharString>
        <CharString name="thorn.smcp">
          -7 105 76 203 161 93 callgsubr
          194 102 vstem
          86 hmoveto
          -3 14 20 78 callsubr
          17 29 callgsubr
          105 89 vlineto
          121 86 59 119 120 -87 58 -120 -30 -30 -1 -1 -29 hvcurveto
          86 62 callsubr
          -18 1 -17 hhcurveto
          -14 -20 -11 callgsubr
          183 -161 rmoveto
          88 21 -55 -46 -46 -21 -56 -88 hvcurveto
          -85 204 hlineto
          -1 32 34 0 19 hhcurveto
          endchar
        </CharString>
        <CharString name="three">
          11 -13 80 259 67 170 85 hstem
          371 102 vstem
          429 541 rmoveto
          15 16 5 14 15 vvcurveto
          19 -11 25 -10 18 vhcurveto
          -347 hlineto
          -7 -17 -2 -17 -15 vvcurveto
          -9 1 -13 5 -14 vhcurveto
          144 hlineto
          36 58 4 5 23 hvcurveto
          4 -4 -18 -15 -36 -35 -14 -16 rlinecurve
          -129 -140 6 -22 16 -23 18 -8 rlinecurve
          11 20 27 6 22 hhcurveto
          71 45 -43 -76 -93 -60 -47 -76 -56 -46 21 30 -40 hvcurveto
          -20 -15 -18 -28 -5 -23 rrcurveto
          -37 44 69 -28 84 hhcurveto
          110 116 70 146 128 -87 60 -103 2 hvcurveto
          14 10 12 11 11 11 rrcurveto
          endchar
        </CharString>
        <CharString name="three.smcp">
          -37 -13 79 201 65 132 81 hstem
          328 101 vstem
          387 444 rmoveto
          13 13 6 13 14 vvcurveto
          17 -11 26 -10 18 vhcurveto
          -314 hlineto
          -7 -16 -2 -17 -13 vvcurveto
          -9 1 -11 5 -15 vhcurveto
          125 hlineto
          29 55 3 4 21 hvcurveto
          3 -4 -14 -11 -28 -24 -14 -13 rlinecurve
          -114 -112 rlineto
          -2 -1 hlineto
          7 -19 17 -24 17 -9 rrcurveto
          8 18 22 5 20 hhcurveto
          62 36 -38 -55 -70 -51 -38 -64 -47 -42 17 25 -36 hvcurveto
          -21 -15 -16 -29 -5 -22 rrcurveto
          -31 41 63 -24 74 hhcurveto
          101 104 63 122 99 -76 60 -85 1 hvcurveto
          12 9 13 10 11 11 rrcurveto
          endchar
        </CharString>
        <CharString name="threequarters">
          413 0 -20 101 71 105 68 144 54 92 70 hstemhm
          253 472 -464 87 396 80 hintmask 10000100
          253 hmoveto
          -32 callgsubr
          hintmask 00111010
          -314 -78 -63 callgsubr
          hintmask 01000001
          489 -543 -85 callsubr
        </CharString>
        <CharString name="threesuperior">
          -99 337 68 144 54 92 70 hstem
          262 87 vstem
          316 685 -63 callgsubr
          endchar
        </CharString>
        <CharString name="tilde">
          556 82 -30 82 hstemhm
          24 350 64 callsubr
          211 571 -79 callsubr
        </CharString>
        <CharString name="tilde.cap">
          741 81 -30 81 hstemhm
          21 356 64 callsubr
          211 756 -64 callsubr
          hintmask 01100000
          -69 callsubr
        </CharString>
        <CharString name="two">
          11 0 86 494 81 hstem
          357 100 vstem
          473 86 rmoveto
          -189 hlineto
          -30 -52 -2 -5 -48 hvcurveto
          8 28 38 44 55 47 77 67 rcurveline
          66 56 59 55 100 vvcurveto
          108 -74 77 -118 -102 -71 -67 -76 -29 vhcurveto
          13 -22 33 -10 24 -2 rrcurveto
          54 23 44 42 56 hhcurveto
          58 43 -40 -63 -56 -29 -41 -49 -42 hvcurveto
          -97 -85 rlineto
          -66 -56 -60 -71 -64 vvcurveto
          -21 25 -28 15 -13 vhcurveto
          312 hlineto
          39 19 17 31 5 4 callsubr
          13 12 vvcurveto
          endchar
        </CharString>
        <CharString name="two.smcp">
          -37 -1 84 393 82 hstem
          314 100 vstem
          429 83 rmoveto
          -160 hlineto
          -28 -45 -2 -6 -44 hvcurveto
          7 23 32 33 43 33 71 57 rcurveline
          56 45 53 52 77 vvcurveto
          91 -68 72 -108 -90 -65 -60 -66 -25 vhcurveto
          13 -19 29 -14 27 -2 rrcurveto
          42 21 36 37 48 hhcurveto
          48 34 -35 -46 -39 -24 -34 -40 -32 hvcurveto
          -88 -72 rlineto
          -58 -48 -53 -63 -49 vvcurveto
          -20 24 -28 14 -11 vhcurveto
          276 hlineto
          38 19 71 callsubr
          2 11 0 16 10 vvcurveto
          endchar
        </CharString>
        <CharString name="twosuperior">
          -99 341 75 282 74 hstem
          252 88 vstem
          351 416 -56 callsubr
        </CharString>
        <CharString name="u">
          40 callgsubr
          hstemhm
          76 96 197 96 hintmask 00000000
          hintmask 11011000
          -41 callsubr
          hintmask 10111000
          -57 callgsubr
          endchar
        </CharString>
        <CharString name="u.smcp">
          12 callgsubr
          hstemhm
          76 99 254 70 callgsubr
          hintmask 11110000
          -94 callsubr
          endchar
        </CharString>
        <CharString name="uacute">
          40 callgsubr
          64 13 callsubr
          76 96 23 212 -38 96 hintmask 00000000
          hintmask 11001010
          -41 callsubr
          hintmask 10101010
          -57 callgsubr
          hintmask 00010100
          119 187 -98 callsubr
        </CharString>
        <CharString name="uacute.smcp">
          48 callgsubr
          52 212 -10 -72 callsubr
          -301 436 -98 callsubr
        </CharString>
        <CharString name="ucircumflex">
          28 69 0 117 195 endchar
        </CharString>
        <CharString name="ucircumflex.smcp">
          12 callgsubr
          67 92 callgsubr
          76 99 -20 287 -13 -72 callsubr
          -134 405 -90 callgsubr
        </CharString>
        <CharString name="udieresis">
          40 callgsubr
          100 76 hstemhm
          76 96 -50 73 callgsubr
          -38 96 hintmask 00000000
          hintmask 11001001
          -41 callsubr
          hintmask 10101001
          -57 callgsubr
          hintmask 00010110
          230 221 -107 callgsubr
        </CharString>
        <CharString name="udieresis.smcp">
          12 callgsubr
          100 76 hstemhm
          76 99 -22 73 callgsubr
          -9 70 callgsubr
          hintmask 11010010
          -94 callsubr
          hintmask 00101100
          -191 470 -107 callgsubr
        </CharString>
        <CharString name="ugrave">
          28 72 0 117 193 endchar
        </CharString>
        <CharString name="ugrave.smcp">
          48 callgsubr
          -7 212 49 -72 callsubr
          -290 594 -66 callgsubr
        </CharString>
        <CharString name="underscore">
          6 -152 76 hstem
          -4 534 vstem
          526 -152 rmoveto
          2 11 2 10 16 vvcurveto
          17 -2 10 -2 12 vhcurveto
          -526 hlineto
          -3 -12 -1 -14 -13 vvcurveto
          -12 1 -14 3 -11 vhcurveto
          endchar
        </CharString>
        <CharString name="uni00AD">
          -27 callsubr
        </CharString>
        <CharString name="uring">
          28 69 0 117 202 endchar
        </CharString>
        <CharString name="uring.smcp">
          12 callgsubr
          65 87 callgsubr
          76 99 6 68 100 68 12 70 callgsubr
          hintmask 11001001
          -94 callsubr
          hintmask 00110110
          -347 509 -67 callsubr
        </CharString>
        <CharString name="v">
          -66 -5 84 418 -20 23 -20 hstemhm
          7 438 86 callgsubr
          235 79 rmoveto
          -6 -2 1 7 -2 hvcurveto
          -7 31 -17 67 -16 51 -70 224 rcurveline
          30 -8 -17 10 -27 hhcurveto
          -16 -18 -4 -10 -22 hvcurveto
          141 -436 rlineto
          -48 15 17 -7 38 hhcurveto
          23 26 1 4 21 hvcurveto
          hintmask 11010000
          38 109 71 222 48 155 -3 4 rcurveline
          5 -15 -17 2 -17 hhcurveto
          -11 -13 0 -4 -13 hvcurveto
          endchar
        </CharString>
        <CharString name="v.smcp">
          -11 -5 87 455 12 2 -20 hstemhm
          15 483 86 callgsubr
          265 82 rmoveto
          -4 -2 0 7 -2 hvcurveto
          -12 50 -17 58 -13 42 -87 265 rcurveline
          37 -11 -17 10 -26 hhcurveto
          -21 -20 -5 -7 -18 hvcurveto
          162 -498 rlineto
          -39 12 23 -7 33 hhcurveto
          25 28 1 3 22 hvcurveto
          hintmask 11010000
          178 538 -5 6 rlineto
          5 -15 -19 1 -13 hhcurveto
          -12 -13 -11 callgsubr
          endchar
        </CharString>
        <CharString name="w">
          199 -5 77 330 89 -6 12 3 -20 hstemhm
          25 672 hintmask 00000000
          hintmask 10011000
          129 50 rmoveto
          -47 11 23 -8 32 hhcurveto
          24 33 2 3 22 hvcurveto
          42 193 rlineto
          hintmask 11001000
          11 53 18 85 13 71 rrcurveto
          5 hlineto
          40 -210 30 -143 rlineto
          -47 9 23 -7 37 hhcurveto
          23 31 1 3 19 hvcurveto
          hintmask 10101000
          122 486 -3 5 rlineto
          5 -12 -20 2 -16 hhcurveto
          -14 -17 -1 -3 -11 hvcurveto
          -55 -245 -14 -59 -11 -57 -13 -60 rlinecurve
          -5 -1 1 8 -2 hvcurveto
          hintmask 11001000
          -84 410 rlineto
          3 -14 -29 2 -15 hhcurveto
          -14 -29 -2 39 callgsubr
          -88 -419 rlineto
          -4 -2 1 8 -2 hvcurveto
          -7 38 -13 67 -13 62 -47 213 rcurveline
          29 -6 -15 10 -24 hhcurveto
          -17 -18 -3 -10 -22 hvcurveto
          endchar
        </CharString>
        <CharString name="w.smcp">
          244 -5 84 367 92 -1 11 3 -20 hstemhm
          30 709 hintmask 00000000
          hintmask 10011000
          140 42 rmoveto
          -40 9 25 -7 30 hhcurveto
          26 35 1 4 22 hvcurveto
          55 247 rlineto
          hintmask 11001000
          12 57 16 79 12 63 rrcurveto
          5 hlineto
          36 -199 43 -207 rlineto
          -38 7 24 -7 28 hhcurveto
          25 39 1 5 22 hvcurveto
          hintmask 10101000
          128 536 -5 5 rlineto
          5 -14 -17 1 -17 hhcurveto
          -14 -16 0 15 callgsubr
          -68 -308 -8 -40 -14 -69 -8 -49 rlinecurve
          -4 -2 1 9 -2 hvcurveto
          hintmask 11001000
          -88 449 rlineto
          2 -17 -27 2 -18 hhcurveto
          -19 -26 -2 -2 -18 hvcurveto
          -97 -459 rlineto
          -5 -1 1 9 -2 hvcurveto
          -7 39 -12 70 -8 38 -54 263 rcurveline
          38 -8 -11 14 -31 hhcurveto
          -18 -23 -4 -7 -16 hvcurveto
          endchar
        </CharString>
        <CharString name="x">
          -61 497 -20 24 -20 hstemhm
          16 427 64 callsubr
          332 493 rmoveto
          -98 -158 rlineto
          hintmask 01100000
          -89 137 rlineto
          19 -13 -12 10 -24 hhcurveto
          -21 -27 -9 -13 -19 hvcurveto
          145 -223 -158 -246 4 -7 rlineto
          -5 12 18 -3 19 hhcurveto
          14 18 1 3 9 hvcurveto
          112 182 104 -159 rlineto
          -19 12 14 -11 24 hhcurveto
          22 26 11 12 19 hvcurveto
          -162 247 141 221 -3 7 rlineto
          hintmask 10100000
          4 -11 -17 3 -20 hhcurveto
          -13 -18 -2 -2 -8 hvcurveto
          endchar
        </CharString>
        <CharString name="x.smcp">
          -4 9 -20 547 13 0 -20 22 -20 hstemhm
          12 491 hintmask 00000000
          hintmask 10101000
          386 545 rmoveto
          -121 -180 rlineto
          hintmask 10011000
          -100 147 rlineto
          27 -19 -16 12 -27 hhcurveto
          -19 -24 -5 -16 -24 hvcurveto
          164 -242 -188 -279 4 -5 rlineto
          -6 13 18 -3 20 hhcurveto
          14 18 2 3 10 hvcurveto
          142 213 123 -180 rlineto
          -28 18 18 -12 26 hhcurveto
          19 27 6 17 21 hvcurveto
          -188 275 rlineto
          hintmask 11001000
          166 245 -3 6 rlineto
          5 -13 -21 2 -16 hhcurveto
          hintmask 10101000
          -14 -17 -1 -3 -11 hvcurveto
          endchar
        </CharString>
        <CharString name="y">
          78 callgsubr
          hstemhm
          6 446 hintmask 00000000
          hintmask 11010000
          -21 callsubr
          hintmask 10110000
          -39 callgsubr
          endchar
        </CharString>
        <CharString name="y.smcp">
          -79 552 -20 hstem
          172 98 vstem
          -78 callsubr
          endchar
        </CharString>
        <CharString name="yacute">
          -55 33 0 121 194 endchar
        </CharString>
        <CharString name="yacute.smcp">
          -79 552 -20 57 13 callsubr
          151 212 -191 98 hintmask 10010000
          -78 callsubr
          hintmask 01100000
          -191 84 -98 callsubr
        </CharString>
        <CharString name="ydieresis">
          78 callgsubr
          93 76 hstemhm
          6 446 -367 73 callgsubr
          hintmask 00000000
          hintmask 11001000
          -21 callsubr
          hintmask 10101000
          -39 callgsubr
          hintmask 00010110
          -49 595 -107 callgsubr
        </CharString>
        <CharString name="ydieresis.smcp">
          -79 552 -20 93 76 hstemhm
          78 100 -6 98 -8 101 hintmask 10010000
          -78 callsubr
          hintmask 01101000
          -80 118 -107 callgsubr
        </CharString>
        <CharString name="yen">
          -7 174 67 81 68 268 -20 hstem
          207 96 vstem
          454 174 rmoveto
          23 callsubr
          5 16 vvcurveto
          16 -1 5 46 callsubr
          -147 hlineto
          37 81 rlineto
          110 hlineto
          3 13 1 5 15 vvcurveto
          17 -1 5 46 callsubr
          -80 hlineto
          114 254 -4 6 rlineto
          4 -17 -14 2 -17 hhcurveto
          -13 -14 -2 -4 -14 hvcurveto
          -91 -217 -14 -29 -17 -52 -11 -33 rlinecurve
          -6 hlineto
          -10 31 -19 55 -12 27 -77 188 rcurveline
          25 -11 -12 13 -26 hhcurveto
          -20 -19 -6 -13 -25 hvcurveto
          111 -249 rlineto
          -80 hlineto
          -3 -13 -2 -6 -16 vvcurveto
          -15 2 -5 81 callsubr
          110 hlineto
          36 -81 rlineto
          -146 hlineto
          -3 -13 -2 -6 -15 vvcurveto
          -16 2 -5 14 callgsubr
          151 -174 hlineto
          -3 14 19 -2 callgsubr
          16 17 -40 callgsubr
          174 vlineto
          endchar
        </CharString>
        <CharString name="yen.smcp">
          -60 139 63 65 63 223 -20 hstem
          182 93 vstem
          411 139 rmoveto
          3 13 1 5 6 callgsubr
          -1 7 -3 12 vhcurveto
          -131 hlineto
          30 65 rlineto
          101 hlineto
          23 callsubr
          6 13 vvcurveto
          12 -1 7 46 callsubr
          -71 hlineto
          99 210 -4 5 rlineto
          5 -18 -10 1 -16 hhcurveto
          -13 -16 -2 15 callgsubr
          -80 -181 -13 -28 -11 -30 -10 -33 rlinecurve
          -4 hlineto
          -9 28 -12 35 -12 29 -67 152 rcurveline
          22 -10 -13 13 -23 hhcurveto
          -21 -19 -7 -11 -23 hvcurveto
          96 -205 rlineto
          -72 hlineto
          -3 -12 -1 -8 -12 vvcurveto
          -14 1 -5 14 callgsubr
          101 hlineto
          31 -65 rlineto
          -132 hlineto
          -3 -12 -1 -8 36 callsubr
          1 -6 81 callsubr
          137 -139 hlineto
          -3 14 19 -1 14 -6 callsubr
          15 hvcurveto
          139 vlineto
          endchar
        </CharString>
        <CharString name="z">
          -73 0 76 341 76 hstem
          36 375 vstem
          -62 callgsubr
          endchar
        </CharString>
        <CharString name="z.smcp">
          41 callgsubr
          hstem
          42 418 vstem
          -97 callsubr
          endchar
        </CharString>
        <CharString name="zacute">
          -73 26 0 122 194 endchar
        </CharString>
        <CharString name="zacute.smcp">
          41 callgsubr
          44 13 callsubr
          42 418 -276 212 -87 callsubr
          -91 244 -98 callsubr
        </CharString>
        <CharString name="zcaron">
          -73 25 0 122 207 endchar
        </CharString>
        <CharString name="zcaron.smcp">
          41 callgsubr
          57 57 callsubr
          42 418 -345 287 -87 callsubr
          -113 391 -99 callgsubr
        </CharString>
        <CharString name="zdotaccent">
          -73 0 76 341 76 94 86 hstemhm
          36 375 -248 114 hintmask 11010000
          -62 callgsubr
          hintmask 00101000
          -57 307 -95 callgsubr
        </CharString>
        <CharString name="zdotaccent.smcp">
          41 callgsubr
          94 86 hstemhm
          42 418 -265 114 -87 callsubr
          -80 297 -95 callgsubr
        </CharString>
        <CharString name="zero">
          11 -13 77 520 77 hstem
          48 102 230 102 vstem
          48 324 rmoveto
          -127 13 -88 60 -65 vhcurveto
          -35 35 42 -22 67 hhcurveto
          68 41 22 35 35 hvcurveto
          60 65 13 88 127 vvcurveto
          127 -13 88 -60 65 vhcurveto
          35 -35 -41 22 -67 hhcurveto
          -68 -43 -22 -35 -34 hvcurveto
          -61 -65 -12 -88 -127 vvcurveto
          102 hmoveto
          119 11 68 30 38 vhcurveto
          23 17 25 12 32 hhcurveto
          33 24 -12 -23 17 hvcurveto
          30 -38 11 -68 -119 vvcurveto
          -118 -11 -69 -30 -38 vhcurveto
          -23 -17 -24 -12 -33 hhcurveto
          -32 -25 12 23 -17 hvcurveto
          -30 38 -11 69 118 vvcurveto
          endchar
        </CharString>
        <CharString name="zero.smcp">
          -37 -13 75 422 74 hstem
          45 100 193 99 vstem
          45 272 rmoveto
          -96 10 -87 55 -52 vhcurveto
          -30 31 38 -20 62 hhcurveto
          63 37 20 30 31 hvcurveto
          55 52 10 87 96 vvcurveto
          98 -10 87 -55 52 vhcurveto
          30 -31 -37 19 -62 hhcurveto
          -63 -39 -19 -29 -30 hvcurveto
          -56 -52 -9 -88 -98 vvcurveto
          100 hmoveto
          94 8 63 26 28 vhcurveto
          17 14 20 10 28 hhcurveto
          29 20 -10 -17 14 hvcurveto
          25 -28 9 -63 -94 vvcurveto
          -93 -9 -62 -25 -28 vhcurveto
          -17 -14 -20 -10 -29 hhcurveto
          -28 -20 10 17 -14 hvcurveto
          -26 28 -8 62 93 vvcurveto
          endchar
        </CharString>
      <CharString index="0">
        rmoveto
        -12 3 -15 5 47 callgsubr
        10 21 -5 15 3 callgsubr
        72 callgsubr
        4 -74 callsubr
        -4 -16 callgsubr
        -11 -20 4 2 callsubr
        -20 -4 -7 -11 hvcurveto
        -5 -14 callgsubr
        -184 hmoveto
        -12 3 -15 4 5 callgsubr
        20 -5 16 3 callgsubr
        9 callgsubr
        -74 callsubr
        13 callgsubr
        -11 -19 4 2 callsubr
        -14 callsubr
        -4 -14 callgsubr
        endchar
      </CharString>
      <CharString index="1">
        rmoveto
        -20 -16 -5 10 callgsubr
        -7 -48 callgsubr
        7 -49 callgsubr
        18 18 4 17 callsubr
        6 -49 callsubr
        -6 13 vhcurveto
        6 -11 -18 5 -18 hhcurveto
        -208 hmoveto
        -20 -16 -5 71 callgsubr
        -48 callgsubr
        6 -49 callgsubr
        19 17 4 17 callsubr
        7 -49 callsubr
        -7 13 vhcurveto
        6 -11 -17 18 callgsubr
        endchar
      </CharString>
      <CharString index="2">
        -82 callsubr
        677 rlineto
        3 -13 -27 -45 callgsubr
        -15 hvcurveto
        -227 -676 3 -5 rlineto
        -61 callgsubr
        -89 callgsubr
        return
      </CharString>
      <CharString index="3">
        241 81 rmoveto
        -25 -17 -36 callsubr
        56 vlineto
        161 hlineto
        4 12 -20 callsubr
        12 91 callgsubr
        hlineto
        -13 -22 -47 callgsubr
        14 hhcurveto
        206 hlineto
        5 14 -72 callgsubr
        259 -32 callsubr
        15 8 vvcurveto
        return
      </CharString>
      <CharString index="4">
        hintmask 11101000
        -105 callgsubr
        return
      </CharString>
      <CharString index="5">
        hintmask 11101000
        -107 callsubr
        return
      </CharString>
      <CharString index="6">
        144 272 rmoveto
        -74 callgsubr
        -103 hmoveto
        -20 callgsubr
        46 -19 71 hhcurveto
        73 45 19 29 38 hvcurveto
        70 55 27 96 86 -63 callsubr
        -8 callsubr
        return
      </CharString>
      <CharString index="7">
        rmoveto
        -14 3 -18 5 5 callgsubr
        23 -5 19 hhcurveto
        17 26 9 callgsubr
        11 3 18 57 callgsubr
        -3 18 13 callgsubr
        -10 -26 5 -17 hhcurveto
        -19 -22 -5 -7 -12 36 callgsubr
        -18 -14 vvcurveto
        return
      </CharString>
      <CharString index="8">
        rmoveto
        -16 -5 -21 -18 -10 -21 98 -126 rcurveline
        23 -5 38 -2 21 8 107 134 rcurveline
        -11 20 -17 14 -17 7 -101 -98 rcurveline
        endchar
      </CharString>
      <CharString index="9">
        458 43 rmoveto
        -23 20 -5 29 -84 callgsubr
        65 51 35 35 36 hvcurveto
        12 -31 23 -25 41 -9 callsubr
        -246 22 -53 callsubr
        return
      </CharString>
      <CharString index="10">
        62 108 rmoveto
        -9 -15 -4 -16 -13 vvcurveto
        -11 1 -9 12 -44 vhcurveto
        379 hlineto
        48 22 20 36 26 callgsubr
        hvcurveto
        -12 -26 -39 -6 -53 hhcurveto
        -110 hlineto
        -30 -45 -2 -4 -42 hvcurveto
        -3 3 26 34 30 42 22 33 rlinecurve
        255 384 rlineto
        10 15 4 13 13 vvcurveto
        10 -2 11 -13 44 vhcurveto
        -409 hlineto
        -5 -17 -2 -16 -18 vvcurveto
        -11 9 callsubr
        163 hlineto
        29 96 2 6 31 hvcurveto
        3 -3 -29 -38 -28 -38 -21 -31 rlinecurve
        return
      </CharString>
      <CharString index="11">
        528 549 rmoveto
        -35 hlineto
        -40 -14 -15 -43 hvcurveto
        -188 vlineto
        -43 6 -96 4 -52 vhcurveto
        -5 -1 -16 31 -26 54 -19 31 rlinecurve
        -184 318 rlineto
        3 -15 -28 1 -14 hhcurveto
        -11 -29 -2 -3 -16 hvcurveto
        -544 vlineto
        -3 16 19 -1 11 hhcurveto
        14 16 1 3 17 hvcurveto
        240 vlineto
        37 -3 92 -3 58 vhcurveto
        3 1 17 -31 24 -50 18 -30 rlinecurve
        184 -317 rlineto
        -3 15 30 -1 12 hhcurveto
        13 28 90 callgsubr
        542 vlineto
        return
      </CharString>
      <CharString index="12">
        -100 callgsubr
        endchar
      </CharString>
      <CharString index="13">
        29 45 rmoveto
        -101 callsubr
        return
      </CharString>
      <CharString index="14">
        106 hintmask 11010100
        -104 callsubr
        return
      </CharString>
      <CharString index="15">
        -56 27 -38 callsubr
        -28 -44 -19 hvcurveto
        -9 -20 -55 callsubr
        11 15 hhcurveto
        11 12 -5 -4 9 hvcurveto
        endchar
      </CharString>
      <CharString index="16">
        -43 callsubr
        47 20 hvcurveto
        9 19 -7 17 -21 13 -20 1 rlinecurve
        -11 -15 -55 callgsubr
        return
      </CharString>
      <CharString index="17">
        rmoveto
        16 5 22 16 10 22 -98 126 rcurveline
        -24 5 -38 2 -21 -7 -106 -134 rcurveline
        11 -20 17 -14 17 -7 100 97 rcurveline
        endchar
      </CharString>
      <CharString index="18">
        16 37 -1 8 hhcurveto
        27 276 -87 callgsubr
        return
      </CharString>
      <CharString index="19">
        hintmask 00000000
        hintmask 10010000
        187 -95 callsubr
        return
      </CharString>
      <CharString index="20">
        rmoveto
        11 34 17 61 10 44 rrcurveto
        6 hlineto
        13 -51 20 -69 19 -58 49 -155 rcurveline
        -16 -28 1 -7 hhcurveto
        -103 hlineto
        -8 -30 -1 -15 hhcurveto
        return
      </CharString>
      <CharString index="21">
        -218 427 rlineto
        3 -19 -28 1 -13 hhcurveto
        -12 -31 -2 -3 -17 hvcurveto
        -682 vlineto
        -3 17 17 -1 13 hhcurveto
        13 16 1 3 17 hvcurveto
        326 vlineto
        74 -4 97 -4 68 vhcurveto
        3 hlineto
        1 hlineto
        19 -43 21 -46 25 -49 219 -427 rcurveline
        -3 19 29 -1 12 hhcurveto
        13 31 2 3 17 hvcurveto
        681 vlineto
        return
      </CharString>
      <CharString index="22">
        94 hintmask 11010100
        -96 callgsubr
        return
      </CharString>
      <CharString index="23">
        39 vvcurveto
        205 vlineto
        113 -62 54 -100 -68 -82 -22 -24 -55 vhcurveto
        -50 callgsubr
        -41 vlineto
        5 -34 -36 2 -29 hhcurveto
        -110 -81 -52 -113 -71 48 -76 99 return
      </CharString>
      <CharString index="24">
        rmoveto
        15 5 21 16 7 22 -111 105 rcurveline
        -24 5 -39 0 -24 -5 -114 -111 rcurveline
        5 -20 22 -18 16 -6 114 82 rcurveline
        endchar
      </CharString>
      <CharString index="25">
        32 37 rmoveto
        -26 43 62 -24 73 hhcurveto
        111 78 56 91 76 -51 45 -75 29 hvcurveto
        -60 22 rlineto
        -43 17 -22 17 30 vvcurveto
        37 31 24 45 50 49 -17 -15 34 vhcurveto
        18 15 12 32 -1 25 rrcurveto
        19 -41 -67 16 -53 hhcurveto
        -99 -76 -55 -91 -75 59 -40 69 -26 hvcurveto
        56 -22 rlineto
        42 -16 23 -25 -30 vvcurveto
        -38 -1 -35 -28 -57 hhcurveto
        -48 -51 22 23 -42 hvcurveto
        -17 -15 -15 -31 -1 -22 rrcurveto
        return
      </CharString>
      <CharString index="26">
        rmoveto
        3 -21 14 -23 19 -9 40 18 31 21 23 30 rrcurveto
        -1 -23 -2 -24 -16 vvcurveto
        -168 vlineto
        -12 -24 1 -11 hhcurveto
        -55 hlineto
        -2 -11 -2 -13 36 callsubr
        2 -11 2 -13 vhcurveto
        266 hlineto
        23 callsubr
        12 12 vvcurveto
        12 -1 13 -3 11 vhcurveto
        -33 hlineto
        -11 -27 -1 -11 hhcurveto
        351 vlineto
        3 -16 -10 1 -12 hhcurveto
        -12 -15 54 callgsubr
        -26 -56 -36 -41 -69 -39 rrcurveto
        return
      </CharString>
      <CharString index="27">
        104 -13 76 331 78 152 75 hstem
        106 98 133 102 47 103 vstem
        106 -31 callsubr
        19 35 callsubr
        497 vlineto
        77 36 50 81 81 38 -59 -69 -12 -2 -13 -2 -12 vhcurveto
        -61 -23 -38 -47 -49 vvcurveto
        -40 24 -33 43 -37 vhcurveto
        40 -35 rlineto
        24 -21 18 -22 -27 vvcurveto
        -37 -35 -25 -49 -25 -34 8 15 -28 vhcurveto
        -18 -15 -14 -33 -1 -22 rrcurveto
        -19 38 51 -10 38 hhcurveto
        107 73 58 81 47 -30 43 -44 39 hvcurveto
        -37 33 rlineto
        -28 23 -11 18 18 vvcurveto
        26 23 34 61 15 vhcurveto
        -2 1 rlineto
        2 hlineto
        10 27 5 28 23 vvcurveto
        120 -85 78 -131 -127 -89 -68 -124 vhcurveto
        -36 vlineto
        -86 2 rlineto
        43 callsubr
        -14 -12 vvcurveto
        -13 1 -16 14 callgsubr
        86 2 rlineto
        endchar
      </CharString>
      <CharString index="28">
        89 hmoveto
        -3 14 22 -46 callsubr
        545 vlineto
        3 -16 -18 -13 callgsubr
        -14 -22 -11 callgsubr
        return
      </CharString>
      <CharString index="29">
        4 73 callsubr
        10 18 -3 80 callgsubr
        15 -40 callsubr
        44 126 rlineto
        14 34 -1 8 hhcurveto
        return
      </CharString>
      <CharString index="30">
        447 rmoveto
        -11 -27 -22 -59 -11 -39 rrcurveto
        -5 hlineto
        -12 39 -16 50 -14 34 -83 201 rcurveline
        30 -12 -14 14 -28 hhcurveto
        -19 -21 -5 -13 -23 hvcurveto
        190 -450 rlineto
        -222 vlineto
        -3 14 20 -33 callsubr
        220 vlineto
        190 454 -5 7 rlineto
        4 -14 -17 3 -17 hhcurveto
        -14 -15 -1 -4 -14 hvcurveto
        return
      </CharString>
      <CharString index="31">
        14 vhcurveto
        -192 hlineto
        -15 -24 -1 -23 hhcurveto
        148 vlineto
        26 -1 12 27 vvcurveto
        -1 23 return
      </CharString>
      <CharString index="32">
        464 451 rmoveto
        -41 callgsubr
        -178 69 -173 189 102 90 44 55 54 hvcurveto
        -54 callgsubr
        return
      </CharString>
      <CharString index="33">
        93 27 116 123 123 26 -116 -93 -92 -26 -117 -123 -123 -27 117 92 vhcurveto
        return
      </CharString>
      <CharString index="34">
        61 -48 50 -70 -70 -48 -50 -61 vhcurveto
        68 hmoveto
        31 21 -35 callgsubr
        -21 23 32 vhcurveto
        endchar
      </CharString>
      <CharString index="35">
        -29 callgsubr
        0 14 19 callgsubr
        -358 hlineto
        19 callsubr
        -482 vlineto
        -36 22 -23 35 vhcurveto
        return
      </CharString>
      <CharString index="36">
        99 hintmask 10101000
        -96 callsubr
        hintmask 01010000
        return
      </CharString>
      <CharString index="37">
        522 27 rmoveto
        -16 14 -13 25 -13 27 -51 112 rcurveline
        -22 48 -25 33 -53 10 13 11 12 14 11 17 132 199 rcurveline
        -7 8 rlineto
        2 -18 -26 1 -13 hhcurveto
        -34 -12 -13 -25 -15 hvcurveto
        -108 -166 -11 -17 -4 -4 -21 -1 rlinecurve
        -44 -2 rlineto
        return
      </CharString>
      <CharString index="38">
        hintmask 10010000
        -80 callsubr
        return
      </CharString>
      <CharString index="39">
        40 -2 -13 23 -39 hhcurveto
        -36 4 callgsubr
        -491 62 callgsubr
        17 -17 callgsubr
        349 vlineto
        40 36 54 25 42 hhcurveto
        50 14 -29 -70 hvcurveto
        -260 vlineto
        -40 14 -22 38 23 23 9 12 14 vhcurveto
        -12 23 -3 32 34 vvcurveto
        return
      </CharString>
      <CharString index="40">
        hvcurveto
        -199 541 rlineto
        3 -15 -24 -45 callgsubr
        -16 hvcurveto
        return
      </CharString>
      <CharString index="41">
        rmoveto
        -29 -9 -30 -28 -11 -28 169 -133 rcurveline
        18 6 18 16 7 18 rrcurveto
        endchar
      </CharString>
      <CharString index="42">
        -8 11 27 -5 20 hhcurveto
        19 29 7 6 11 hvcurveto
        5 8 4 25 16 vvcurveto
        17 -4 21 -5 9 vhcurveto
        -9 6 -20 4 -13 1 1 38 34 31 33 16 2 19 -11 21 -17 8 rrcurveto
        -85 -31 -43 -66 -79 vvcurveto
        -23 4 -25 7 -16 vhcurveto
        return
      </CharString>
      <CharString index="43">
        7 -11 -28 18 callgsubr
        -20 -28 -6 71 callgsubr
        -9 -3 -25 -16 vvcurveto
        -16 4 -22 67 callsubr
        -3 13 -2 -2 -38 -33 -31 -33 -16 -2 -18 10 -22 18 -8 rrcurveto
        85 32 43 66 78 vvcurveto
        23 -4 25 -7 17 vhcurveto
        return
      </CharString>
      <CharString index="44">
        rmoveto
        13 12 3 12 11 vvcurveto
        12 -9 20 -7 13 vhcurveto
        -242 hlineto
        -5 -11 -1 -16 -9 vvcurveto
        -8 1 -12 4 -14 vhcurveto
        82 hlineto
        23 39 90 callgsubr
        3 -3 -13 -8 -16 -14 -9 -9 rlinecurve
        -80 -82 3 -19 15 -20 14 -6 rlinecurve
        6 13 16 4 14 hhcurveto
        45 24 -31 -41 -48 -35 -24 -47 -35 -31 14 19 -28 hvcurveto
        -15 -13 -14 -23 -4 -23 rrcurveto
        -24 31 49 -18 59 hhcurveto
        76 81 45 94 78 -54 49 -67 hvcurveto
        -2 hlineto
        11 7 11 8 8 8 rrcurveto
        return
      </CharString>
      <CharString index="45">
        52 93 rmoveto
        -12 -16 -4 -12 -11 vvcurveto
        -13 4 -12 10 -29 vhcurveto
        298 hlineto
        48 15 18 28 15 -3 13 -7 15 hvcurveto
        -10 -24 -38 -3 -47 hhcurveto
        -49 hlineto
        -25 -36 -1 -3 -33 hvcurveto
        -3 4 23 29 32 38 22 31 rlinecurve
        168 227 rlineto
        8 12 5 12 10 vvcurveto
        14 -5 16 -10 28 vhcurveto
        -333 hlineto
        -3 -15 -2 -18 -11 vvcurveto
        -8 1 -13 2 -11 vhcurveto
        109 hlineto
        41 65 3 3 27 hvcurveto
        3 -3 -25 -31 -31 -36 -23 -30 rlinecurve
        return
      </CharString>
      <CharString index="46">
        -4 14 17 -3 18 -6 callsubr
        12 hvcurveto
        54 170 rlineto
        return
      </CharString>
      <CharString index="47">
        1 13 17 vvcurveto
        174 -42 callgsubr
        return
      </CharString>
      <CharString index="48">
        398 185 rmoveto
        -22 51 -28 28 -43 11 11 9 11 12 9 15 113 176 rcurveline
        -6 8 rlineto
        1 -18 -14 0 -19 hhcurveto
        -34 -15 -15 -27 -16 hvcurveto
        -92 -142 rlineto
        -10 -7 -6 -5 -11 hhcurveto
        -36 -2 rlineto
        return
      </CharString>
      <CharString index="49">
        rmoveto
        -19 -18 -12 -27 -4 -26 rrcurveto
        -20 32 54 -17 55 hhcurveto
        126 53 67 135 hvcurveto
        354 vlineto
        3 -14 -19 1 -16 hhcurveto
        -14 28 callsubr
        -355 vlineto
        -82 -25 -40 -66 -31 -40 14 15 -25 vhcurveto
        return
      </CharString>
      <CharString index="50">
        354 vlineto
        2 -13 -18 2 -17 hhcurveto
        -18 -17 -2 -2 -13 hvcurveto
        -349 vlineto
        -40 -37 -53 -26 -42 hhcurveto
        -51 -14 30 70 hvcurveto
        259 vlineto
        41 -13 21 -38 -23 -24 -8 -12 -14 vhcurveto
        12 -23 4 -32 -34 vvcurveto
        return
      </CharString>
      <CharString index="51">
        318 494 rmoveto
        -125 -2 rlineto
        148 vlineto
        -6 6 rlineto
        -36 hlineto
        -42 -10 -19 -43 hvcurveto
        -91 vlineto
        -73 1 rlineto
        43 callsubr
        -10 -13 vvcurveto
        -13 9 callsubr
        73 1 rlineto
        -329 vlineto
        -65 37 -33 65 40 37 3 4 33 vhcurveto
        1 6 0 8 7 vvcurveto
        17 -2 18 -6 14 vhcurveto
        -70 hlineto
        -30 -11 17 26 hvcurveto
        307 vlineto
        125 -1 rlineto
        23 callsubr
        11 6 callgsubr
        -1 10 46 callsubr
        return
      </CharString>
      <CharString index="52">
        rlineto
        -15 -12 -13 -10 -15 hhcurveto
        -10 -13 4 5 -9 hvcurveto
        return
      </CharString>
      <CharString index="53">
        -6 24 -22 27 -22 14 rrcurveto
        -49 -59 -59 -28 -62 hhcurveto
        -105 -64 96 168 181 57 95 108 110 35 -88 -75 -2 hvcurveto
        return
      </CharString>
      <CharString index="54">
        rmoveto
        -20 -14 -20 -35 -4 -32 215 -89 rcurveline
        17 11 9 23 3 17 rrcurveto
        endchar
      </CharString>
      <CharString index="55">
        72 callsubr
        17 -40 callsubr
        return
      </CharString>
      <CharString index="56">
        593 341 rmoveto
        116 -16 105 -89 11 callgsubr
        -86 hvcurveto
        33 callsubr
        -2 87 48 33 callgsubr
        90 74 15 104 117 vvcurveto
        -104 hmoveto
        -121 -22 -144 -153 vhcurveto
        -43 -32 1 -47 hhcurveto
        530 vlineto
        47 32 -1 43 hhcurveto
        153 22 -143 -122 hvcurveto
        return
      </CharString>
      <CharString index="57">
        1 -25 12 -31 16 -16 rrcurveto
        22 53 55 17 51 hhcurveto
        53 31 -26 -65 hvcurveto
        return
      </CharString>
      <CharString index="58">
        -13 -5 callsubr
        16 -4 20 hhcurveto
        return
      </CharString>
      <CharString index="59">
        -13 -2 -14 6 callsubr
        2 -15 return
      </CharString>
</ttFont>
